<?xml version="1.0" encoding="UTF-8" standalone="no"?>
<!-- Created with Inkscape (http://www.inkscape.org/) -->

<svg
   version="1.1"
   id="svg1"
   width="3333.3333"
   height="3333.3333"
   viewBox="0 0 3333.3333 3333.3333"
   sodipodi:docname="Sandy_Tech-04_Single-12.eps"
   xmlns:inkscape="http://www.inkscape.org/namespaces/inkscape"
   xmlns:sodipodi="http://sodipodi.sourceforge.net/DTD/sodipodi-0.dtd"
   xmlns="http://www.w3.org/2000/svg"
   xmlns:svg="http://www.w3.org/2000/svg">
  <defs
     id="defs1">
    <clipPath
       clipPathUnits="userSpaceOnUse"
       id="clipPath69">
      <path
         d="m 10517.6,12322.9 c 0,0 130.3,224.6 359.6,304.2 229.3,79.6 470.8,-16 470.8,-16 0,0 -130.4,-224.6 -359.7,-304.2 -229.3,-79.5 -470.7,16 -470.7,16 z"
         transform="translate(0,-2.5000001e-4)"
         id="path69" />
    </clipPath>
  </defs>
  <sodipodi:namedview
     id="namedview1"
     pagecolor="#ffffff"
     bordercolor="#000000"
     borderopacity="0.25"
     inkscape:showpageshadow="2"
     inkscape:pageopacity="0.0"
     inkscape:pagecheckerboard="0"
     inkscape:deskcolor="#d1d1d1">
    <inkscape:page
       x="0"
       y="0"
       inkscape:label="1"
       id="page1"
       width="3333.3333"
       height="3333.3333"
       margin="0"
       bleed="0" />
  </sodipodi:namedview>
  <g
     id="g1"
     inkscape:groupmode="layer"
     inkscape:label="1">
    <g
       id="group-R5">
      <path
         id="path2"
         d="M 25000,0 H 0 V 25000 H 25000 V 0"
         style="fill:#ffffff;fill-opacity:1;fill-rule:nonzero;stroke:none"
         transform="matrix(0.13333333,0,0,-0.13333333,0,3333.3333)" />
      <path
         id="path3"
         d="m 21650,12500 c 0,-5053.4 -4096.6,-9150 -9150,-9150 -5053.41,0 -9150,4096.6 -9150,9150 0,5053.4 4096.59,9150 9150,9150 5053.4,0 9150,-4096.6 9150,-9150"
         style="fill:#f2e6dc;fill-opacity:1;fill-rule:nonzero;stroke:none"
         transform="matrix(0.13333333,0,0,-0.13333333,0,3333.3333)" />
      <path
         id="path4"
         d="M 17594.2,7400.1 V 5806.4 c 0,-880.2 713.5,-1593.8 1593.7,-1593.8 880.3,0 1593.8,713.6 1593.8,1593.8 v 1593.7 h -3187.5"
         style="fill:#efbc73;fill-opacity:1;fill-rule:nonzero;stroke:none"
         transform="matrix(0.13333333,0,0,-0.13333333,0,3333.3333)" />
      <path
         id="path5"
         d="m 18993.2,7577.8 c -3.2,0 -6.3,1.5 -8.2,4.3 -1138.6,1622.5 -2175.1,2174.7 -2844.1,2352.3 -723.3,191.9 -1183,-0.7 -1187.5,-2.6 -5.1,-2.2 -11,0.1 -13.2,5.2 -2.1,5 0.2,10.9 5.3,13.1 4.6,2 470.6,197.3 1200.5,3.6 428.1,-113.6 862.1,-336.7 1290.1,-663.2 534.5,-407.6 1061.1,-978.6 1565.2,-1696.9 3.2,-4.6 2.1,-10.8 -2.4,-14 -1.8,-1.2 -3.8,-1.8 -5.7,-1.8"
         style="fill:#d3bba3;fill-opacity:1;fill-rule:nonzero;stroke:none"
         transform="matrix(0.13333333,0,0,-0.13333333,0,3333.3333)" />
      <path
         id="path6"
         d="m 14907.1,10051.1 c 0,0 -1268,402.8 -730.6,1003.3 399.4,446.1 515.3,-943.2 730.6,-1003.3"
         style="fill:#e6d0be;fill-opacity:1;fill-rule:nonzero;stroke:none"
         transform="matrix(0.13333333,0,0,-0.13333333,0,3333.3333)" />
      <path
         id="path7"
         d="m 15130.6,10136.4 c 0,0 -289.5,412.5 -13.6,939.2 275.9,526.8 598.8,290.4 398.7,-119.1 -200.1,-409.5 -398.9,-635.4 -385.1,-820.1"
         style="fill:#e6d0be;fill-opacity:1;fill-rule:nonzero;stroke:none"
         transform="matrix(0.13333333,0,0,-0.13333333,0,3333.3333)" />
      <path
         id="path8"
         d="m 16055.4,10095.2 c 3.5,-24.3 -210.9,441.8 74,888.9 284.8,447.1 709.9,43.9 472.5,-251.4 -237.3,-295.2 -585.2,-372.5 -546.5,-637.5"
         style="fill:#e6d0be;fill-opacity:1;fill-rule:nonzero;stroke:none"
         transform="matrix(0.13333333,0,0,-0.13333333,0,3333.3333)" />
      <path
         id="path9"
         d="m 16715.2,9913.1 c -4.7,-16 -40.1,502.3 334.6,750.8 374.7,248.4 563.9,-243.4 193.6,-420.5 -370.3,-177.2 -508.8,-264.1 -528.2,-330.3"
         style="fill:#e6d0be;fill-opacity:1;fill-rule:nonzero;stroke:none"
         transform="matrix(0.13333333,0,0,-0.13333333,0,3333.3333)" />
      <path
         id="path10"
         d="m 17490,9366.5 c 0,0 -48.9,591.2 486.6,591.2 386.8,0 292.6,-326.2 22.1,-425.6 -214.8,-78.8 -440.1,-60.6 -508.7,-165.6"
         style="fill:#e6d0be;fill-opacity:1;fill-rule:nonzero;stroke:none"
         transform="matrix(0.13333333,0,0,-0.13333333,0,3333.3333)" />
      <path
         id="path11"
         d="m 19745.3,7574.5 c -0.8,0 -1.6,0.1 -2.4,0.3 -5.3,1.2 -8.7,6.6 -7.4,12 457,1927.5 182.3,3068.8 -128.6,3686.9 -336.5,669 -786.7,885.8 -791.2,887.9 -5,2.3 -7.2,8.3 -4.8,13.3 2.3,5 8.2,7.1 13.3,4.8 4.5,-2.1 460,-221 799.8,-895.4 199.2,-395.5 320.6,-868.2 360.7,-1404.9 50,-670.4 -27.3,-1443.3 -229.7,-2297.2 -1.1,-4.6 -5.2,-7.7 -9.7,-7.7"
         style="fill:#d3bba3;fill-opacity:1;fill-rule:nonzero;stroke:none"
         transform="matrix(0.13333333,0,0,-0.13333333,0,3333.3333)" />
      <path
         id="path12"
         d="m 18874.2,12275.4 c 0,0 -540.7,1215.6 265.2,1212.5 598.7,-2.4 -363.2,-1011.6 -265.2,-1212.5"
         style="fill:#e6d0be;fill-opacity:1;fill-rule:nonzero;stroke:none"
         transform="matrix(0.13333333,0,0,-0.13333333,0,3333.3333)" />
      <path
         id="path13"
         d="m 19086.4,12164.9 c 0,0 116.2,490.4 693.3,633.8 577.1,143.5 614.7,-255 175.6,-377.2 -439.1,-122.3 -740,-123.6 -868.9,-256.6"
         style="fill:#e6d0be;fill-opacity:1;fill-rule:nonzero;stroke:none"
         transform="matrix(0.13333333,0,0,-0.13333333,0,3333.3333)" />
      <path
         id="path14"
         d="m 19669.6,11446.1 c -15.8,-18.8 190.3,451 713.8,534.8 523.5,83.9 504.2,-501.7 125.8,-520.2 -378.3,-18.5 -667.1,190.2 -839.6,-14.6"
         style="fill:#e6d0be;fill-opacity:1;fill-rule:nonzero;stroke:none"
         transform="matrix(0.13333333,0,0,-0.13333333,0,3333.3333)" />
      <path
         id="path15"
         d="m 19971.5,10831.8 c -15,-7.1 349.1,363.5 783.6,248.2 434.6,-115.2 192.5,-583.2 -185.9,-423.9 -378.3,159.3 -535.3,205.2 -597.7,175.7"
         style="fill:#e6d0be;fill-opacity:1;fill-rule:nonzero;stroke:none"
         transform="matrix(0.13333333,0,0,-0.13333333,0,3333.3333)" />
      <path
         id="path16"
         d="m 20077.3,9889.5 c 0,0 409.5,429.1 765.1,28.7 256.8,-289.3 -49.6,-435.4 -303.6,-299.1 -201.5,108.2 -337.5,288.8 -461.5,270.4"
         style="fill:#e6d0be;fill-opacity:1;fill-rule:nonzero;stroke:none"
         transform="matrix(0.13333333,0,0,-0.13333333,0,3333.3333)" />
      <path
         id="path17"
         d="m 19588.6,7810.7 c -4.1,0 -8,2.6 -9.4,6.8 -877.1,2551.3 -2124.6,3692.5 -3016.8,4200.5 -966.2,550.3 -1735.2,497 -1742.8,496.4 -5.7,-0.5 -10.4,3.6 -10.8,9.1 -0.4,5.6 3.7,10.4 9.2,10.8 7.7,0.6 781.6,54.6 1753,-498.1 570.1,-324.4 1095.9,-791.2 1562.9,-1387.6 583.3,-744.9 1076,-1695.3 1464.2,-2824.6 1.8,-5.2 -1,-10.9 -6.2,-12.7 -1.1,-0.4 -2.2,-0.6 -3.3,-0.6"
         style="fill:#d3bba3;fill-opacity:1;fill-rule:nonzero;stroke:none"
         transform="matrix(0.13333333,0,0,-0.13333333,0,3333.3333)" />
      <path
         id="path18"
         d="m 14720.5,12613.7 c 0,0 -718.1,501.4 -228.9,1133.5 489.1,632.1 498.7,-712.8 228.9,-1133.5"
         style="fill:#e6d0be;fill-opacity:1;fill-rule:nonzero;stroke:none"
         transform="matrix(0.13333333,0,0,-0.13333333,0,3333.3333)" />
      <path
         id="path19"
         d="m 15841.8,12449.2 c 13.6,-24.3 -383.7,387.4 -309.9,965.9 73.7,578.6 639.7,312 545.2,-88.5 -94.4,-400.4 -384,-612.1 -235.3,-877.4"
         style="fill:#e6d0be;fill-opacity:1;fill-rule:nonzero;stroke:none"
         transform="matrix(0.13333333,0,0,-0.13333333,0,3333.3333)" />
      <path
         id="path20"
         d="m 16886.9,11964.1 c 13.7,-24.4 -383.7,387.3 -309.9,965.9 73.7,578.5 639.7,311.9 545.3,-88.5 -94.4,-400.5 -384.1,-612.2 -235.4,-877.4"
         style="fill:#e6d0be;fill-opacity:1;fill-rule:nonzero;stroke:none"
         transform="matrix(0.13333333,0,0,-0.13333333,0,3333.3333)" />
      <path
         id="path21"
         d="m 18053.2,10978.1 c 10.1,-32.7 -362,564 -125.1,1240.7 237,676.7 849.1,211.1 632.9,-246.1 -216.1,-457.3 -618.6,-637.6 -507.8,-994.6"
         style="fill:#e6d0be;fill-opacity:1;fill-rule:nonzero;stroke:none"
         transform="matrix(0.13333333,0,0,-0.13333333,0,3333.3333)" />
      <path
         id="path22"
         d="m 18754.4,9996.9 c 2.1,-27.8 -183.8,513.3 127.8,1006.3 311.6,493 711.6,12 456.7,-310.9 -255,-322.9 -607,-392.2 -584.5,-695.4"
         style="fill:#e6d0be;fill-opacity:1;fill-rule:nonzero;stroke:none"
         transform="matrix(0.13333333,0,0,-0.13333333,0,3333.3333)" />
      <path
         id="path23"
         d="m 20094,7675 c -0.8,0 -1.7,0.1 -2.5,0.3 -5.3,1.3 -8.6,6.8 -7.3,12.1 123,495.3 -191,1154.7 -554.6,1918.2 -379.6,797.2 -809.8,1700.8 -944.6,2745.5 -44.5,344.4 -16.3,712 83.6,1092.6 79.9,304.3 205.7,617.6 373.7,931.2 286,533.8 600,888.2 603.1,891.7 3.7,4.1 10,4.5 14.1,0.8 4.1,-3.7 4.5,-10 0.8,-14.1 -3.1,-3.5 -315.7,-356.5 -600.6,-888.3 -262.7,-490.3 -554.8,-1237.2 -454.9,-2011.3 134.4,-1041.6 563.9,-1943.6 942.9,-2739.5 380.3,-798.6 680.6,-1429.4 556,-1931.6 -1.2,-4.6 -5.3,-7.6 -9.7,-7.6"
         style="fill:#d3bba3;fill-opacity:1;fill-rule:nonzero;stroke:none"
         transform="matrix(0.13333333,0,0,-0.13333333,0,3333.3333)" />
      <path
         id="path24"
         d="m 18594.9,13496 c 0,0 -673,597.9 -461.6,1303.7 211.3,705.8 489.6,297.7 322,-376.3 -167.6,-673.9 139.6,-927.4 139.6,-927.4"
         style="fill:#e6d0be;fill-opacity:1;fill-rule:nonzero;stroke:none"
         transform="matrix(0.13333333,0,0,-0.13333333,0,3333.3333)" />
      <path
         id="path25"
         d="m 18793.6,14423.4 c 0,0 -314.8,935.8 118.7,1458 433.4,522.1 458.5,-12.7 228.6,-512.2 -229.9,-499.5 -354.6,-688.1 -347.3,-945.8"
         style="fill:#e6d0be;fill-opacity:1;fill-rule:nonzero;stroke:none"
         transform="matrix(0.13333333,0,0,-0.13333333,0,3333.3333)" />
      <path
         id="path26"
         d="m 19389.9,15262.6 c 0.8,67 -9.2,822.4 510.6,966.9 519.9,144.6 506.2,-408.8 66.1,-657.8 -440.2,-248.9 -576.7,-309.1 -576.7,-309.1"
         style="fill:#e6d0be;fill-opacity:1;fill-rule:nonzero;stroke:none"
         transform="matrix(0.13333333,0,0,-0.13333333,0,3333.3333)" />
      <path
         id="path27"
         d="m 20405.7,7656.2 c -1.2,0 -2.5,0.2 -3.7,0.6 -5.1,2.1 -7.7,7.9 -5.7,13 223,569.6 318.2,1133.7 283,1676.8 -35.1,540.3 -184.5,934.8 -329,1316.3 -162.4,429 -315.9,834.2 -253.3,1370.8 51.8,444.1 237.8,875 552.7,1280.7 3.4,4.3 9.7,5.1 14.1,1.7 4.3,-3.3 5.1,-9.6 1.7,-14 -312.7,-402.8 -497.3,-830.3 -548.6,-1270.7 -62.1,-531.8 90.6,-934.7 252.1,-1361.4 145,-382.9 295,-778.8 330.2,-1322.1 35.4,-546 -60.2,-1113.1 -284.2,-1685.4 -1.6,-3.9 -5.3,-6.3 -9.3,-6.3"
         style="fill:#d3bba3;fill-opacity:1;fill-rule:nonzero;stroke:none"
         transform="matrix(0.13333333,0,0,-0.13333333,0,3333.3333)" />
      <path
         id="path28"
         d="m 20714.8,13429.7 c 0,0 -286.2,776 -40,1171.9 246.1,396 952.8,-126.6 40,-1171.9"
         style="fill:#e6d0be;fill-opacity:1;fill-rule:nonzero;stroke:none"
         transform="matrix(0.13333333,0,0,-0.13333333,0,3333.3333)" />
      <path
         id="path29"
         d="m 20655.9,12905.4 c 0,0 396.7,662 721,585.8 324.3,-76.2 -60.8,-552.2 -426.5,-635.6 -130.3,-29.8 -294.5,49.8 -294.5,49.8"
         style="fill:#e6d0be;fill-opacity:1;fill-rule:nonzero;stroke:none"
         transform="matrix(0.13333333,0,0,-0.13333333,0,3333.3333)" />
      <path
         id="path30"
         d="m 20203.7,11420.5 c -4.9,-53.5 -10.9,907.3 550.5,1071.4 417.3,121.8 323.2,-343 0,-528.8 -225.1,-129.6 -539,-417.1 -550.5,-542.6"
         style="fill:#e6d0be;fill-opacity:1;fill-rule:nonzero;stroke:none"
         transform="matrix(0.13333333,0,0,-0.13333333,0,3333.3333)" />
      <path
         id="path31"
         d="m 20595.3,10224.6 c 10.2,26.3 -211.7,686.1 119.5,907.7 331.3,221.7 406.5,-159.9 231.9,-366.8 -174.5,-206.9 -351.4,-540.9 -351.4,-540.9"
         style="fill:#e6d0be;fill-opacity:1;fill-rule:nonzero;stroke:none"
         transform="matrix(0.13333333,0,0,-0.13333333,0,3333.3333)" />
      <path
         id="path32"
         d="m 20784.9,9116.2 c -16.6,-15 -39.2,898 383.3,879.6 422.6,-18.3 -172.4,-688.5 -383.3,-879.6"
         style="fill:#e6d0be;fill-opacity:1;fill-rule:nonzero;stroke:none"
         transform="matrix(0.13333333,0,0,-0.13333333,0,3333.3333)" />
      <path
         id="path33"
         d="m 6884.92,10451.6 c -193.87,-502.7 -752.59,-772 -1266.62,-610.6 -567.61,178.2 -866.05,797.3 -651.98,1352.4 193.87,502.6 752.59,772 1266.61,610.6 567.62,-178.2 866.06,-797.3 651.99,-1352.4 z m 910.48,47.9 -174.03,60.9 c 14.06,90.2 20.66,180.5 20.25,270 l 180.99,34.3 -116.25,613 -181.4,-34.4 c -32.73,84.2 -72.04,165.7 -117.53,243.8 l 139.9,120.5 -407.15,472.7 -139.58,-120.2 c -69.78,56 -144.51,107.1 -223.89,152.3 l 60.8,174.1 -588.95,205.8 -60.81,-174.1 c -90.28,14.1 -180.54,20.7 -270.06,20.3 l -34.33,181 -612.95,-116.3 34.4,-181.4 c -84.21,-32.7 -165.73,-72 -243.79,-117.5 l -120.49,139.9 -472.72,-407.1 120.23,-139.6 c -56.08,-69.8 -107.14,-144.5 -152.36,-223.9 l -174.03,60.8 -205.81,-589 174.03,-60.8 c -14.06,-90.3 -20.66,-180.5 -20.25,-270 l -180.99,-34.4 116.24,-612.9 181.41,34.4 c 32.73,-84.2 72.03,-165.8 117.52,-243.8 l -139.89,-120.5 407.14,-472.7 139.58,120.2 c 69.79,-56.1 144.51,-107.1 223.9,-152.4 l -60.81,-174 588.96,-205.8 60.81,174 c 90.27,-14 180.54,-20.6 270.06,-20.2 l 34.32,-181 612.96,116.2 -34.4,181.4 c 84.2,32.8 165.73,72.1 243.78,117.6 l 120.49,-139.9 472.72,407.1 -120.22,139.6 c 56.08,69.8 107.13,144.5 152.36,223.9 l 174.03,-60.8 205.81,588.9"
         style="fill:#f7f1eb;fill-opacity:1;fill-rule:nonzero;stroke:none"
         transform="matrix(0.13333333,0,0,-0.13333333,0,3333.3333)" />
      <path
         id="path34"
         d="m 5925.87,9447.5 c -151.42,0 -304.59,25.1 -453.75,77.2 -346.65,121.1 -625.38,370 -784.85,700.8 -159.47,330.8 -180.57,703.8 -59.44,1050.5 109.26,312.7 327.57,575.3 614.72,739.5 284.29,162.6 617.1,218.8 937.19,158.2 5.42,-1 8.98,-6.2 7.96,-11.7 -1.04,-5.4 -6.24,-8.9 -11.69,-7.9 -652.48,123.5 -1309.89,-256.8 -1529.29,-884.7 -119.38,-341.6 -98.58,-709.3 58.56,-1035.2 157.15,-326 431.83,-571.3 773.44,-690.6 582.65,-203.6 1229.19,11.8 1572.24,524 3.07,4.6 9.28,5.8 13.87,2.8 4.59,-3.1 5.82,-9.3 2.75,-13.9 -260.29,-388.6 -692.88,-609 -1141.71,-609"
         style="fill:#f2e6dc;fill-opacity:1;fill-rule:nonzero;stroke:none"
         transform="matrix(0.13333333,0,0,-0.13333333,0,3333.3333)" />
      <path
         id="path35"
         d="M 6268.63,9275.1 H 14565.5 V 20448.7 H 6268.63 V 9275.1"
         style="fill:#ffffff;fill-opacity:1;fill-rule:nonzero;stroke:none"
         transform="matrix(0.13333333,0,0,-0.13333333,0,3333.3333)" />
      <path
         id="path36"
         d="m 7096,17729.4 h 6600.9 v 1718 H 7096 Z m 6610.9,-20 H 7086 c -5.53,0 -10,4.5 -10,10 v 1738 c 0,5.5 4.47,10 10,10 h 6620.9 c 5.6,0 10,-4.5 10,-10 v -1738 c 0,-5.5 -4.4,-10 -10,-10"
         style="fill:#9e9569;fill-opacity:1;fill-rule:nonzero;stroke:none"
         transform="matrix(0.13333333,0,0,-0.13333333,0,3333.3333)" />
      <path
         id="path37"
         d="M 13032.5,19010.9 H 11270 c -5.5,0 -10,4.4 -10,10 0,5.5 4.5,10 10,10 h 1762.5 c 5.5,0 10,-4.5 10,-10 0,-5.6 -4.5,-10 -10,-10"
         style="fill:#9e9569;fill-opacity:1;fill-rule:nonzero;stroke:none"
         transform="matrix(0.13333333,0,0,-0.13333333,0,3333.3333)" />
      <path
         id="path38"
         d="M 13329.9,18622.3 H 11270 c -5.5,0 -10,4.4 -10,10 0,5.5 4.5,10 10,10 h 2059.9 c 5.5,0 10,-4.5 10,-10 0,-5.6 -4.5,-10 -10,-10"
         style="fill:#9e9569;fill-opacity:1;fill-rule:nonzero;stroke:none"
         transform="matrix(0.13333333,0,0,-0.13333333,0,3333.3333)" />
      <path
         id="path39"
         d="M 13329.9,18233.7 H 11270 c -5.5,0 -10,4.5 -10,10 0,5.5 4.5,10 10,10 h 2059.9 c 5.5,0 10,-4.5 10,-10 0,-5.5 -4.5,-10 -10,-10"
         style="fill:#9e9569;fill-opacity:1;fill-rule:nonzero;stroke:none"
         transform="matrix(0.13333333,0,0,-0.13333333,0,3333.3333)" />
   
      <path
         id="path43"
         d="M 11720.6,15582 H 7086 v 1863.4 h 4634.6 V 15582"
         style="fill:#f2e6dc;fill-opacity:1;fill-rule:nonzero;stroke:none"
         transform="matrix(0.13333333,0,0,-0.13333333,0,3333.3333)" />
      <path
         id="path44"
         d="m 13706.9,15582 h -1718 v 1863.4 h 1718 V 15582"
         style="fill:#f2e6dc;fill-opacity:1;fill-rule:nonzero;stroke:none"
         transform="matrix(0.13333333,0,0,-0.13333333,0,3333.3333)" />
      <path
         id="path45"
         d="M 11776.5,13233 H 7094.41 v 427.5 H 11776.5 V 13233"
         style="fill:#f2e6dc;fill-opacity:1;fill-rule:nonzero;stroke:none"
         transform="matrix(0.13333333,0,0,-0.13333333,0,3333.3333)" />
      <path
         id="path46"
         d="M 11776.5,12603.9 H 7094.41 v 427.6 h 4682.09 v -427.6"
         style="fill:#f2e6dc;fill-opacity:1;fill-rule:nonzero;stroke:none"
         transform="matrix(0.13333333,0,0,-0.13333333,0,3333.3333)" />
      <path
         id="path47"
         d="M 11776.5,11974.8 H 7094.41 v 427.6 h 4682.09 v -427.6"
         style="fill:#f2e6dc;fill-opacity:1;fill-rule:nonzero;stroke:none"
         transform="matrix(0.13333333,0,0,-0.13333333,0,3333.3333)" />
      <path
         id="path48"
         d="M 11776.5,11345.7 H 7094.41 v 427.6 h 4682.09 v -427.6"
         style="fill:#f2e6dc;fill-opacity:1;fill-rule:nonzero;stroke:none"
         transform="matrix(0.13333333,0,0,-0.13333333,0,3333.3333)" />
      <path
         id="path49"
         d="M 11776.5,10716.7 H 7094.41 v 427.5 h 4682.09 v -427.5"
         style="fill:#f2e6dc;fill-opacity:1;fill-rule:nonzero;stroke:none"
         transform="matrix(0.13333333,0,0,-0.13333333,0,3333.3333)" />
      <path
         id="path50"
         d="m 13706.9,10716.7 h -1735.6 v 2943.8 h 1735.6 v -2943.8"
         style="fill:#f2e6dc;fill-opacity:1;fill-rule:nonzero;stroke:none"
         transform="matrix(0.13333333,0,0,-0.13333333,0,3333.3333)" />
      <path
         id="path51"
         d="M 13715.3,14780.2 H 7094.41 v 441.7 h 6620.89 v -441.7"
         style="fill:#f7f1eb;fill-opacity:1;fill-rule:nonzero;stroke:none"
         transform="matrix(0.13333333,0,0,-0.13333333,0,3333.3333)" />
      <path
         id="path52"
         d="M 13715.3,14039 H 7094.41 v 441.7 H 13715.3 V 14039"
         style="fill:#f7f1eb;fill-opacity:1;fill-rule:nonzero;stroke:none"
         transform="matrix(0.13333333,0,0,-0.13333333,0,3333.3333)" />
      <path
         id="path53"
         d="M 13692,9965.3 H 7107.42 v 441.8 H 13692 v -441.8"
         style="fill:#f2e6dc;fill-opacity:1;fill-rule:nonzero;stroke:none"
         transform="matrix(0.13333333,0,0,-0.13333333,0,3333.3333)" />
      <path
         id="path54"
         d="m 16035.9,8188.5 c 0,0 -1185.1,-661.1 -3581,-940.5 -2655.22,-309.7 -66.3,2449.7 -66.3,2449.7 0,0 1919.8,750.3 2889.8,1131.7 830.8,326.6 757.5,-2640.9 757.5,-2640.9"
         style="fill:#e2a18d;fill-opacity:1;fill-rule:nonzero;stroke:none"
         transform="matrix(0.13333333,0,0,-0.13333333,0,3333.3333)" />
      <path
         id="path55"
         d="m 14254.7,9354.6 c 0,0 834.6,2464.6 1235.7,3436.4 421.3,1020.5 1191.8,2465.9 1392.6,2355.5 114.4,-62.8 50.1,-281.7 -160.8,-855.2 39.7,18.3 173.5,44.1 270.1,-31.6 142.8,-112 84,-252.3 84.7,-267.1 12.9,7.3 164.8,82.7 273.1,23.8 122,-66.2 152.2,-180.1 142.3,-288.7 32.6,17.2 183.2,66.9 284.4,5.2 131.5,-80.3 128.8,-250.8 78.6,-367.7 -92.3,-214.3 -358.8,-793.8 -460.7,-1118.2 -200.4,-638.5 -470.6,-3105.3 -1141.3,-3847.6 -1198.3,-1326.2 -2210.8,311 -1998.7,955.2"
         style="fill:#e2a18d;fill-opacity:1;fill-rule:nonzero;stroke:none"
         transform="matrix(0.13333333,0,0,-0.13333333,0,3333.3333)" />
      <path
         id="path56"
         d="m 16611.7,12351.4 c -0.2,0 -0.4,0 -0.6,0 -5.5,0.3 -9.7,5 -9.4,10.5 13.1,240.2 -65.5,418.6 -128.7,561.9 -65.1,147.8 -112.1,254.5 -20.1,345.7 66.7,66 112.2,174.2 135.2,321.5 7.1,45.4 -18.5,77.4 -45,92.2 -26.7,15 -67.9,20.3 -103.5,-9.9 l -547.2,-464.3 c -4.2,-3.6 -10.5,-3.1 -14.1,1.1 -3.6,4.2 -3.1,10.5 1.1,14.1 l 547.3,464.4 c 35.7,30.3 85.3,35.1 126.2,12.1 41.2,-23.1 62.3,-66.3 55,-112.8 -23.7,-151.6 -71.1,-263.5 -140.9,-332.6 -82.3,-81.5 -39.9,-177.7 24.3,-323.4 64.1,-145.3 143.7,-326.1 130.3,-571.1 -0.2,-5.3 -4.7,-9.4 -9.9,-9.4"
         style="fill:#363e44;fill-opacity:1;fill-rule:nonzero;stroke:none"
         transform="matrix(0.13333333,0,0,-0.13333333,0,3333.3333)" />
      <path
         id="path57"
         d="m 17570.1,13042.1 c -1.3,0 -2.7,0.3 -3.9,0.8 -177.3,75.7 -266.8,277.7 -203.7,459.8 l 16.2,46.6 -97.4,-160.4 c -60,-98.9 -182,-140.8 -290,-99.6 -60.9,23.2 -108.7,68.9 -134.5,128.7 -25.9,59.8 -26.5,125.8 -1.7,186.1 l 71.4,173.9 c -51.2,-88.3 -164.8,-121.9 -256,-74.8 -87.5,45.2 -127.1,148.7 -92,240.7 l 93.7,245.6 c 1.9,5.2 7.7,7.8 12.9,5.8 5.1,-2 7.7,-7.8 5.7,-12.9 l -93.6,-245.6 c -31.5,-82.5 4,-175.3 82.5,-215.8 83.3,-43 187.4,-11 232,71.5 l 86.3,159.4 c 2.5,4.6 8.2,6.5 13.1,4.2 4.8,-2.3 6.9,-7.9 4.9,-12.8 l -142.4,-346.8 c -22.7,-55.2 -22.2,-115.8 1.5,-170.6 23.7,-54.7 67.5,-96.6 123.3,-117.9 99,-37.8 210.8,0.6 265.8,91.2 l 146.1,240.8 c 2.7,4.4 8.1,6.1 12.8,3.9 4.6,-2.2 6.9,-7.5 5.2,-12.3 l -46.9,-135.4 c -59.6,-172.3 25,-363.3 192.6,-434.9 5.1,-2.1 7.5,-8 5.3,-13.1 -1.6,-3.8 -5.3,-6.1 -9.2,-6.1"
         style="fill:#363e44;fill-opacity:1;fill-rule:nonzero;stroke:none"
         transform="matrix(0.13333333,0,0,-0.13333333,0,3333.3333)" />
      <path
         id="path58"
         d="m 3568.67,5855.8 c 53.39,133.4 692.44,2781.5 2797.96,3746.9 0,0 299.45,-2255.1 299.45,-2335.1 0,-80.1 -1040.93,-1708.2 -1040.93,-1708.2 l -2056.48,296.4"
         style="fill:#e2a18d;fill-opacity:1;fill-rule:nonzero;stroke:none"
         transform="matrix(0.13333333,0,0,-0.13333333,0,3333.3333)" />
      <path
         id="path59"
         d="m 14127.1,10664.9 c 0,0 -2344.9,-362.7 -4566.37,-188.3 -1045.17,82 -3008.59,91 -3670.39,-343 C 4410.81,9163.3 4013.32,7581 4013.32,7581 L 6584.5,7110.6 6220.96,4518.4 H 13217.4 L 12785,6960 l 1607.1,348.3 -265,3356.6"
         style="fill:#363e44;fill-opacity:1;fill-rule:nonzero;stroke:none"
         transform="matrix(0.13333333,0,0,-0.13333333,0,3333.3333)" />
      <path
         id="path60"
         d="m 12722,7139.7 c -4.7,0 -8.9,3.4 -9.8,8.2 l -141.4,745.5 c -1.1,5.5 2.5,10.7 7.9,11.7 5.5,1 10.7,-2.5 11.7,-7.9 l 141.5,-745.6 c 1,-5.4 -2.6,-10.7 -8,-11.7 -0.6,-0.1 -1.3,-0.2 -1.9,-0.2"
         style="fill:#363e44;fill-opacity:1;fill-rule:nonzero;stroke:none"
         transform="matrix(0.13333333,0,0,-0.13333333,0,3333.3333)" />
      <path
         id="path61"
         d="M 11459.1,6462.1 C 11202.8,6591.4 10223.2,7300 9721.87,7043.2 9216.91,6784.5 8969,6208.6 8922.81,5643.1 c 1.44,-1.8 3.03,-3.8 4.45,-5.6 54.08,-147.5 157.6,-359.8 365.39,-516 236.88,-178 382.36,-112.5 661.58,-261.5 471.27,-251.4 514.77,-698.5 693.37,-636 122.6,42.9 108.5,304.6 33.6,539.8 -76.9,241.6 -228.3,365.4 -199.8,395.6 31.4,33 169,-112.7 356.6,-278.2 87.2,-76.8 196.7,-435.4 372.8,-401.4 140.4,27 119.9,428.2 -79.6,716.4 -141.1,203.8 -373.9,265 -353.9,305.6 15,30.5 152.8,-9.4 261.3,-79.2 179,-115.1 294.9,-480.7 456.4,-446.3 158.3,33.7 134.2,383.8 -32.5,660.4 -140.6,233.3 -403.4,289.1 -378.8,339.8 17.2,35.6 140.1,35 385.4,-42.5 204.8,-64.7 561.3,-322.7 661.1,-118.5 83.8,171.8 -284.2,451.5 -671.1,646.6"
         style="fill:#e2a18d;fill-opacity:1;fill-rule:nonzero;stroke:none"
         transform="matrix(0.13333333,0,0,-0.13333333,0,3333.3333)" />
      <path
         id="path62"
         d="m 3891.18,6638.3 c 0,0 -1174.9,-1554.2 346.34,-2298.5 1521.24,-744.3 5197.22,1246.3 5197.22,1246.3 l 561.68,1512.4 C 7956.02,7354 5722.18,7227.2 3891.18,6638.3"
         style="fill:#e2a18d;fill-opacity:1;fill-rule:nonzero;stroke:none"
         transform="matrix(0.13333333,0,0,-0.13333333,0,3333.3333)" />
      <path
         id="path63"
         d="m 4905.38,6899.4 c -4.84,0 -9.1,3.6 -9.87,8.5 -0.85,5.4 2.89,10.6 8.34,11.4 l 1542.56,240.3 c 5.63,0.8 10.57,-2.9 11.42,-8.3 0.85,-5.5 -2.89,-10.6 -8.34,-11.4 L 4906.93,6899.6 c -0.52,-0.1 -1.04,-0.2 -1.55,-0.2"
         style="fill:#363e44;fill-opacity:1;fill-rule:nonzero;stroke:none"
         transform="matrix(0.13333333,0,0,-0.13333333,0,3333.3333)" />
      <path
         id="path64"
         d="m 8922.8,10281.9 c 483.24,-299.4 944.47,-355.8 1375.4,-77.3 l 653.5,1664.2 -1217.89,478.3 -811.01,-2065.2"
         style="fill:#e2a18d;fill-opacity:1;fill-rule:nonzero;stroke:none"
         transform="matrix(0.13333333,0,0,-0.13333333,0,3333.3333)" />
      <path
         id="path65"
         d="m 11727,11702 c -142.6,-335.6 -1158.1,-287.4 -1158.1,-287.4 l -935.8,604.3 c -268.74,436.9 -132.42,1008.9 304.47,1277.7 436.93,268.7 1008.93,132.4 1277.63,-304.5 0,0 657.1,-948.3 511.8,-1290.1"
         style="fill:#e2a18d;fill-opacity:1;fill-rule:nonzero;stroke:none"
         transform="matrix(0.13333333,0,0,-0.13333333,0,3333.3333)" />
      <path
         id="path66"
         d="m 11252.3,12728.2 c 0,0 364.9,-96 390.8,-164.6 31,-82 -188.7,-278.7 -188.7,-278.7 0,0 -195.9,446.3 -202.1,443.3"
         style="fill:#e2a18d;fill-opacity:1;fill-rule:nonzero;stroke:none"
         transform="matrix(0.13333333,0,0,-0.13333333,0,3333.3333)" />
      <path
         id="path67"
         d="m 10517.6,12322.9 c 0,0 88.6,152.7 248.2,250.9 34,20.9 137.1,-290.3 95.4,-294.8 -183.4,-19.5 -343.6,43.9 -343.6,43.9"
         style="fill:#ffffff;fill-opacity:1;fill-rule:nonzero;stroke:none"
         transform="matrix(0.13333333,0,0,-0.13333333,0,3333.3333)" />
      <path
         id="path68"
         d="m 10768.3,12584.9 c 40.6,170.6 211.8,275.9 382.4,235.2 170.5,-40.6 275.8,-211.8 235.2,-382.3 -40.7,-170.6 -211.9,-275.9 -382.4,-235.2 -170.5,40.6 -275.9,211.8 -235.2,382.3"
         style="fill:#363e44;fill-opacity:1;fill-rule:nonzero;stroke:none"
         transform="matrix(0.13333333,0,0,-0.13333333,0,3333.3333)"
         clip-path="url(#clipPath69)" />
      <path
         id="path70"
         d="m 11274.9,11998.2 c -1.2,0 -2.3,0 -3.4,0.1 -53,1.2 -101.6,33.3 -124,81.6 -2.3,5.1 -0.1,11 4.9,13.3 5,2.3 10.9,0.1 13.3,-4.9 19.2,-41.4 60.9,-69 106.3,-70 46.8,-1.1 90.8,25.7 111.3,68.5 2.4,5 8.4,7.1 13.4,4.7 5,-2.4 7.1,-8.4 4.7,-13.4 -23.5,-48.8 -72.9,-79.9 -126.5,-79.9"
         style="fill:#363e44;fill-opacity:1;fill-rule:nonzero;stroke:none"
         transform="matrix(0.13333333,0,0,-0.13333333,0,3333.3333)" />
      <path
         id="path71"
         d="m 10703.9,11388.8 c -76.7,0 -125.4,2.1 -127.1,2.2 -5.5,0.3 -9.8,5 -9.5,10.5 0.2,5.5 5.3,9.7 10.5,9.5 5.8,-0.3 592.1,-26.4 929.9,106.7 5.1,2 10.9,-0.5 12.9,-5.7 2,-5.1 -0.5,-10.9 -5.6,-12.9 -244.8,-96.5 -617.3,-110.3 -811.1,-110.3"
         style="fill:#363e44;fill-opacity:1;fill-rule:nonzero;stroke:none"
         transform="matrix(0.13333333,0,0,-0.13333333,0,3333.3333)" />
      <path
         id="path72"
         d="m 10717.8,13243.4 c 154.6,39 272.6,164.3 301,321.2 50.6,280 88,713.2 -105.9,920.8 -36.9,39.5 -70.4,59.9 -118.5,72.6 -268.1,70.2 -408.4,-427.6 -916.9,-736.7 -490.01,-297.9 -909.06,-169.5 -1051.01,-488.5 -62.41,-140.2 -32.37,-283.2 -26.39,-318.2 78.94,-461.7 506.46,-579.3 506.46,-579.3 0,0 -286.2,52.8 -304.82,-332.2 -18.57,-384.9 1167.86,-167.5 1167.86,-167.5 l 110.9,172.6 -221.1,347 c -168.16,264 -28.6,615 274.8,691.5 l 383.6,96.7"
         style="fill:#84524d;fill-opacity:1;fill-rule:nonzero;stroke:none"
         transform="matrix(0.13333333,0,0,-0.13333333,0,3333.3333)" />
      <path
         id="path73"
         d="m 9481.58,11921.4 c 26.34,-175 189.5,-295.4 364.46,-269.1 174.96,26.3 295.46,189.5 269.06,364.4 -26.3,175 -189.48,295.5 -364.43,269.1 -174.95,-26.3 -295.42,-189.5 -269.09,-364.4"
         style="fill:#e2a18d;fill-opacity:1;fill-rule:nonzero;stroke:none"
         transform="matrix(0.13333333,0,0,-0.13333333,0,3333.3333)" />
      <path
         id="path74"
         d="m 10022.6,13931.2 c 0,0 29.5,-1364.6 -507.78,-2141.8 -393.05,-67.8 -478.53,65 -478.53,65 0,0 521.69,1450.1 478.23,2000.3 194.8,127.5 508.08,76.5 508.08,76.5"
         style="fill:#efbc73;fill-opacity:1;fill-rule:nonzero;stroke:none"
         transform="matrix(0.13333333,0,0,-0.13333333,0,3333.3333)" />
      <path
         id="path75"
         d="m 9542.32,13787.9 c -439.79,-45.1 -806.27,-292.5 -924.33,-641.2 -113.56,-335.5 36.28,-665.5 58.02,-711.8 0,0 49.5,-105.1 417.86,-538.1 0,0 599.45,1371.5 448.45,1891.1"
         style="fill:#efbc73;fill-opacity:1;fill-rule:nonzero;stroke:none"
         transform="matrix(0.13333333,0,0,-0.13333333,0,3333.3333)" />
      <path
         id="path76"
         d="m 9261.19,12308.9 c -1.4,0 -2.81,0.3 -4.16,0.9 -5.02,2.3 -7.23,8.2 -4.92,13.2 277.48,604.1 256.78,1376.9 256.53,1384.6 -0.16,5.5 4.17,10.2 9.69,10.3 5.63,0.2 10.14,-4.1 10.3,-9.6 0.25,-7.8 21.08,-785.3 -258.34,-1393.6 -1.69,-3.7 -5.31,-5.8 -9.1,-5.8"
         style="fill:#e0aa63;fill-opacity:1;fill-rule:nonzero;stroke:none"
         transform="matrix(0.13333333,0,0,-0.13333333,0,3333.3333)" />
      <path
         id="path77"
         d="m 17331,4524.1 c -108.9,-232.9 -342.8,-381.7 -599.9,-381.7 H 12603.3 L 14452,8093.5 h 4549.1 L 17331,4524.1"
         style="fill:#ffffff;fill-opacity:1;fill-rule:nonzero;stroke:none"
         transform="matrix(0.13333333,0,0,-0.13333333,0,3333.3333)" />
      <path
         id="path78"
         d="m 9893.78,4539.1 c 0,-220.2 178.42,-398.6 398.62,-398.6 h 3806.2 l 186.4,398.6 H 9893.78"
         style="fill:#ffffff;fill-opacity:1;fill-rule:nonzero;stroke:none"
         transform="matrix(0.13333333,0,0,-0.13333333,0,3333.3333)" />
      <path
         id="path79"
         d="m 16345.9,6326.4 c 0,-150.2 -121.7,-271.9 -271.8,-271.9 -150.2,0 -271.9,121.7 -271.9,271.9 0,150.1 121.7,271.8 271.9,271.8 150.1,0 271.8,-121.7 271.8,-271.8"
         style="fill:#f2e6dc;fill-opacity:1;fill-rule:nonzero;stroke:none"
         transform="matrix(0.13333333,0,0,-0.13333333,0,3333.3333)" />
      <path
         id="path80"
         d="m 10128.9,4330.9 c 5.3,-209.6 177.5,-378.5 388.4,-378.5 h 3801.2 c 1.7,1.2 3.7,1.9 5.9,1.9 h 2631.7 c 252.1,0 484,147.5 590.8,375.8 l 1663.4,3555.2 h -4527 L 13022.9,4336.7 c -1.6,-3.5 -5.1,-5.8 -9,-5.8 z m 4194.6,-398.5 h -3806.2 c -225.3,0 -408.6,183.2 -408.6,408.5 0,5.5 4.5,10 10,10 h 2888.8 l 1660.4,3548.7 c 1.6,3.5 5.1,5.7 9,5.7 h 4549.2 c 3.4,0 6.6,-1.7 8.4,-4.6 1.8,-2.9 2.1,-6.5 0.6,-9.6 L 17565,4321.7 c -110.1,-235.4 -349.1,-387.4 -608.9,-387.4 h -2626.7 c -1.7,-1.3 -3.7,-1.9 -5.9,-1.9"
         style="fill:#363e44;fill-opacity:1;fill-rule:nonzero;stroke:none"
         transform="matrix(0.13333333,0,0,-0.13333333,0,3333.3333)" />
      <path
         id="path81"
         d="m 14939.8,19033.8 1633.9,-85.5 -214.5,322.1 c -2.9,4.4 -1.9,10.3 2.3,13.5 393,299.3 832.3,495.9 1305.5,584.4 1054,197 1899.5,-223.4 2254.9,-444.8 -208.8,276.9 -997.1,1197.6 -2309.2,1296.5 -828,62.5 -1486.2,-222.4 -1892.5,-472.4 -4.6,-2.9 -10.6,-1.5 -13.6,3 l -215.5,323.7 z m 1653.2,-106.5 c -0.1,0 -0.3,0 -0.5,0 l -1667.2,87.3 c -3.1,0.1 -6,1.8 -7.8,4.4 -1.7,2.6 -2.1,5.9 -1,8.9 l 562.5,1571.9 c 1.2,3.6 4.4,6.1 8.2,6.5 3.6,0.5 7.4,-1.2 9.5,-4.4 l 221.2,-332.2 c 409.5,250.3 1068.5,532.7 1896.3,470.3 606.5,-45.7 1170.5,-266.3 1676.3,-655.6 370,-284.8 598.2,-579 679.2,-692.2 2.8,-3.9 2.4,-9.3 -0.9,-12.8 -3.4,-3.4 -8.7,-4 -12.7,-1.4 -322.5,209.6 -1191,675.2 -2285.4,470.6 -467.2,-87.3 -901,-280.7 -1289.6,-575 l 220.2,-330.8 c 2.1,-3.1 2.3,-7.2 0.4,-10.5 -1.8,-3.1 -5.1,-5 -8.7,-5"
         style="fill:#8b865c;fill-opacity:1;fill-rule:nonzero;stroke:none"
         transform="matrix(0.13333333,0,0,-0.13333333,0,3333.3333)" />
      <path
         id="path82"
         d="m 15084.1,15745.8 c 208.8,-276.9 997.1,-1197.6 2309.2,-1296.5 827.9,-62.5 1486.1,222.4 1892.4,472.4 4.7,2.8 10.6,1.5 13.6,-3 l 215.5,-323.7 551.3,1540.5 -1633.8,85.5 214.4,-322.1 c 2.9,-4.3 1.9,-10.3 -2.3,-13.5 -393,-299.3 -832.2,-495.9 -1305.4,-584.4 -191.1,-35.7 -375.4,-51.1 -551,-51.1 -793.6,0 -1413,314.6 -1703.9,495.9 z m 2540,-1325.2 c -75.9,0 -153.3,2.8 -232.3,8.7 -606.6,45.7 -1170.6,266.3 -1676.4,655.6 -369.9,284.8 -598.2,579 -679.1,692.2 -2.8,3.9 -2.5,9.3 0.9,12.8 3.3,3.4 8.6,4 12.6,1.4 322.6,-209.6 1191,-675.2 2285.5,-470.6 467.1,87.3 900.9,280.7 1289.5,575 l -220.2,330.8 c -2.1,3.1 -2.3,7.2 -0.4,10.5 1.9,3.3 5.4,5.2 9.2,5 l 1667.2,-87.3 c 3.2,-0.1 6,-1.8 7.8,-4.4 1.7,-2.6 2.1,-5.9 1.1,-8.9 L 19527,14569.5 c -1.3,-3.5 -4.5,-6.1 -8.2,-6.5 -3.8,-0.5 -7.5,1.2 -9.6,4.4 l -221.2,332.2 c -370.4,-226.4 -945,-479 -1663.9,-479"
         style="fill:#8b865c;fill-opacity:1;fill-rule:nonzero;stroke:none"
         transform="matrix(0.13333333,0,0,-0.13333333,0,3333.3333)" />
      <path
         id="path83"
         d="m 18779.2,17527.9 c 0,-710.5 -540.8,-1286.4 -1253.4,-1286.4 -712.6,0 -1327.3,575.9 -1327.3,1286.4 0,710.4 577.7,1286.3 1290.4,1286.3 712.6,0 1290.3,-575.9 1290.3,-1286.3"
         style="fill:#8b865c;fill-opacity:1;fill-rule:nonzero;stroke:none"
         transform="matrix(0.13333333,0,0,-0.13333333,0,3333.3333)" />
      <path
         id="path84"
         d="m 17488.9,18586.1 c -585.4,0 -1061.6,-474.7 -1061.6,-1058.2 0,-583.5 476.2,-1058.3 1061.6,-1058.3 585.3,0 1061.5,474.8 1061.5,1058.3 0,583.5 -476.2,1058.2 -1061.5,1058.2 z m 0,-2136.5 c -596.4,0 -1081.6,483.7 -1081.6,1078.3 0,594.5 485.2,1078.2 1081.6,1078.2 596.3,0 1081.5,-483.7 1081.5,-1078.2 0,-594.6 -485.2,-1078.3 -1081.5,-1078.3"
         style="fill:#ffffff;fill-opacity:1;fill-rule:nonzero;stroke:none"
         transform="matrix(0.13333333,0,0,-0.13333333,0,3333.3333)" />
      <path
         id="path85"
         d="m 17691.7,17251.9 c 0,44.6 -16.1,83 -48.3,115.2 -32.2,32.1 -85.1,60.7 -158.6,85.8 -101.8,30.7 -178.6,71.6 -230.4,122.8 -51.9,51.2 -77.9,119.5 -77.9,204.8 0,82.9 23.8,150.4 71.4,202.6 47.6,52.2 113.2,83.6 196.8,94.2 v 166.4 h 119.4 v -167.2 c 84.6,-12.1 150.2,-48.1 196.8,-108.1 46.5,-60 69.8,-140.4 69.8,-241.3 h -148 c 0,68.2 -15.9,123.5 -47.6,165.7 -31.8,42.1 -75.8,63.2 -132.2,63.2 -59.4,0 -103.9,-15.4 -133.3,-46.3 -29.5,-30.9 -44.2,-73.2 -44.2,-126.9 0,-48.7 15.2,-88.1 45.7,-118.2 30.4,-30.2 85.4,-58.8 165,-85.9 103.3,-33.1 179.8,-74.4 229.7,-123.9 49.8,-49.4 74.8,-116.6 74.8,-201.4 0,-86.4 -26,-155 -77.9,-206 -51.8,-51 -123.1,-81.2 -213.7,-90.7 v -144.6 h -118.6 v 143.8 c -86.7,9 -157.7,40.5 -213.1,94.5 -55.4,54 -82.1,133.2 -80,237.6 l 1.5,3.8 h 143.5 c 0,-77.3 19.5,-132.4 58.5,-165.3 39.1,-32.9 87,-49.3 144,-49.3 64.9,0 115.6,15.4 152.2,46.3 36.5,30.8 54.7,73.6 54.7,128.4"
         style="fill:#ffffff;fill-opacity:1;fill-rule:nonzero;stroke:none"
         transform="matrix(0.13333333,0,0,-0.13333333,0,3333.3333)" />
      <path
         id="path86"
         d="m 3907.86,15527.4 v -2267.3 l 1719.01,279.2 c 1.06,0.2 2.15,0.2 3.24,0 l 1682.17,-279.1 v 2267.2 H 5021.02 c -3.55,0 -6.83,1.9 -8.63,5 l -86.81,147.6 H 4312.3 l -94.7,-148 c -1.85,-2.8 -5.02,-4.6 -8.43,-4.6 z m -10,-2289 c -2.35,0 -4.66,0.8 -6.48,2.4 -2.23,1.9 -3.52,4.6 -3.52,7.6 v 2289 c 0,5.6 4.47,10 10,10 h 305.84 l 94.72,148 c 1.83,2.9 5.01,4.6 8.42,4.6 h 624.46 c 3.54,0 6.83,-1.8 8.62,-4.9 l 86.82,-147.7 h 2295.54 c 5.52,0 10,-4.4 10,-10 v -2289 c 0,-3 -1.29,-5.8 -3.54,-7.6 -2.24,-2 -5.19,-2.8 -8.11,-2.3 l -1692.18,280.8 -1728.99,-280.8 c -0.53,-0.1 -1.06,-0.1 -1.6,-0.1"
         style="fill:#efbc73;fill-opacity:1;fill-rule:nonzero;stroke:none"
         transform="matrix(0.13333333,0,0,-0.13333333,0,3333.3333)" />
      <path
         id="path87"
         d="m 4457.51,14479.2 h 2345.48 v 2836 H 5156.67 l -699.16,-696.4 z m 2355.48,-20 H 4447.51 c -5.53,0 -10,4.5 -10,10 V 16623 c 0,2.6 1.05,5.2 2.94,7.1 l 705.03,702.2 c 1.87,1.9 4.41,2.9 7.06,2.9 h 1660.45 c 5.53,0 10,-4.4 10,-10 v -2856 c 0,-5.5 -4.47,-10 -10,-10"
         style="fill:#f7f1eb;fill-opacity:1;fill-rule:nonzero;stroke:none"
         transform="matrix(0.13333333,0,0,-0.13333333,0,3333.3333)" />
      <path
         id="path88"
         d="m 5152.54,16613 h -578.69 c -5.53,0 -10,4.4 -10,10 0,5.5 4.47,10 10,10 h 568.69 v 582.6 c 0,5.6 4.47,10 10,10 5.53,0 10,-4.4 10,-10 V 16623 c 0,-5.6 -4.47,-10 -10,-10"
         style="fill:#f7f1eb;fill-opacity:1;fill-rule:nonzero;stroke:none"
         transform="matrix(0.13333333,0,0,-0.13333333,0,3333.3333)" />
      <path
         id="path89"
         d="m 5353.96,13957.6 h 2345.48 v 2836 H 6053.12 l -699.16,-696.4 z m 2355.48,-20 H 5343.96 c -5.52,0 -10,4.5 -10,10 v 2153.8 c 0,2.6 1.06,5.2 2.94,7 l 705.02,702.3 c 1.88,1.9 4.42,2.9 7.06,2.9 h 1660.46 c 5.53,0 10,-4.5 10,-10 v -2856 c 0,-5.5 -4.47,-10 -10,-10"
         style="fill:#d3bba3;fill-opacity:1;fill-rule:nonzero;stroke:none"
         transform="matrix(0.13333333,0,0,-0.13333333,0,3333.3333)" />
      <path
         id="path90"
         d="m 6048.98,16091.4 h -581.87 c -5.53,0 -10,4.4 -10,10 0,5.5 4.47,10 10,10 h 571.87 v 542 c 0,5.5 4.48,10 10,10 5.53,0 10,-4.5 10,-10 v -552 c 0,-5.6 -4.47,-10 -10,-10"
         style="fill:#d3bba3;fill-opacity:1;fill-rule:nonzero;stroke:none"
         transform="matrix(0.13333333,0,0,-0.13333333,0,3333.3333)" />
      <path
         id="path91"
         d="M 7320.05,13248.4 H 3895.63 l 1321.58,2289 h 311.31 l 185.77,152.6 h 624.47 l 1.61,-152.6 h 2301.26 l -1321.58,-2289"
         style="fill:#efbc73;fill-opacity:1;fill-rule:nonzero;stroke:none"
         transform="matrix(0.13333333,0,0,-0.13333333,0,3333.3333)" />
    </g>
  </g>
</svg>
