<svg width="80" height="80" viewBox="0 0 80 80" fill="none" xmlns="http://www.w3.org/2000/svg">
<path d="M62 0H18C8.05887 0 0 8.05887 0 18V62C0 71.9411 8.05887 80 18 80H62C71.9411 80 80 71.9411 80 62V18C80 8.05887 71.9411 0 62 0Z" fill="#1D4ED8"/>
<path d="M26.9659 54.48C24.0859 54.48 21.5393 53.8667 19.3259 52.64C17.1393 51.3867 15.4193 49.68 14.1659 47.52C12.9126 45.3333 12.2859 42.8267 12.2859 40C12.2859 37.1733 12.9126 34.68 14.1659 32.52C15.4193 30.3333 17.1393 28.6267 19.3259 27.4C21.5393 26.1467 24.0859 25.52 26.9659 25.52C28.7526 25.52 30.3659 25.7867 31.8059 26.32C33.2726 26.8267 34.5526 27.5333 35.6459 28.44C36.7393 29.3467 37.6459 30.3867 38.3659 31.56L33.0459 34.76C32.6459 34.12 32.1126 33.5467 31.4459 33.04C30.8059 32.5333 30.0993 32.1467 29.3259 31.88C28.5526 31.5867 27.7659 31.44 26.9659 31.44C25.3926 31.44 23.9926 31.8 22.7659 32.52C21.5659 33.24 20.6193 34.2533 19.9259 35.56C19.2326 36.84 18.8859 38.32 18.8859 40C18.8859 41.68 19.2193 43.1733 19.8859 44.48C20.5526 45.76 21.5126 46.7733 22.7659 47.52C24.0193 48.2667 25.4726 48.64 27.1259 48.64C28.3793 48.64 29.4859 48.4 30.4459 47.92C31.4059 47.44 32.1659 46.7733 32.7259 45.92C33.2859 45.0667 33.5659 44.0667 33.5659 42.92L39.6859 41.88C39.6859 44.6 39.1393 46.9067 38.0459 48.8C36.9526 50.6667 35.4593 52.08 33.5659 53.04C31.6726 54 29.4726 54.48 26.9659 54.48ZM27.1659 43.6V38.64H39.6859V42.44L36.0859 43.6H27.1659ZM56.38 54.48C53.5 54.48 50.9533 53.8667 48.74 52.64C46.5533 51.3867 44.8333 49.68 43.58 47.52C42.3267 45.3333 41.7 42.8267 41.7 40C41.7 37.1733 42.3267 34.68 43.58 32.52C44.8333 30.3333 46.5533 28.6267 48.74 27.4C50.9533 26.1467 53.5 25.52 56.38 25.52C58.1667 25.52 59.78 25.7867 61.22 26.32C62.6867 26.8267 63.9667 27.5333 65.06 28.44C66.1533 29.3467 67.06 30.3867 67.78 31.56L62.46 34.76C62.06 34.12 61.5267 33.5467 60.86 33.04C60.22 32.5333 59.5133 32.1467 58.74 31.88C57.9667 31.5867 57.18 31.44 56.38 31.44C54.8067 31.44 53.4067 31.8 52.18 32.52C50.98 33.24 50.0333 34.2533 49.34 35.56C48.6467 36.84 48.3 38.32 48.3 40C48.3 41.68 48.6333 43.1733 49.3 44.48C49.9667 45.76 50.9267 46.7733 52.18 47.52C53.4333 48.2667 54.8867 48.64 56.54 48.64C57.7933 48.64 58.9 48.4 59.86 47.92C60.82 47.44 61.58 46.7733 62.14 45.92C62.7 45.0667 62.98 44.0667 62.98 42.92L69.1 41.88C69.1 44.6 68.5533 46.9067 67.46 48.8C66.3667 50.6667 64.8733 52.08 62.98 53.04C61.0867 54 58.8867 54.48 56.38 54.48ZM56.58 43.6V38.64H69.1V42.44L65.5 43.6H56.58Z" fill="white"/>
</svg>
