<svg width="80" height="68" viewBox="0 0 80 68" fill="none" xmlns="http://www.w3.org/2000/svg">
<path d="M62 0H18C8.05887 0 0 6.85004 0 15.3V52.7C0 61.15 8.05887 68 18 68H62C71.9411 68 80 61.15 80 52.7V15.3C80 6.85004 71.9411 0 62 0Z" fill="#1D4ED8"/>
<path d="M26.9659 48.48C24.0859 48.48 21.5393 47.8667 19.3259 46.64C17.1393 45.3867 15.4193 43.68 14.1659 41.52C12.9126 39.3333 12.2859 36.8267 12.2859 34C12.2859 31.1733 12.9126 28.68 14.1659 26.52C15.4193 24.3333 17.1393 22.6267 19.3259 21.4C21.5393 20.1467 24.0859 19.52 26.9659 19.52C28.7526 19.52 30.3659 19.7867 31.8059 20.32C33.2726 20.8267 34.5526 21.5333 35.6459 22.44C36.7393 23.3467 37.6459 24.3867 38.3659 25.56L33.0459 28.76C32.6459 28.12 32.1126 27.5467 31.4459 27.04C30.8059 26.5333 30.0993 26.1467 29.3259 25.88C28.5526 25.5867 27.7659 25.44 26.9659 25.44C25.3926 25.44 23.9926 25.8 22.7659 26.52C21.5659 27.24 20.6193 28.2533 19.9259 29.56C19.2326 30.84 18.8859 32.32 18.8859 34C18.8859 35.68 19.2193 37.1733 19.8859 38.48C20.5526 39.76 21.5126 40.7733 22.7659 41.52C24.0193 42.2667 25.4726 42.64 27.1259 42.64C28.3793 42.64 29.4859 42.4 30.4459 41.92C31.4059 41.44 32.1659 40.7733 32.7259 39.92C33.2859 39.0667 33.5659 38.0667 33.5659 36.92L39.6859 35.88C39.6859 38.6 39.1393 40.9067 38.0459 42.8C36.9526 44.6667 35.4593 46.08 33.5659 47.04C31.6726 48 29.4726 48.48 26.9659 48.48ZM27.1659 37.6V32.64H39.6859V36.44L36.0859 37.6H27.1659ZM56.38 48.48C53.5 48.48 50.9533 47.8667 48.74 46.64C46.5533 45.3867 44.8333 43.68 43.58 41.52C42.3267 39.3333 41.7 36.8267 41.7 34C41.7 31.1733 42.3267 28.68 43.58 26.52C44.8333 24.3333 46.5533 22.6267 48.74 21.4C50.9533 20.1467 53.5 19.52 56.38 19.52C58.1667 19.52 59.78 19.7867 61.22 20.32C62.6867 20.8267 63.9667 21.5333 65.06 22.44C66.1533 23.3467 67.06 24.3867 67.78 25.56L62.46 28.76C62.06 28.12 61.5267 27.5467 60.86 27.04C60.22 26.5333 59.5133 26.1467 58.74 25.88C57.9667 25.5867 57.18 25.44 56.38 25.44C54.8067 25.44 53.4067 25.8 52.18 26.52C50.98 27.24 50.0333 28.2533 49.34 29.56C48.6467 30.84 48.3 32.32 48.3 34C48.3 35.68 48.6333 37.1733 49.3 38.48C49.9667 39.76 50.9267 40.7733 52.18 41.52C53.4333 42.2667 54.8867 42.64 56.54 42.64C57.7933 42.64 58.9 42.4 59.86 41.92C60.82 41.44 61.58 40.7733 62.14 39.92C62.7 39.0667 62.98 38.0667 62.98 36.92L69.1 35.88C69.1 38.6 68.5533 40.9067 67.46 42.8C66.3667 44.6667 64.8733 46.08 62.98 47.04C61.0867 48 58.8867 48.48 56.38 48.48ZM56.58 37.6V32.64H69.1V36.44L65.5 37.6H56.58Z" fill="white"/>
</svg>
