<?xml version="1.0" encoding="utf-8"?>
<!-- Generator: Adobe Illustrator 27.5.0, SVG Export Plug-In . SVG Version: 6.00 Build 0)  -->
<svg version="1.1" xmlns="http://www.w3.org/2000/svg" xmlns:xlink="http://www.w3.org/1999/xlink" x="0px" y="0px"
	 viewBox="0 0 2500 2500" style="enable-background:new 0 0 2500 2500;" xml:space="preserve">
<g id="Illustration">
	<g id="Copywriting_1_">
		<circle style="fill:#E8F0FF;" cx="1250" cy="1250" r="915"/>
		<g>
			<path style="fill:#FFFFFF;" d="M2098.75,1253.171c-46.987,94.515-124.516,104.397-196.341,68.69
				c-71.826-35.707-110.749-103.481-63.762-197.997c46.987-94.515,233.917-144.273,233.917-144.273
				S2145.737,1158.656,2098.75,1253.171z"/>
			<path style="fill:#A5C4FF;" d="M1805.091,1519.818c-0.329,0-0.663-0.073-0.98-0.23c-1.089-0.543-1.535-1.866-0.993-2.956
				l233.13-468.945c0.543-1.09,1.858-1.534,2.956-0.993c1.089,0.543,1.535,1.866,0.993,2.956l-233.13,468.945
				C1806.682,1519.371,1805.903,1519.818,1805.091,1519.818z"/>
			<path style="fill:#A5C4FF;" d="M1892.072,1329.578l176.304-186.318c0.84-0.885,2.235-0.919,3.118-0.086
				c0.885,0.838,0.921,2.233,0.086,3.118l-158.833,167.853l131.566-66.743c1.083-0.554,2.414-0.117,2.963,0.968
				c0.551,1.086,0.118,2.414-0.969,2.964L1892.072,1329.578z"/>
			<path style="fill:#A5C4FF;" d="M1902.497,1334.761l-30.728-170.195c-0.215-1.198,0.581-2.345,1.779-2.561
				c1.212-0.228,2.345,0.579,2.562,1.777l26.21,145.18l37.936-227.954c0.198-1.203,1.337-2.019,2.536-1.813
				c1.201,0.199,2.013,1.335,1.813,2.536L1902.497,1334.761z"/>
		</g>
		<g>
			<path style="fill:#F0F5FF;" d="M807.745,768.743c59.9,154.669-10.777,255.11-128.316,300.63
				C561.891,1114.893,442,1088.254,382.1,933.585c-59.899-154.669,80.414-424.319,80.414-424.319S747.846,614.074,807.745,768.743z"
				/>
			<path style="fill:#A5C4FF;" d="M803.489,1391.918c-0.884,0-1.717-0.536-2.056-1.409L504.237,623.105
				c-0.439-1.136,0.125-2.413,1.26-2.853c1.137-0.438,2.411,0.125,2.853,1.26l297.195,767.404c0.439,1.136-0.125,2.413-1.26,2.853
				C804.023,1391.87,803.753,1391.918,803.489,1391.918z"/>
			<path style="fill:#A5C4FF;" d="M678.158,1082.21l-28.888-394.764c-0.088-1.214,0.824-2.271,2.039-2.36
				c1.197-0.068,2.271,0.823,2.36,2.039l27.032,369.411l63.881-230.394c0.326-1.173,1.542-1.855,2.714-1.536
				c1.174,0.326,1.861,1.541,1.536,2.714L678.158,1082.21z"/>
			<path style="fill:#A5C4FF;" d="M689.016,1078.005L465.099,937.203c-1.031-0.648-1.341-2.01-0.693-3.04
				c0.648-1.029,2.012-1.341,3.04-0.693l202.398,127.272L441.015,769.48c-0.753-0.957-0.587-2.344,0.371-3.095
				c0.956-0.753,2.344-0.588,3.095,0.371L689.016,1078.005z"/>
		</g>
		<g>
			<path style="fill:#FFFFFF;" d="M630.541,1072.523c70.725,56.064,65.241,122.666,22.637,176.412
				c-42.605,53.746-106.198,74.285-176.923,18.221c-70.725-56.064-79.195-221.246-79.195-221.246S559.816,1016.459,630.541,1072.523
				z"/>
			<path style="fill:#A5C4FF;" d="M799.657,1367.255c-0.48,0-0.964-0.156-1.368-0.477l-350.908-278.166
				c-0.955-0.757-1.115-2.143-0.358-3.097c0.756-0.955,2.145-1.114,3.097-0.358l350.908,278.166
				c0.955,0.757,1.115,2.143,0.358,3.097C800.951,1366.969,800.306,1367.255,799.657,1367.255z"/>
			<path style="fill:#A5C4FF;" d="M658.582,1260.649l-125.625-182.03c-0.691-1.002-0.439-2.375,0.563-3.067
				c1-0.693,2.374-0.439,3.067,0.563l111.186,161.108l-32.023-120.103c-0.313-1.177,0.385-2.385,1.562-2.699
				c1.182-0.311,2.386,0.388,2.699,1.562L658.582,1260.649z"/>
			<path style="fill:#A5C4FF;" d="M665.814,1251.525l-149.65-4.538c-1.218-0.036-2.174-1.054-2.137-2.271
				c0.038-1.218,1.017-2.237,2.271-2.137l124.243,3.767l-182.231-71.485c-1.134-0.446-1.692-1.725-1.248-2.858
				c0.445-1.133,1.721-1.693,2.858-1.248L665.814,1251.525z"/>
		</g>
		<g>
			<path style="fill:#A5C4FF;" d="M2110.078,844.949h-342.483c-1.219,0-2.205-0.987-2.205-2.205V429.239
				c0-1.218,0.986-2.205,2.205-2.205h240.407c0.734,0,1.421,0.365,1.83,0.974l40.796,60.673l60.671,40.395
				c0.616,0.409,0.984,1.098,0.984,1.836v311.831C2112.282,843.962,2111.296,844.949,2110.078,844.949z M1769.799,840.539h338.074
				V532.094l-60.051-39.983c-0.241-0.16-0.448-0.366-0.609-0.605l-40.384-60.062h-237.029V840.539z"/>
			<g>
				<polygon style="fill:#FFFFFF;" points="2008.002,530.913 2109.8,530.913 2008.002,429.115 				"/>
				<path style="fill:#A5C4FF;" d="M2109.8,533.118h-101.798c-1.219,0-2.205-0.987-2.205-2.205V429.115
					c0-0.891,0.536-1.696,1.361-2.037c0.825-0.34,1.772-0.153,2.403,0.478l101.798,101.797c0.631,0.631,0.821,1.578,0.478,2.403
					C2111.497,532.58,2110.691,533.118,2109.8,533.118z M2010.206,528.708h94.271l-94.271-94.27V528.708z"/>
			</g>
		</g>
		<g>
			<polygon style="fill:#FFFFFF;" points="1637.803,918.266 1980.287,918.266 1980.287,606.436 1919.25,565.798 1878.21,504.762 
				1637.803,504.762 			"/>
			<g>
				<path style="fill:#A5C4FF;" d="M1932.12,676.204h-121.086c-1.219,0-2.205-0.987-2.205-2.205c0-1.218,0.986-2.205,2.205-2.205
					h121.086c1.219,0,2.205,0.987,2.205,2.205C1934.325,675.217,1933.339,676.204,1932.12,676.204z"/>
				<path style="fill:#A5C4FF;" d="M1784.626,676.204h-69.391c-1.219,0-2.205-0.987-2.205-2.205c0-1.218,0.986-2.205,2.205-2.205
					h69.391c1.219,0,2.205,0.987,2.205,2.205C1786.83,675.217,1785.844,676.204,1784.626,676.204z"/>
				<path style="fill:#A5C4FF;" d="M1932.12,724.596h-60.861c-1.219,0-2.205-0.987-2.205-2.205s0.986-2.205,2.205-2.205h60.861
					c1.219,0,2.205,0.987,2.205,2.205S1933.339,724.596,1932.12,724.596z"/>
				<path style="fill:#A5C4FF;" d="M1844.851,724.596h-129.617c-1.219,0-2.205-0.987-2.205-2.205s0.986-2.205,2.205-2.205h129.617
					c1.219,0,2.205,0.987,2.205,2.205S1846.07,724.596,1844.851,724.596z"/>
				<path style="fill:#A5C4FF;" d="M1892.507,772.988h-177.273c-1.219,0-2.205-0.987-2.205-2.205c0-1.218,0.986-2.205,2.205-2.205
					h177.273c1.219,0,2.205,0.987,2.205,2.205C1894.712,772,1893.725,772.988,1892.507,772.988z"/>
			</g>
			<polygon style="fill:#C4D9FF;" points="1878.21,606.436 1980.008,606.436 1878.21,504.638 			"/>
		</g>
		<g>
			<rect x="600.188" y="1726.455" style="fill:#F0F5FF;" width="750.278" height="243.324"/>
			<g>
				<path style="fill:#A5C4FF;" d="M1174.041,1801.93h-221.88c-1.218,0-2.205-0.987-2.205-2.205c0-1.218,0.987-2.205,2.205-2.205
					h221.88c1.218,0,2.205,0.987,2.205,2.205C1176.246,1800.943,1175.259,1801.93,1174.041,1801.93z"/>
				<path style="fill:#A5C4FF;" d="M903.768,1801.93H776.613c-1.218,0-2.205-0.987-2.205-2.205c0-1.218,0.987-2.205,2.205-2.205
					h127.155c1.218,0,2.205,0.987,2.205,2.205C905.973,1800.943,904.986,1801.93,903.768,1801.93z"/>
				<path style="fill:#A5C4FF;" d="M1174.041,1850.322H1062.52c-1.218,0-2.205-0.987-2.205-2.205c0-1.218,0.987-2.205,2.205-2.205
					h111.521c1.218,0,2.205,0.987,2.205,2.205C1176.246,1849.334,1175.259,1850.322,1174.041,1850.322z"/>
				<path style="fill:#A5C4FF;" d="M1014.128,1850.322H776.613c-1.218,0-2.205-0.987-2.205-2.205c0-1.218,0.987-2.205,2.205-2.205
					h237.516c1.218,0,2.205,0.987,2.205,2.205C1016.333,1849.334,1015.346,1850.322,1014.128,1850.322z"/>
				<path style="fill:#A5C4FF;" d="M1101.453,1898.715H776.613c-1.218,0-2.205-0.987-2.205-2.205c0-1.218,0.987-2.205,2.205-2.205
					h324.841c1.218,0,2.205,0.987,2.205,2.205C1103.658,1897.728,1102.671,1898.715,1101.453,1898.715z"/>
			</g>
		</g>
		<g>
			<polygon style="fill:#FFFFFF;" points="675.134,1668.904 816.036,1668.904 885.622,1466.81 816.036,1330.79 675.134,1330.79 
				631.403,1533.977 			"/>
			<polygon style="fill:#6B9AFF;" points="1820.041,1668.904 816.036,1668.904 816.036,1330.79 1820.041,1330.79 1853.755,1499.847 
							"/>
			<path style="fill:#4F7FE8;" d="M559.504,1330.79c-93.368,0-169.057,75.689-169.057,169.057s75.689,169.057,169.057,169.057
				h118.559V1330.79H559.504z"/>
			<g>
				<polygon style="fill:#FFFFFF;" points="1820.041,1330.79 1820.041,1668.904 1922.265,1597.392 1950.475,1515.17 
					1922.265,1402.302 				"/>
				<polygon style="fill:#40484C;" points="1922.265,1402.302 1922.265,1597.392 2061.703,1499.847 				"/>
			</g>
		</g>
		<g>
			<g>
				<g>
					<rect x="931.049" y="1067.439" style="fill:#5A7AB8;" width="603.868" height="264.752"/>
					<path style="fill:#E2A18D;" d="M1444.804,1577.472c-0.081,5.88-1.434,215.22-1.434,215.22l117.315-5.544l65.779-209.676
						H1444.804z"/>
					<path style="fill:#FFFFFF;" d="M1434.433,1772.962l136.699-1.782l75.899,245.84c0,0-208.73,67.56-209.194,63.151
						C1437.374,2075.761,1434.433,1772.962,1434.433,1772.962z"/>
					<path style="fill:#363E44;" d="M1532.135,1844.255h-55.256c-1.219,0-2.205-0.987-2.205-2.205c0-1.218,0.986-2.205,2.205-2.205
						h55.256c1.219,0,2.205,0.987,2.205,2.205C1534.34,1843.268,1533.354,1844.255,1532.135,1844.255z"/>
					<path style="fill:#363E44;" d="M1531.532,1878.723h-54.653c-1.219,0-2.205-0.987-2.205-2.205c0-1.218,0.986-2.205,2.205-2.205
						h54.653c1.219,0,2.205,0.987,2.205,2.205C1533.737,1877.735,1532.751,1878.723,1531.532,1878.723z"/>
					<path style="fill:#5A7AB8;" d="M1421.297,1613.261h215.119l61.477-312.222c15.377-78.097-41.577-151.855-121.025-156.73
						l-117.523-7.211L1421.297,1613.261z"/>
				</g>
				<g>
					<polygon style="fill:#E2A18D;" points="773.574,1202.461 921.224,1344.978 1046.378,1251.479 925.813,1085.264 					"/>
					<polygon style="fill:#FFFFFF;" points="894.253,1323.71 969.546,1495.025 1178.393,1358.455 1032.111,1222.589 					"/>
					<path style="fill:#5A7AB8;" d="M773.574,1234.464l183.809-131.759l-110.234-169.9
						c-44.318-68.307-138.093-83.082-201.267-31.712c-64.239,52.235-67.786,149.089-7.541,205.884L773.574,1234.464z"/>
					<path style="fill:#363E44;" d="M961.874,1335.209c-0.73,0-1.444-0.362-1.863-1.024c-0.652-1.028-0.348-2.39,0.68-3.042
						l62.016-39.352c1.028-0.653,2.391-0.348,3.042,0.68c0.652,1.028,0.348,2.39-0.68,3.042l-62.016,39.352
						C962.687,1335.098,962.278,1335.209,961.874,1335.209z"/>
					<path style="fill:#363E44;" d="M975.33,1354.884c-0.73,0-1.444-0.362-1.864-1.024c-0.652-1.028-0.348-2.39,0.68-3.042
						l62.017-39.352c1.029-0.653,2.39-0.349,3.042,0.68c0.652,1.028,0.348,2.39-0.68,3.042l-62.017,39.352
						C976.143,1354.774,975.734,1354.884,975.33,1354.884z"/>
				</g>
			</g>
			<g>
				<path style="fill:#4F7FE8;" d="M970.554,1098.071c0,0,243.067,1.891,429.378,4.634l-40.634-384.023
					c0,0-185.026-69.3-389.752-56.102L970.554,1098.071z"/>
				<path style="fill:#FFFFFF;" d="M1306.881,699.3l40.141,413.69l345.355,7.835c0,0,14.58-139.25-110.903-279.634
					c-29.086-32.54-64.422-58.888-103.687-77.944C1434.229,742.106,1363.02,709.665,1306.881,699.3z"/>
				<path style="fill:#FFFFFF;" d="M1037.344,659.084l13.456,441.401c0,0-331.453,88.665-331.547-132.419
					c-0.04-94.776,25.911-164.804,52.036-211.281c25.816-45.926,70.293-78.204,121.967-88.472
					C931.655,660.684,982.686,654.561,1037.344,659.084z"/>
				<path style="fill:#363E44;" d="M894.254,884.012c-0.187,0-0.379-0.025-0.568-0.075c-1.177-0.313-1.876-1.521-1.563-2.698
					l14.991-56.273c0.313-1.177,1.522-1.878,2.698-1.563c1.177,0.313,1.877,1.521,1.563,2.698l-14.991,56.273
					C896.121,883.361,895.23,884.012,894.254,884.012z"/>
				<path style="fill:#363E44;" d="M764.168,951.695c-0.293,0-0.591-0.059-0.876-0.183c-1.117-0.486-1.63-1.784-1.145-2.9
					c0.311-0.716,32.102-71.448,123.266-63.012c1.212,0.112,2.105,1.185,1.992,2.399c-0.113,1.212-1.187,2.106-2.399,1.992
					c-88.012-8.152-118.517,59.69-118.814,60.376C765.831,951.198,765.019,951.695,764.168,951.695z"/>
				<g>
					<path style="fill:#E2A18D;" d="M1379.646,989.571c-16.716-10.928-78.934-67.515-115.587-53.655
						c-36.915,13.96-58.524,51.851-66.106,90.584c0.085,0.136,0.18,0.286,0.264,0.421c2.594,10.613,8.103,26.094,21.255,38.504
						c14.993,14.146,25.559,10.751,43.705,23.215c30.628,21.038,30.166,52.284,42.998,49.347c8.807-2.015,9.864-20.211,6.511-37.057
						c-3.443-17.297-12.949-27.032-10.739-28.893c2.425-2.042,10.803,9.099,22.493,21.995c5.431,5.992,10.213,31.627,22.651,30.648
						c9.917-0.781,11.616-28.677,0.06-50.143c-8.175-15.186-23.789-21.225-22.092-23.878c1.273-1.991,10.489,1.838,17.447,7.503
						c11.485,9.347,16.657,35.522,28.089,34.398c11.2-1.103,12.255-25.492,2.877-45.907c-7.907-17.214-25.641-23.118-23.551-26.427
						c1.469-2.328,9.958-1.335,26.318,5.929c13.654,6.064,36.298,26.66,44.777,13.318
						C1428.146,1028.254,1404.877,1006.064,1379.646,989.571z"/>
					<path style="fill:#E2A18D;" d="M901.858,911.175c-35.835,4.986-66.153,29.418-77.925,63.63
						c-11.232,32.641-10.147,73.498,40.011,105.424c99.385,63.261,368.956-45.815,368.956-45.815l50.568-100.191
						C1159.666,904.399,1022.915,894.331,901.858,911.175z"/>
				</g>
				<g>
					<path style="fill:#363E44;" d="M1757.604,1134.685c-8.423,18.001-26.501,29.502-46.376,29.502h-319.103l142.912-305.439
						h351.675L1757.604,1134.685z"/>
					<path style="fill:#363E44;" d="M1182.662,1133.524c0,17.017,13.795,30.813,30.813,30.813h294.241l14.417-30.813H1182.662z"/>
				</g>
				<g>
					<path style="fill:#E2A18D;" d="M1848.064,1001.925c-1.124,11.455-3.001,20.647-22.842,18.7
						c-19.84-1.947-50.131-14.296-49.006-25.751c1.124-11.455,33.237-17.679,53.078-15.732
						C1849.134,981.089,1849.189,990.47,1848.064,1001.925z"/>
					<path style="fill:#E2A18D;" d="M1762.689,1024.321c1.124-11.455,33.238-17.679,53.078-15.732
						c19.841,1.947,19.895,11.328,18.771,22.784L1762.689,1024.321z"/>
					<path style="fill:#E2A18D;" d="M1834.537,1031.372c-1.124,11.455-3.001,20.647-22.842,18.699
						c-19.84-1.947-50.131-14.296-49.006-25.751L1834.537,1031.372z"/>
					<path style="fill:#E2A18D;" d="M1749.161,1053.768c1.124-11.455,33.237-17.679,53.078-15.732
						c19.84,1.947,19.895,11.328,18.77,22.783L1749.161,1053.768z"/>
					<path style="fill:#E2A18D;" d="M1821.01,1060.819c-1.124,11.455-3.001,20.647-22.842,18.699
						c-19.84-1.947-50.131-14.296-49.006-25.751L1821.01,1060.819z"/>
					<path style="fill:#E2A18D;" d="M1750.788,1080.407c0.894-9.106,26.42-14.053,42.191-12.505
						c15.771,1.548,15.814,9.005,14.92,18.11L1750.788,1080.407z"/>
					<path style="fill:#E2A18D;" d="M1807.9,1086.012c-0.894,9.105-2.386,16.412-18.157,14.864
						c-15.771-1.548-39.848-11.364-38.955-20.469L1807.9,1086.012z"/>
				</g>
			</g>
			<g>
				<path style="fill:#E2A18D;" d="M1104.761,534.079c8.096,10.926,7.121,25.37-2.178,32.26c-9.299,6.891-23.401,3.619-31.497-7.307
					c-8.096-10.926-7.121-25.37,2.178-32.26C1082.563,519.881,1096.665,523.152,1104.761,534.079z"/>
				<path style="fill:#E2A18D;" d="M1204.724,528.991c-6.945,11.692-4.509,25.962,5.441,31.872
					c9.95,5.911,23.647,1.225,30.593-10.467c6.945-11.692,4.509-25.961-5.441-31.872
					C1225.367,512.613,1211.67,517.299,1204.724,528.991z"/>
				<path style="fill:#E2A18D;" d="M1149.854,719.616c-24.283-1.114-43.066-21.702-41.952-45.985l4.079-124.827l87.937,4.033
					l-4.079,124.828C1194.725,701.947,1174.137,720.729,1149.854,719.616z"/>
				<path style="fill:#363E44;" d="M1165.61,649.506c-70.54,4.169-73.161-113.613-73.161-113.613l124.998-4.229
					C1217.447,531.664,1234.008,645.464,1165.61,649.506z"/>
				<circle style="fill:#363E44;" cx="1116.673" cy="501.773" r="44.854"/>
				<path style="fill:#E2A18D;" d="M1216.141,540.703c1.995,39.196-23.43,18.58-56.788,20.278
					c-33.358,1.698-62.017,25.065-64.012-14.13c-1.995-39.196,23.43-61.582,56.789-63.279
					C1185.487,481.874,1214.146,501.507,1216.141,540.703z"/>
				<path style="fill:#363E44;" d="M1216.132,561.94c-0.13,0-0.263-0.012-0.396-0.035c-1.198-0.218-1.993-1.365-1.775-2.563
					c1.098-6.04,1.492-12.273,1.175-18.527c-0.284-5.574-1.133-11.093-2.522-16.399c-0.309-1.178,0.396-2.384,1.574-2.691
					c1.19-0.309,2.384,0.397,2.691,1.574c1.466,5.598,2.361,11.417,2.66,17.293c0.336,6.592-0.081,13.167-1.239,19.539
					C1218.105,561.194,1217.177,561.94,1216.132,561.94z"/>
				<path style="fill:#363E44;" d="M1097.187,567.554c-0.96,0-1.843-0.633-2.12-1.602c-1.744-6.12-2.795-12.51-3.124-18.99
					c-0.306-5.991,0.012-11.982,0.944-17.808c0.192-1.204,1.325-2.027,2.526-1.828c1.203,0.192,2.021,1.323,1.828,2.526
					c-0.883,5.521-1.184,11.202-0.895,16.886c0.313,6.147,1.309,12.205,2.963,18.006c0.334,1.171-0.346,2.391-1.517,2.725
					C1097.591,567.526,1097.387,567.554,1097.187,567.554z"/>
				<path style="fill:#363E44;" d="M1159.937,564.691c-0.661,0-1.315-0.296-1.748-0.86c-0.743-0.966-0.562-2.349,0.403-3.092
					c1.339-1.03,2.085-2.026,2.1-2.803c0.011-0.502-0.276-0.951-0.981-1.931c-0.809-1.126-1.817-2.527-2.261-4.669
					c-0.398-1.914-0.235-3.935,0.487-6.003c0.401-1.149,1.662-1.757,2.809-1.355c1.15,0.402,1.756,1.659,1.355,2.809
					c-0.455,1.302-0.567,2.531-0.334,3.654c0.254,1.224,0.871,2.082,1.523,2.99c0.868,1.206,1.851,2.573,1.811,4.594
					c-0.044,2.204-1.329,4.293-3.821,6.211C1160.88,564.543,1160.407,564.691,1159.937,564.691z"/>
				<path style="fill:#FFFFFF;" d="M1150.54,582.049c-2.577,0-6.431-0.514-10.198-2.948c-2.39-1.545-4.428-3.679-5.894-6.172
					c-0.618-1.049-0.267-2.401,0.783-3.018c1.05-0.617,2.402-0.267,3.018,0.783c1.12,1.903,2.672,3.53,4.487,4.704
					c3.479,2.248,7.082,2.349,8.919,2.198c1.198-0.102,2.275,0.813,2.371,2.026c0.095,1.214-0.812,2.275-2.026,2.371
					C1151.579,582.025,1151.088,582.049,1150.54,582.049z"/>
				<path style="fill:#363E44;" d="M1087.368,526.293c0,0,32.295,4.784,65.786-34.687c0,0,62.198,81.335,110.042-16.746
					c0,0-28.026,12.368-43.06-7.177c-23.922-31.099-81.336-56.217-104.062,1.196L1087.368,526.293z"/>
				<g>
					<g>
						<path style="fill:#FFFFFF;" d="M1195.409,530.883l-0.146-0.005c-0.062,0.306-0.245,0.702-0.565,0.708
							c-0.359,0.473-0.497,1.215-0.73,1.712c-0.419,0.893-1.778,0.187-1.359-0.705c0.282-0.601-1.737,0.624-2.629,1.019
							c-2.845,1.262-5.736,2.395-8.668,3.438c-1.367,0.487-2.736,0.984-4.12,1.423c-1.109,0.352-4.762,1.709-5.065,1.549
							c-3.609,3.655-5.533,7.035-5.533,7.035s5.55,2.136,12.582,2.154c0.015-0.095,0.033-0.189,0.044-0.286
							c0.116-0.949,16.099-5.581,16.572-4.886c6.626-4.706,10.257-11.059,10.257-11.059S1201.495,531.228,1195.409,530.883z"/>
						<path style="fill:#363E44;" d="M1183.609,532.415c-4.784,1.707-8.645,4.737-11.473,7.6c0.521,3.013,2.109,5.85,4.715,7.873
							c0.671,0.521,1.379,0.96,2.11,1.327c3.171,0.028,6.655-0.369,10.075-1.589c2.473-0.882,4.687-2.126,6.651-3.51
							c2.382-4.187,2.153-9.311-0.423-13.236C1191.691,530.69,1187.609,530.988,1183.609,532.415z"/>
					</g>
					<g>
						<path style="fill:#FFFFFF;" d="M1116.171,535.978l0.145-0.02c0.092,0.299,0.314,0.674,0.633,0.648
							c0.405,0.434,0.617,1.159,0.899,1.629c0.507,0.847,1.787,0.007,1.281-0.839c-0.341-0.569,1.791,0.446,2.718,0.75
							c2.958,0.969,5.948,1.805,8.969,2.548c1.409,0.347,2.821,0.704,4.242,1.001c1.139,0.239,4.91,1.221,5.195,1.032
							c3.959,3.273,6.213,6.443,6.213,6.443s-5.307,2.683-12.301,3.409c-0.025-0.093-0.051-0.185-0.073-0.279
							c-0.21-0.933-16.579-3.934-16.979-3.194c-7.066-4.016-11.318-9.971-11.318-9.971S1110.151,536.933,1116.171,535.978z"/>
						<path style="fill:#363E44;" d="M1128.066,536.314c4.931,1.217,9.078,3.843,12.18,6.408c-0.215,3.05-1.51,6.032-3.899,8.307
							c-0.615,0.586-1.275,1.094-1.966,1.533c-3.152,0.347-6.658,0.302-10.183-0.568c-2.549-0.629-4.876-1.644-6.97-2.824
							c-2.792-3.926-3.079-9.047-0.911-13.212C1119.851,535.412,1123.943,535.297,1128.066,536.314z"/>
					</g>
				</g>
			</g>
		</g>
	</g>
</g>
</svg>
