<svg xmlns="http://www.w3.org/2000/svg" xmlns:xlink="http://www.w3.org/1999/xlink" width="500" zoomAndPan="magnify" viewBox="0 0 375 374.999991" height="500" preserveAspectRatio="xMidYMid meet" version="1.0"><defs><g/><clipPath id="74f00e0635"><path d="M 0.078125 34 L 58 34 L 58 101.761719 L 0.078125 101.761719 Z M 0.078125 34 " clip-rule="nonzero"/></clipPath><clipPath id="91382e39ac"><path d="M 48 34 L 106 34 L 106 101.761719 L 48 101.761719 Z M 48 34 " clip-rule="nonzero"/></clipPath><clipPath id="282e016942"><rect x="0" width="365" y="0" height="102"/></clipPath></defs><g transform="matrix(1, 0, 0, 1, 10, 138)"><g clip-path="url(#282e016942)"><g clip-path="url(#74f00e0635)"><g fill="#ffffff" fill-opacity="1"><g transform="translate(1.527962, 73.0671)"><g><path d="M 28.03125 -14.859375 C 28.351562 -16.242188 28.644531 -17.492188 28.90625 -18.609375 C 29.175781 -19.734375 29.441406 -20.789062 29.703125 -21.78125 C 28.648438 -21.382812 27.675781 -20.757812 26.78125 -19.90625 C 25.894531 -19.050781 25.1875 -17.960938 24.65625 -16.640625 C 24.457031 -16.109375 24.34375 -15.59375 24.3125 -15.09375 C 24.28125 -14.601562 24.296875 -14.160156 24.359375 -13.765625 C 25.679688 -13.960938 26.90625 -14.328125 28.03125 -14.859375 Z M 50.203125 -7.625 L 48.421875 0.6875 C 47.703125 3.789062 46.628906 6.957031 45.203125 10.1875 C 43.785156 13.425781 41.921875 16.414062 39.609375 19.15625 C 37.296875 21.894531 34.488281 24.109375 31.1875 25.796875 C 27.894531 27.484375 24.003906 28.328125 19.515625 28.328125 C 17.328125 28.328125 14.929688 28.0625 12.328125 27.53125 C 9.722656 27 6.835938 26.175781 3.671875 25.0625 L 4.0625 23.765625 C 3.195312 23.566406 2.316406 23.316406 1.421875 23.015625 C 0.535156 22.722656 -0.363281 22.410156 -1.28125 22.078125 L 3.265625 7.625 C 5.515625 8.476562 7.515625 9.117188 9.265625 9.546875 C 11.015625 9.984375 12.546875 10.203125 13.859375 10.203125 C 16.503906 10.203125 18.601562 9.539062 20.15625 8.21875 C 21.707031 6.894531 22.910156 5.273438 23.765625 3.359375 L 22.578125 3.359375 C 18.085938 3.359375 14.457031 2.070312 11.6875 -0.5 C 9.175781 -1.414062 7.128906 -2.894531 5.546875 -4.9375 C 3.960938 -6.988281 3.171875 -9.632812 3.171875 -12.875 C 3.171875 -13.925781 3.300781 -15.113281 3.5625 -16.4375 C 3.832031 -17.757812 4.195312 -19.082031 4.65625 -20.40625 C 5.78125 -23.4375 7.28125 -26.253906 9.15625 -28.859375 C 11.039062 -31.472656 13.5 -33.585938 16.53125 -35.203125 C 19.570312 -36.816406 23.304688 -37.691406 27.734375 -37.828125 C 30.171875 -37.828125 32.515625 -37.460938 34.765625 -36.734375 C 34.890625 -37.203125 35.050781 -37.613281 35.25 -37.96875 C 35.445312 -38.332031 35.546875 -38.515625 35.546875 -38.515625 C 35.546875 -38.515625 36.085938 -38.429688 37.171875 -38.265625 C 38.265625 -38.109375 39.632812 -37.894531 41.28125 -37.625 C 42.9375 -37.363281 44.65625 -37.035156 46.4375 -36.640625 C 48.226562 -36.242188 49.78125 -35.78125 51.09375 -35.25 C 51.03125 -34.988281 50.945312 -34.742188 50.84375 -34.515625 C 50.75 -34.285156 50.671875 -34.035156 50.609375 -33.765625 C 52.722656 -33.367188 54.535156 -32.875 56.046875 -32.28125 C 55.328125 -30.101562 54.617188 -27.609375 53.921875 -24.796875 C 53.222656 -21.992188 52.5625 -19.109375 51.9375 -16.140625 C 51.3125 -13.171875 50.734375 -10.332031 50.203125 -7.625 Z M 27.734375 -26.34375 C 29.378906 -26.34375 30.796875 -26.144531 31.984375 -25.75 C 31.054688 -22.644531 30.035156 -18.78125 28.921875 -14.15625 C 26.941406 -13.238281 25.125 -12.78125 23.46875 -12.78125 C 21.625 -12.78125 20.171875 -13.390625 19.109375 -14.609375 C 18.054688 -15.828125 17.957031 -17.59375 18.8125 -19.90625 C 19.675781 -22.21875 20.878906 -23.851562 22.421875 -24.8125 C 23.972656 -25.769531 25.742188 -26.28125 27.734375 -26.34375 Z M 42.484375 -2.46875 C 42.941406 -4.457031 43.453125 -6.820312 44.015625 -9.5625 C 44.578125 -12.300781 45.171875 -15.1875 45.796875 -18.21875 C 46.429688 -21.257812 47.09375 -24.210938 47.78125 -27.078125 C 48.476562 -29.953125 49.1875 -32.476562 49.90625 -34.65625 C 48.851562 -35.050781 47.550781 -35.414062 46 -35.75 C 44.445312 -36.082031 42.925781 -36.378906 41.4375 -36.640625 C 39.957031 -36.898438 38.703125 -37.097656 37.671875 -37.234375 C 36.648438 -37.367188 36.140625 -37.4375 36.140625 -37.4375 C 36.140625 -37.4375 36.054688 -37.238281 35.890625 -36.84375 C 35.734375 -36.445312 35.554688 -35.984375 35.359375 -35.453125 C 34.296875 -35.847656 33.1875 -36.175781 32.03125 -36.4375 C 30.875 -36.707031 29.640625 -36.84375 28.328125 -36.84375 C 22.453125 -36.84375 17.664062 -35.40625 13.96875 -32.53125 C 10.269531 -29.65625 7.460938 -25.515625 5.546875 -20.109375 C 4.085938 -15.878906 3.753906 -12.3125 4.546875 -9.40625 C 5.347656 -6.5 6.9375 -4.300781 9.3125 -2.8125 C 11.6875 -1.332031 14.457031 -0.59375 17.625 -0.59375 C 20.46875 -0.59375 23.472656 -1.253906 26.640625 -2.578125 C 26.109375 -0.265625 25.394531 1.945312 24.5 4.0625 C 23.613281 6.175781 22.328125 7.890625 20.640625 9.203125 C 18.960938 10.523438 16.703125 11.1875 13.859375 11.1875 C 12.546875 11.1875 11.0625 11.003906 9.40625 10.640625 C 7.757812 10.273438 5.945312 9.695312 3.96875 8.90625 L 0 21.484375 C 2.769531 22.472656 5.375 23.195312 7.8125 23.65625 C 10.257812 24.125 12.507812 24.359375 14.5625 24.359375 C 18.914062 24.359375 22.691406 23.550781 25.890625 21.9375 C 29.097656 20.320312 31.804688 18.175781 34.015625 15.5 C 36.222656 12.820312 38.003906 9.914062 39.359375 6.78125 C 40.710938 3.644531 41.753906 0.5625 42.484375 -2.46875 Z M 42.484375 -2.46875 "/></g></g></g></g><g clip-path="url(#91382e39ac)"><g fill="#ffffff" fill-opacity="1"><g transform="translate(49.454828, 73.0671)"><g><path d="M 28.03125 -14.859375 C 28.351562 -16.242188 28.644531 -17.492188 28.90625 -18.609375 C 29.175781 -19.734375 29.441406 -20.789062 29.703125 -21.78125 C 28.648438 -21.382812 27.675781 -20.757812 26.78125 -19.90625 C 25.894531 -19.050781 25.1875 -17.960938 24.65625 -16.640625 C 24.457031 -16.109375 24.34375 -15.59375 24.3125 -15.09375 C 24.28125 -14.601562 24.296875 -14.160156 24.359375 -13.765625 C 25.679688 -13.960938 26.90625 -14.328125 28.03125 -14.859375 Z M 50.203125 -7.625 L 48.421875 0.6875 C 47.703125 3.789062 46.628906 6.957031 45.203125 10.1875 C 43.785156 13.425781 41.921875 16.414062 39.609375 19.15625 C 37.296875 21.894531 34.488281 24.109375 31.1875 25.796875 C 27.894531 27.484375 24.003906 28.328125 19.515625 28.328125 C 17.328125 28.328125 14.929688 28.0625 12.328125 27.53125 C 9.722656 27 6.835938 26.175781 3.671875 25.0625 L 4.0625 23.765625 C 3.195312 23.566406 2.316406 23.316406 1.421875 23.015625 C 0.535156 22.722656 -0.363281 22.410156 -1.28125 22.078125 L 3.265625 7.625 C 5.515625 8.476562 7.515625 9.117188 9.265625 9.546875 C 11.015625 9.984375 12.546875 10.203125 13.859375 10.203125 C 16.503906 10.203125 18.601562 9.539062 20.15625 8.21875 C 21.707031 6.894531 22.910156 5.273438 23.765625 3.359375 L 22.578125 3.359375 C 18.085938 3.359375 14.457031 2.070312 11.6875 -0.5 C 9.175781 -1.414062 7.128906 -2.894531 5.546875 -4.9375 C 3.960938 -6.988281 3.171875 -9.632812 3.171875 -12.875 C 3.171875 -13.925781 3.300781 -15.113281 3.5625 -16.4375 C 3.832031 -17.757812 4.195312 -19.082031 4.65625 -20.40625 C 5.78125 -23.4375 7.28125 -26.253906 9.15625 -28.859375 C 11.039062 -31.472656 13.5 -33.585938 16.53125 -35.203125 C 19.570312 -36.816406 23.304688 -37.691406 27.734375 -37.828125 C 30.171875 -37.828125 32.515625 -37.460938 34.765625 -36.734375 C 34.890625 -37.203125 35.050781 -37.613281 35.25 -37.96875 C 35.445312 -38.332031 35.546875 -38.515625 35.546875 -38.515625 C 35.546875 -38.515625 36.085938 -38.429688 37.171875 -38.265625 C 38.265625 -38.109375 39.632812 -37.894531 41.28125 -37.625 C 42.9375 -37.363281 44.65625 -37.035156 46.4375 -36.640625 C 48.226562 -36.242188 49.78125 -35.78125 51.09375 -35.25 C 51.03125 -34.988281 50.945312 -34.742188 50.84375 -34.515625 C 50.75 -34.285156 50.671875 -34.035156 50.609375 -33.765625 C 52.722656 -33.367188 54.535156 -32.875 56.046875 -32.28125 C 55.328125 -30.101562 54.617188 -27.609375 53.921875 -24.796875 C 53.222656 -21.992188 52.5625 -19.109375 51.9375 -16.140625 C 51.3125 -13.171875 50.734375 -10.332031 50.203125 -7.625 Z M 27.734375 -26.34375 C 29.378906 -26.34375 30.796875 -26.144531 31.984375 -25.75 C 31.054688 -22.644531 30.035156 -18.78125 28.921875 -14.15625 C 26.941406 -13.238281 25.125 -12.78125 23.46875 -12.78125 C 21.625 -12.78125 20.171875 -13.390625 19.109375 -14.609375 C 18.054688 -15.828125 17.957031 -17.59375 18.8125 -19.90625 C 19.675781 -22.21875 20.878906 -23.851562 22.421875 -24.8125 C 23.972656 -25.769531 25.742188 -26.28125 27.734375 -26.34375 Z M 42.484375 -2.46875 C 42.941406 -4.457031 43.453125 -6.820312 44.015625 -9.5625 C 44.578125 -12.300781 45.171875 -15.1875 45.796875 -18.21875 C 46.429688 -21.257812 47.09375 -24.210938 47.78125 -27.078125 C 48.476562 -29.953125 49.1875 -32.476562 49.90625 -34.65625 C 48.851562 -35.050781 47.550781 -35.414062 46 -35.75 C 44.445312 -36.082031 42.925781 -36.378906 41.4375 -36.640625 C 39.957031 -36.898438 38.703125 -37.097656 37.671875 -37.234375 C 36.648438 -37.367188 36.140625 -37.4375 36.140625 -37.4375 C 36.140625 -37.4375 36.054688 -37.238281 35.890625 -36.84375 C 35.734375 -36.445312 35.554688 -35.984375 35.359375 -35.453125 C 34.296875 -35.847656 33.1875 -36.175781 32.03125 -36.4375 C 30.875 -36.707031 29.640625 -36.84375 28.328125 -36.84375 C 22.453125 -36.84375 17.664062 -35.40625 13.96875 -32.53125 C 10.269531 -29.65625 7.460938 -25.515625 5.546875 -20.109375 C 4.085938 -15.878906 3.753906 -12.3125 4.546875 -9.40625 C 5.347656 -6.5 6.9375 -4.300781 9.3125 -2.8125 C 11.6875 -1.332031 14.457031 -0.59375 17.625 -0.59375 C 20.46875 -0.59375 23.472656 -1.253906 26.640625 -2.578125 C 26.109375 -0.265625 25.394531 1.945312 24.5 4.0625 C 23.613281 6.175781 22.328125 7.890625 20.640625 9.203125 C 18.960938 10.523438 16.703125 11.1875 13.859375 11.1875 C 12.546875 11.1875 11.0625 11.003906 9.40625 10.640625 C 7.757812 10.273438 5.945312 9.695312 3.96875 8.90625 L 0 21.484375 C 2.769531 22.472656 5.375 23.195312 7.8125 23.65625 C 10.257812 24.125 12.507812 24.359375 14.5625 24.359375 C 18.914062 24.359375 22.691406 23.550781 25.890625 21.9375 C 29.097656 20.320312 31.804688 18.175781 34.015625 15.5 C 36.222656 12.820312 38.003906 9.914062 39.359375 6.78125 C 40.710938 3.644531 41.753906 0.5625 42.484375 -2.46875 Z M 42.484375 -2.46875 "/></g></g></g></g><g fill="#ffffff" fill-opacity="1"><g transform="translate(98.272902, 73.0671)"><g><path d="M 19.703125 -42.6875 C 19.179688 -43.007812 18.65625 -43.503906 18.125 -44.171875 C 15.945312 -44.628906 14.226562 -45.734375 12.96875 -47.484375 C 11.71875 -49.234375 11.09375 -51.234375 11.09375 -53.484375 C 11.09375 -55.585938 11.6875 -57.597656 12.875 -59.515625 C 14.0625 -61.429688 15.59375 -63 17.46875 -64.21875 C 19.351562 -65.4375 21.351562 -66.046875 23.46875 -66.046875 C 24.851562 -66.046875 26.4375 -65.765625 28.21875 -65.203125 C 30 -64.648438 31.289062 -63.742188 32.09375 -62.484375 C 32.414062 -62.421875 32.722656 -62.335938 33.015625 -62.234375 C 33.316406 -62.140625 33.632812 -62.023438 33.96875 -61.890625 C 35.550781 -61.296875 36.722656 -60.320312 37.484375 -58.96875 C 38.242188 -57.613281 38.625 -56.113281 38.625 -54.46875 C 38.625 -52.21875 38.007812 -50.050781 36.78125 -47.96875 C 35.5625 -45.894531 33.960938 -44.210938 31.984375 -42.921875 C 30.003906 -41.640625 27.859375 -41 25.546875 -41 C 24.296875 -41 23.15625 -41.160156 22.125 -41.484375 C 21.101562 -41.816406 20.296875 -42.21875 19.703125 -42.6875 Z M 8.609375 -36.34375 L 27.53125 -38.03125 L 27.234375 -34.5625 L 32.484375 -35.0625 C 32.285156 -32.15625 31.9375 -28.9375 31.4375 -25.40625 C 30.945312 -21.875 30.382812 -18.375 29.75 -14.90625 C 29.125 -11.4375 28.53125 -8.265625 27.96875 -5.390625 C 27.414062 -2.523438 26.941406 -0.21875 26.546875 1.53125 C 26.148438 3.28125 25.953125 4.15625 25.953125 4.15625 C 24.753906 4.226562 23.828125 4.28125 23.171875 4.3125 C 22.515625 4.34375 21.921875 4.359375 21.390625 4.359375 C 19.078125 4.359375 16.71875 4.273438 14.3125 4.109375 C 11.90625 3.941406 9.773438 3.742188 7.921875 3.515625 C 6.078125 3.285156 4.757812 3.101562 3.96875 2.96875 C 4.164062 2.113281 4.394531 1.351562 4.65625 0.6875 C 3.394531 0.5625 2.269531 0.429688 1.28125 0.296875 C 0.289062 0.160156 -0.460938 0.0625 -0.984375 0 C 0.398438 -4.15625 1.671875 -8.363281 2.828125 -12.625 C 3.984375 -16.882812 4.988281 -20.796875 5.84375 -24.359375 C 6.695312 -27.921875 7.367188 -30.804688 7.859375 -33.015625 C 8.359375 -35.234375 8.609375 -36.34375 8.609375 -36.34375 Z M 26.4375 -36.9375 L 9.40625 -35.453125 C 9.40625 -35.453125 9.171875 -34.378906 8.703125 -32.234375 C 8.242188 -30.085938 7.585938 -27.296875 6.734375 -23.859375 C 5.878906 -20.429688 4.90625 -16.6875 3.8125 -12.625 C 2.71875 -8.5625 1.546875 -4.617188 0.296875 -0.796875 C 0.953125 -0.660156 2.125 -0.492188 3.8125 -0.296875 C 5.5 -0.0976562 7.460938 0.0625 9.703125 0.1875 C 11.953125 0.320312 14.195312 0.390625 16.4375 0.390625 C 17.09375 0.390625 17.734375 0.390625 18.359375 0.390625 C 18.992188 0.390625 19.609375 0.359375 20.203125 0.296875 C 20.203125 0.296875 20.382812 -0.539062 20.75 -2.21875 C 21.113281 -3.90625 21.570312 -6.117188 22.125 -8.859375 C 22.6875 -11.597656 23.265625 -14.617188 23.859375 -17.921875 C 24.453125 -21.222656 25 -24.523438 25.5 -27.828125 C 26 -31.128906 26.3125 -34.164062 26.4375 -36.9375 Z M 15.34375 -46.453125 C 15.875 -46.046875 16.601562 -45.691406 17.53125 -45.390625 C 18.457031 -45.097656 19.476562 -44.953125 20.59375 -44.953125 C 21.78125 -44.953125 23.066406 -45.203125 24.453125 -45.703125 C 25.847656 -46.203125 27.203125 -47.078125 28.515625 -48.328125 C 30.234375 -49.972656 31.4375 -51.867188 32.125 -54.015625 C 32.820312 -56.160156 32.90625 -58.175781 32.375 -60.0625 C 31.851562 -61.945312 30.601562 -63.25 28.625 -63.96875 C 26.769531 -64.695312 25.050781 -65.0625 23.46875 -65.0625 C 20.039062 -65.0625 16.9375 -63.242188 14.15625 -59.609375 C 12.84375 -57.828125 12.148438 -56.046875 12.078125 -54.265625 C 12.015625 -52.484375 12.3125 -50.914062 12.96875 -49.5625 C 13.632812 -48.207031 14.425781 -47.171875 15.34375 -46.453125 Z M 15.34375 -46.453125 "/></g></g></g><g fill="#ffffff" fill-opacity="1"><g transform="translate(125.603273, 73.0671)"><g><path d="M 29.609375 -15.75 C 29.609375 -15.875 29.625 -15.984375 29.65625 -16.078125 C 29.6875 -16.179688 29.703125 -16.269531 29.703125 -16.34375 C 29.441406 -16.207031 29.160156 -16.070312 28.859375 -15.9375 C 28.566406 -15.8125 28.289062 -15.679688 28.03125 -15.546875 L 26.546875 -4.0625 C 27.140625 -6.101562 27.75 -8.28125 28.375 -10.59375 C 29 -12.90625 29.410156 -14.625 29.609375 -15.75 Z M 4.15625 2.875 L 4.859375 0.09375 C 3.265625 0.03125 1.921875 -0.015625 0.828125 -0.046875 C -0.253906 -0.078125 -0.796875 -0.09375 -0.796875 -0.09375 L 8.609375 -35.546875 L 25.25 -35.25 L 24.859375 -32.390625 L 26.34375 -32.28125 C 28.0625 -33.539062 29.925781 -34.515625 31.9375 -35.203125 C 33.945312 -35.898438 35.976562 -36.25 38.03125 -36.25 C 39.75 -36.25 41.332031 -35.96875 42.78125 -35.40625 C 44.226562 -34.84375 45.453125 -34 46.453125 -32.875 C 48.753906 -32.28125 50.628906 -30.992188 52.078125 -29.015625 C 53.535156 -27.035156 54.265625 -24.226562 54.265625 -20.59375 C 54.265625 -19.738281 54.210938 -18.847656 54.109375 -17.921875 C 54.015625 -16.992188 53.90625 -16.035156 53.78125 -15.046875 C 53.25 -12.078125 52.6875 -9.1875 52.09375 -6.375 C 51.5 -3.570312 51.019531 -1.265625 50.65625 0.546875 C 50.289062 2.359375 50.109375 3.265625 50.109375 3.265625 L 30 3.859375 C 30 3.859375 30.082031 3.546875 30.25 2.921875 C 30.414062 2.296875 30.628906 1.550781 30.890625 0.6875 L 25.84375 0.796875 L 25.65625 2.578125 C 24 2.835938 22.210938 3 20.296875 3.0625 C 18.378906 3.132812 16.46875 3.171875 14.5625 3.171875 C 12.90625 3.171875 11.285156 3.132812 9.703125 3.0625 C 8.117188 3 6.796875 2.953125 5.734375 2.921875 C 4.679688 2.890625 4.15625 2.875 4.15625 2.875 Z M 9.40625 -34.5625 L 0.5 -0.984375 C 0.5 -0.984375 1.40625 -0.953125 3.21875 -0.890625 C 5.03125 -0.828125 7.160156 -0.796875 9.609375 -0.796875 C 11.390625 -0.796875 13.203125 -0.828125 15.046875 -0.890625 C 16.898438 -0.953125 18.488281 -1.082031 19.8125 -1.28125 L 22.1875 -19.109375 C 23.101562 -19.640625 24.039062 -20.085938 25 -20.453125 C 25.957031 -20.816406 26.867188 -21 27.734375 -21 C 28.785156 -21 29.609375 -20.601562 30.203125 -19.8125 C 30.796875 -19.019531 30.925781 -17.597656 30.59375 -15.546875 C 30.394531 -14.554688 30.082031 -13.21875 29.65625 -11.53125 C 29.226562 -9.851562 28.765625 -8.140625 28.265625 -6.390625 C 27.773438 -4.640625 27.347656 -3.148438 26.984375 -1.921875 C 26.617188 -0.703125 26.4375 -0.09375 26.4375 -0.09375 L 44.359375 -0.6875 C 44.359375 -0.6875 44.523438 -1.53125 44.859375 -3.21875 C 45.191406 -4.90625 45.640625 -7.082031 46.203125 -9.75 C 46.765625 -12.425781 47.304688 -15.25 47.828125 -18.21875 C 48.554688 -22.3125 48.554688 -25.613281 47.828125 -28.125 C 47.109375 -30.632812 45.890625 -32.445312 44.171875 -33.5625 C 42.453125 -34.6875 40.40625 -35.25 38.03125 -35.25 C 35.1875 -35.25 32.523438 -34.617188 30.046875 -33.359375 C 27.578125 -32.109375 25.351562 -30.53125 23.375 -28.625 L 24.15625 -34.265625 Z M 9.40625 -34.5625 "/></g></g></g><g fill="#ffffff" fill-opacity="1"><g transform="translate(172.737873, 73.0671)"><g><path d="M 28.515625 -35.546875 L 46.9375 -35.25 C 46.9375 -35.25 46.820312 -35 46.59375 -34.5 C 46.363281 -34.007812 46.050781 -33.304688 45.65625 -32.390625 L 51.890625 -32.28125 C 51.890625 -32.28125 51.523438 -31.488281 50.796875 -29.90625 C 50.078125 -28.320312 49.054688 -26.207031 47.734375 -23.5625 C 46.410156 -20.925781 44.859375 -18.070312 43.078125 -15 C 41.296875 -11.925781 39.363281 -8.851562 37.28125 -5.78125 C 35.207031 -2.71875 33.015625 0.03125 30.703125 2.46875 L 16.828125 3.671875 C 16.828125 3.671875 16.710938 3.367188 16.484375 2.765625 C 16.253906 2.171875 15.972656 1.347656 15.640625 0.296875 L 11.890625 0.6875 C 11.890625 0.6875 11.570312 -0.203125 10.9375 -1.984375 C 10.3125 -3.765625 9.585938 -6.15625 8.765625 -9.15625 C 7.941406 -12.164062 7.210938 -15.550781 6.578125 -19.3125 C 5.953125 -23.070312 5.640625 -26.898438 5.640625 -30.796875 C 5.640625 -31.328125 5.65625 -31.90625 5.6875 -32.53125 C 5.726562 -33.15625 5.78125 -34.0625 5.84375 -35.25 L 22.875 -35.953125 L 22.875 -32.78125 L 27.828125 -32.984375 L 27.828125 -32.484375 Z M 45.453125 -34.265625 L 29.3125 -34.5625 C 28.519531 -31 27.660156 -27.910156 26.734375 -25.296875 C 25.816406 -22.691406 25.007812 -20.675781 24.3125 -19.25 C 23.613281 -17.832031 23.265625 -17.125 23.265625 -17.125 C 22.804688 -18.25 22.476562 -19.785156 22.28125 -21.734375 C 22.082031 -23.679688 21.945312 -25.660156 21.875 -27.671875 C 21.8125 -29.691406 21.796875 -31.410156 21.828125 -32.828125 C 21.867188 -34.242188 21.890625 -34.953125 21.890625 -34.953125 L 6.734375 -34.265625 C 6.472656 -30.109375 6.617188 -26.015625 7.171875 -21.984375 C 7.734375 -17.953125 8.425781 -14.300781 9.25 -11.03125 C 10.082031 -7.769531 10.828125 -5.179688 11.484375 -3.265625 C 12.148438 -1.347656 12.484375 -0.390625 12.484375 -0.390625 L 25.359375 -1.484375 C 27.535156 -3.796875 29.628906 -6.40625 31.640625 -9.3125 C 33.648438 -12.21875 35.5 -15.140625 37.1875 -18.078125 C 38.875 -21.015625 40.328125 -23.703125 41.546875 -26.140625 C 42.765625 -28.585938 43.71875 -30.550781 44.40625 -32.03125 C 45.101562 -33.519531 45.453125 -34.265625 45.453125 -34.265625 Z M 45.453125 -34.265625 "/></g></g></g><g fill="#ffffff" fill-opacity="1"><g transform="translate(213.040001, 73.0671)"><g><path d="M 25.15625 -13.46875 C 26.007812 -14 26.71875 -15.1875 27.28125 -17.03125 C 27.84375 -18.882812 28.023438 -20.632812 27.828125 -22.28125 C 26.640625 -21.289062 25.816406 -19.34375 25.359375 -16.4375 C 25.160156 -15.25 25.09375 -14.257812 25.15625 -13.46875 Z M 38.921875 -33.671875 C 42.085938 -32.484375 44.476562 -30.648438 46.09375 -28.171875 C 47.71875 -25.691406 48.53125 -22.804688 48.53125 -19.515625 C 48.53125 -16.335938 47.867188 -13.363281 46.546875 -10.59375 C 45.222656 -7.820312 43.4375 -5.363281 41.1875 -3.21875 C 38.945312 -1.070312 36.390625 0.59375 33.515625 1.78125 C 30.648438 2.96875 27.664062 3.5625 24.5625 3.5625 C 19.875 3.5625 16.078125 2.207031 13.171875 -0.5 C 10.328125 -1.488281 8.082031 -3.171875 6.4375 -5.546875 C 4.789062 -7.921875 3.96875 -10.890625 3.96875 -14.453125 C 3.96875 -18.742188 5.003906 -22.65625 7.078125 -26.1875 C 9.160156 -29.71875 11.96875 -32.539062 15.5 -34.65625 C 19.03125 -36.769531 22.941406 -37.828125 27.234375 -37.828125 C 29.742188 -37.828125 31.972656 -37.445312 33.921875 -36.6875 C 35.867188 -35.925781 37.535156 -34.921875 38.921875 -33.671875 Z M 25.359375 -12.484375 C 24.492188 -12.085938 23.632812 -11.890625 22.78125 -11.890625 C 21.320312 -11.890625 20.28125 -12.582031 19.65625 -13.96875 C 19.03125 -15.351562 18.945312 -17.234375 19.40625 -19.609375 C 19.800781 -22.046875 20.460938 -23.84375 21.390625 -25 C 22.316406 -26.15625 23.273438 -26.800781 24.265625 -26.9375 C 25.648438 -26.9375 26.671875 -26.570312 27.328125 -25.84375 C 27.992188 -25.113281 28.488281 -24.125 28.8125 -22.875 C 29.082031 -21.550781 29.066406 -20.144531 28.765625 -18.65625 C 28.472656 -17.175781 28.03125 -15.875 27.4375 -14.75 C 26.84375 -13.632812 26.148438 -12.878906 25.359375 -12.484375 Z M 42.390625 -25.453125 C 42.191406 -27.296875 41.460938 -29.09375 40.203125 -30.84375 C 38.953125 -32.59375 37.253906 -34.03125 35.109375 -35.15625 C 32.960938 -36.28125 30.335938 -36.84375 27.234375 -36.84375 C 24.191406 -36.84375 21.203125 -36.210938 18.265625 -34.953125 C 15.328125 -33.703125 12.753906 -31.867188 10.546875 -29.453125 C 8.335938 -27.046875 6.769531 -24.09375 5.84375 -20.59375 C 4.71875 -16.375 4.632812 -12.757812 5.59375 -9.75 C 6.550781 -6.75 8.265625 -4.4375 10.734375 -2.8125 C 13.210938 -1.195312 16.171875 -0.390625 19.609375 -0.390625 C 21.328125 -0.390625 23.078125 -0.585938 24.859375 -0.984375 C 28.285156 -1.773438 31.4375 -3.3125 34.3125 -5.59375 C 37.1875 -7.875 39.398438 -10.726562 40.953125 -14.15625 C 42.503906 -17.59375 42.984375 -21.359375 42.390625 -25.453125 Z M 42.390625 -25.453125 "/></g></g></g><g fill="#ffffff" fill-opacity="1"><g transform="translate(255.520616, 73.0671)"><g><path d="M 19.703125 -42.6875 C 19.179688 -43.007812 18.65625 -43.503906 18.125 -44.171875 C 15.945312 -44.628906 14.226562 -45.734375 12.96875 -47.484375 C 11.71875 -49.234375 11.09375 -51.234375 11.09375 -53.484375 C 11.09375 -55.585938 11.6875 -57.597656 12.875 -59.515625 C 14.0625 -61.429688 15.59375 -63 17.46875 -64.21875 C 19.351562 -65.4375 21.351562 -66.046875 23.46875 -66.046875 C 24.851562 -66.046875 26.4375 -65.765625 28.21875 -65.203125 C 30 -64.648438 31.289062 -63.742188 32.09375 -62.484375 C 32.414062 -62.421875 32.722656 -62.335938 33.015625 -62.234375 C 33.316406 -62.140625 33.632812 -62.023438 33.96875 -61.890625 C 35.550781 -61.296875 36.722656 -60.320312 37.484375 -58.96875 C 38.242188 -57.613281 38.625 -56.113281 38.625 -54.46875 C 38.625 -52.21875 38.007812 -50.050781 36.78125 -47.96875 C 35.5625 -45.894531 33.960938 -44.210938 31.984375 -42.921875 C 30.003906 -41.640625 27.859375 -41 25.546875 -41 C 24.296875 -41 23.15625 -41.160156 22.125 -41.484375 C 21.101562 -41.816406 20.296875 -42.21875 19.703125 -42.6875 Z M 8.609375 -36.34375 L 27.53125 -38.03125 L 27.234375 -34.5625 L 32.484375 -35.0625 C 32.285156 -32.15625 31.9375 -28.9375 31.4375 -25.40625 C 30.945312 -21.875 30.382812 -18.375 29.75 -14.90625 C 29.125 -11.4375 28.53125 -8.265625 27.96875 -5.390625 C 27.414062 -2.523438 26.941406 -0.21875 26.546875 1.53125 C 26.148438 3.28125 25.953125 4.15625 25.953125 4.15625 C 24.753906 4.226562 23.828125 4.28125 23.171875 4.3125 C 22.515625 4.34375 21.921875 4.359375 21.390625 4.359375 C 19.078125 4.359375 16.71875 4.273438 14.3125 4.109375 C 11.90625 3.941406 9.773438 3.742188 7.921875 3.515625 C 6.078125 3.285156 4.757812 3.101562 3.96875 2.96875 C 4.164062 2.113281 4.394531 1.351562 4.65625 0.6875 C 3.394531 0.5625 2.269531 0.429688 1.28125 0.296875 C 0.289062 0.160156 -0.460938 0.0625 -0.984375 0 C 0.398438 -4.15625 1.671875 -8.363281 2.828125 -12.625 C 3.984375 -16.882812 4.988281 -20.796875 5.84375 -24.359375 C 6.695312 -27.921875 7.367188 -30.804688 7.859375 -33.015625 C 8.359375 -35.234375 8.609375 -36.34375 8.609375 -36.34375 Z M 26.4375 -36.9375 L 9.40625 -35.453125 C 9.40625 -35.453125 9.171875 -34.378906 8.703125 -32.234375 C 8.242188 -30.085938 7.585938 -27.296875 6.734375 -23.859375 C 5.878906 -20.429688 4.90625 -16.6875 3.8125 -12.625 C 2.71875 -8.5625 1.546875 -4.617188 0.296875 -0.796875 C 0.953125 -0.660156 2.125 -0.492188 3.8125 -0.296875 C 5.5 -0.0976562 7.460938 0.0625 9.703125 0.1875 C 11.953125 0.320312 14.195312 0.390625 16.4375 0.390625 C 17.09375 0.390625 17.734375 0.390625 18.359375 0.390625 C 18.992188 0.390625 19.609375 0.359375 20.203125 0.296875 C 20.203125 0.296875 20.382812 -0.539062 20.75 -2.21875 C 21.113281 -3.90625 21.570312 -6.117188 22.125 -8.859375 C 22.6875 -11.597656 23.265625 -14.617188 23.859375 -17.921875 C 24.453125 -21.222656 25 -24.523438 25.5 -27.828125 C 26 -31.128906 26.3125 -34.164062 26.4375 -36.9375 Z M 15.34375 -46.453125 C 15.875 -46.046875 16.601562 -45.691406 17.53125 -45.390625 C 18.457031 -45.097656 19.476562 -44.953125 20.59375 -44.953125 C 21.78125 -44.953125 23.066406 -45.203125 24.453125 -45.703125 C 25.847656 -46.203125 27.203125 -47.078125 28.515625 -48.328125 C 30.234375 -49.972656 31.4375 -51.867188 32.125 -54.015625 C 32.820312 -56.160156 32.90625 -58.175781 32.375 -60.0625 C 31.851562 -61.945312 30.601562 -63.25 28.625 -63.96875 C 26.769531 -64.695312 25.050781 -65.0625 23.46875 -65.0625 C 20.039062 -65.0625 16.9375 -63.242188 14.15625 -59.609375 C 12.84375 -57.828125 12.148438 -56.046875 12.078125 -54.265625 C 12.015625 -52.484375 12.3125 -50.914062 12.96875 -49.5625 C 13.632812 -48.207031 14.425781 -47.171875 15.34375 -46.453125 Z M 15.34375 -46.453125 "/></g></g></g><g fill="#ffffff" fill-opacity="1"><g transform="translate(281.860743, 73.0671)"><g><path d="M 25.0625 3.359375 C 22.75 3.359375 20.519531 3.0625 18.375 2.46875 C 16.226562 1.875 14.226562 0.785156 12.375 -0.796875 C 9.738281 -1.785156 7.523438 -3.382812 5.734375 -5.59375 C 3.953125 -7.800781 3.0625 -10.523438 3.0625 -13.765625 C 3.0625 -14.753906 3.191406 -15.859375 3.453125 -17.078125 C 3.722656 -18.304688 4.09375 -19.546875 4.5625 -20.796875 C 5.875 -23.898438 7.6875 -26.769531 10 -29.40625 C 12.3125 -32.050781 14.984375 -34.179688 18.015625 -35.796875 C 21.054688 -37.410156 24.328125 -38.21875 27.828125 -38.21875 C 30.265625 -38.21875 32.425781 -37.867188 34.3125 -37.171875 C 36.195312 -36.484375 37.664062 -35.773438 38.71875 -35.046875 C 39.78125 -34.328125 40.3125 -33.96875 40.3125 -33.96875 L 40.203125 -33.765625 C 41.785156 -33.171875 43.019531 -32.5625 43.90625 -31.9375 C 44.800781 -31.3125 45.25 -31 45.25 -31 L 38.21875 -20.109375 C 36.769531 -20.566406 35.367188 -20.910156 34.015625 -21.140625 C 32.660156 -21.367188 31.222656 -21.484375 29.703125 -21.484375 C 28.785156 -21.285156 27.8125 -20.789062 26.78125 -20 C 25.757812 -19.207031 25.082031 -17.953125 24.75 -16.234375 C 24.625 -15.316406 24.660156 -14.59375 24.859375 -14.0625 C 25.984375 -14.125 27.21875 -14.398438 28.5625 -14.890625 C 29.914062 -15.390625 31.085938 -15.867188 32.078125 -16.328125 C 33.078125 -16.796875 33.578125 -17.03125 33.578125 -17.03125 L 33.765625 -11.984375 C 35.023438 -12.441406 36.128906 -12.898438 37.078125 -13.359375 C 38.035156 -13.828125 38.515625 -14.0625 38.515625 -14.0625 L 39.015625 -0.6875 C 39.015625 -0.6875 38.4375 -0.359375 37.28125 0.296875 C 36.125 0.953125 34.503906 1.625 32.421875 2.3125 C 30.347656 3.007812 27.894531 3.359375 25.0625 3.359375 Z M 17.234375 -0.6875 C 17.765625 -0.625 18.257812 -0.59375 18.71875 -0.59375 C 19.175781 -0.59375 19.640625 -0.59375 20.109375 -0.59375 C 22.878906 -0.59375 25.21875 -0.890625 27.125 -1.484375 C 29.039062 -2.078125 30.507812 -2.671875 31.53125 -3.265625 C 32.5625 -3.859375 33.078125 -4.15625 33.078125 -4.15625 L 32.578125 -15.453125 C 31.253906 -14.785156 29.867188 -14.238281 28.421875 -13.8125 C 26.972656 -13.382812 25.488281 -13.171875 23.96875 -13.171875 C 22.582031 -13.304688 21.296875 -13.816406 20.109375 -14.703125 C 18.921875 -15.597656 18.488281 -17.164062 18.8125 -19.40625 C 19.144531 -21.320312 19.9375 -22.757812 21.1875 -23.71875 C 22.445312 -24.675781 23.601562 -25.253906 24.65625 -25.453125 C 24.789062 -25.453125 24.921875 -25.46875 25.046875 -25.5 C 25.179688 -25.53125 25.316406 -25.546875 25.453125 -25.546875 C 26.378906 -25.546875 27.4375 -25.394531 28.625 -25.09375 C 29.8125 -24.800781 30.832031 -24.503906 31.6875 -24.203125 C 32.550781 -23.910156 32.984375 -23.765625 32.984375 -23.765625 L 39.015625 -33.765625 C 39.015625 -33.765625 38.566406 -34.0625 37.671875 -34.65625 C 36.785156 -35.25 35.515625 -35.828125 33.859375 -36.390625 C 32.210938 -36.953125 30.234375 -37.234375 27.921875 -37.234375 C 24.421875 -37.234375 21.203125 -36.488281 18.265625 -35 C 15.328125 -33.519531 12.769531 -31.507812 10.59375 -28.96875 C 8.414062 -26.425781 6.703125 -23.570312 5.453125 -20.40625 C 3.929688 -16.4375 3.628906 -13.015625 4.546875 -10.140625 C 5.472656 -7.273438 7.125 -5.050781 9.5 -3.46875 C 11.882812 -1.882812 14.460938 -0.957031 17.234375 -0.6875 Z M 17.234375 -0.6875 "/></g></g></g><g fill="#ffffff" fill-opacity="1"><g transform="translate(317.904931, 73.0671)"><g><path d="M 25.0625 3.171875 C 22.8125 3.171875 20.546875 2.90625 18.265625 2.375 C 15.992188 1.84375 14 0.753906 12.28125 -0.890625 C 9.113281 -2.015625 6.800781 -3.796875 5.34375 -6.234375 C 3.894531 -8.679688 3.171875 -11.359375 3.171875 -14.265625 C 3.171875 -16.972656 3.78125 -19.726562 5 -22.53125 C 6.21875 -25.332031 7.945312 -27.921875 10.1875 -30.296875 C 12.4375 -32.679688 15.113281 -34.664062 18.21875 -36.25 C 21.320312 -37.832031 24.789062 -38.722656 28.625 -38.921875 C 30.9375 -38.847656 32.984375 -38.460938 34.765625 -37.765625 C 36.546875 -37.078125 38 -36.175781 39.125 -35.0625 C 41.5 -34.195312 43.363281 -32.9375 44.71875 -31.28125 C 46.070312 -29.632812 46.75 -27.859375 46.75 -25.953125 C 46.75 -23.304688 45.804688 -20.675781 43.921875 -18.0625 C 42.035156 -15.457031 39.3125 -13.460938 35.75 -12.078125 L 35.75 -11.09375 C 37.070312 -11.351562 38.226562 -11.613281 39.21875 -11.875 C 40.207031 -12.144531 40.703125 -12.28125 40.703125 -12.28125 C 40.703125 -12.28125 40.703125 -11.785156 40.703125 -10.796875 C 40.703125 -9.804688 40.703125 -8.582031 40.703125 -7.125 C 40.703125 -5.675781 40.648438 -4.257812 40.546875 -2.875 C 40.453125 -1.488281 40.304688 -0.398438 40.109375 0.390625 C 40.109375 0.390625 39.429688 0.617188 38.078125 1.078125 C 36.722656 1.546875 34.921875 2.007812 32.671875 2.46875 C 30.429688 2.9375 27.894531 3.171875 25.0625 3.171875 Z M 25.84375 -28.21875 C 26.039062 -28.289062 26.238281 -28.328125 26.4375 -28.328125 C 26.632812 -28.328125 26.832031 -28.328125 27.03125 -28.328125 C 28.75 -28.328125 29.671875 -27.863281 29.796875 -26.9375 C 29.929688 -26.007812 29.390625 -25.082031 28.171875 -24.15625 C 26.953125 -23.238281 25.117188 -22.78125 22.671875 -22.78125 C 22.210938 -22.78125 21.6875 -22.8125 21.09375 -22.875 C 20.5 -22.9375 19.875 -23.035156 19.21875 -23.171875 C 20.007812 -24.492188 21 -25.613281 22.1875 -26.53125 C 23.375 -27.457031 24.59375 -28.019531 25.84375 -28.21875 Z M 18.515625 -0.796875 L 20.203125 -0.796875 C 22.910156 -0.796875 25.316406 -1.007812 27.421875 -1.4375 C 29.535156 -1.863281 31.203125 -2.273438 32.421875 -2.671875 C 33.648438 -3.066406 34.265625 -3.265625 34.265625 -3.265625 C 34.460938 -3.929688 34.59375 -4.835938 34.65625 -5.984375 C 34.726562 -7.140625 34.765625 -8.328125 34.765625 -9.546875 C 34.765625 -10.773438 34.765625 -11.800781 34.765625 -12.625 C 34.765625 -13.445312 34.765625 -13.859375 34.765625 -13.859375 C 34.765625 -13.859375 34.265625 -13.742188 33.265625 -13.515625 C 32.273438 -13.285156 31.019531 -13.035156 29.5 -12.765625 C 27.988281 -12.503906 26.40625 -12.375 24.75 -12.375 C 23.5625 -12.375 22.34375 -12.488281 21.09375 -12.71875 C 19.84375 -12.957031 18.851562 -13.601562 18.125 -14.65625 C 18.78125 -14.59375 19.421875 -14.539062 20.046875 -14.5 C 20.679688 -14.46875 21.296875 -14.453125 21.890625 -14.453125 C 26.109375 -14.453125 29.65625 -15.242188 32.53125 -16.828125 C 35.40625 -18.421875 37.535156 -20.390625 38.921875 -22.734375 C 40.304688 -25.078125 40.914062 -27.398438 40.75 -29.703125 C 40.582031 -32.015625 39.59375 -33.960938 37.78125 -35.546875 C 35.96875 -37.128906 33.242188 -37.921875 29.609375 -37.921875 L 28.625 -37.921875 C 24.457031 -37.796875 20.738281 -36.820312 17.46875 -35 C 14.207031 -33.1875 11.503906 -30.894531 9.359375 -28.125 C 7.210938 -25.351562 5.707031 -22.429688 4.84375 -19.359375 C 3.988281 -16.285156 3.875 -13.363281 4.5 -10.59375 C 5.132812 -7.820312 6.601562 -5.546875 8.90625 -3.765625 C 11.21875 -1.984375 14.421875 -0.992188 18.515625 -0.796875 Z M 18.515625 -0.796875 "/></g></g></g></g></g></svg>