<svg width="208" height="68" viewBox="0 0 208 68" fill="none" xmlns="http://www.w3.org/2000/svg">
<path d="M62 0H18C8.05887 0 0 6.85004 0 15.3V52.7C0 61.15 8.05887 68 18 68H62C71.9411 68 80 61.15 80 52.7V15.3C80 6.85004 71.9411 0 62 0Z" fill="white"/>
<path d="M26.9659 48.48C24.0859 48.48 21.5393 47.8667 19.3259 46.64C17.1393 45.3867 15.4193 43.68 14.1659 41.52C12.9126 39.3333 12.2859 36.8267 12.2859 34C12.2859 31.1733 12.9126 28.68 14.1659 26.52C15.4193 24.3333 17.1393 22.6267 19.3259 21.4C21.5393 20.1467 24.0859 19.52 26.9659 19.52C28.7526 19.52 30.3659 19.7867 31.8059 20.32C33.2726 20.8267 34.5526 21.5333 35.6459 22.44C36.7393 23.3467 37.6459 24.3867 38.3659 25.56L33.0459 28.76C32.6459 28.12 32.1126 27.5467 31.4459 27.04C30.8059 26.5333 30.0993 26.1467 29.3259 25.88C28.5526 25.5867 27.7659 25.44 26.9659 25.44C25.3926 25.44 23.9926 25.8 22.7659 26.52C21.5659 27.24 20.6193 28.2533 19.9259 29.56C19.2326 30.84 18.8859 32.32 18.8859 34C18.8859 35.68 19.2193 37.1733 19.8859 38.48C20.5526 39.76 21.5126 40.7733 22.7659 41.52C24.0193 42.2667 25.4726 42.64 27.1259 42.64C28.3793 42.64 29.4859 42.4 30.4459 41.92C31.4059 41.44 32.1659 40.7733 32.7259 39.92C33.2859 39.0667 33.5659 38.0667 33.5659 36.92L39.6859 35.88C39.6859 38.6 39.1393 40.9067 38.0459 42.8C36.9526 44.6667 35.4593 46.08 33.5659 47.04C31.6726 48 29.4726 48.48 26.9659 48.48ZM27.1659 37.6V32.64H39.6859V36.44L36.0859 37.6H27.1659ZM56.38 48.48C53.5 48.48 50.9533 47.8667 48.74 46.64C46.5533 45.3867 44.8333 43.68 43.58 41.52C42.3267 39.3333 41.7 36.8267 41.7 34C41.7 31.1733 42.3267 28.68 43.58 26.52C44.8333 24.3333 46.5533 22.6267 48.74 21.4C50.9533 20.1467 53.5 19.52 56.38 19.52C58.1667 19.52 59.78 19.7867 61.22 20.32C62.6867 20.8267 63.9667 21.5333 65.06 22.44C66.1533 23.3467 67.06 24.3867 67.78 25.56L62.46 28.76C62.06 28.12 61.5267 27.5467 60.86 27.04C60.22 26.5333 59.5133 26.1467 58.74 25.88C57.9667 25.5867 57.18 25.44 56.38 25.44C54.8067 25.44 53.4067 25.8 52.18 26.52C50.98 27.24 50.0333 28.2533 49.34 29.56C48.6467 30.84 48.3 32.32 48.3 34C48.3 35.68 48.6333 37.1733 49.3 38.48C49.9667 39.76 50.9267 40.7733 52.18 41.52C53.4333 42.2667 54.8867 42.64 56.54 42.64C57.7933 42.64 58.9 42.4 59.86 41.92C60.82 41.44 61.58 40.7733 62.14 39.92C62.7 39.0667 62.98 38.0667 62.98 36.92L69.1 35.88C69.1 38.6 68.5533 40.9067 67.46 42.8C66.3667 44.6667 64.8733 46.08 62.98 47.04C61.0867 48 58.8867 48.48 56.38 48.48ZM56.58 37.6V32.64H69.1V36.44L65.5 37.6H56.58Z" fill="#1D4ED8"/>
<path d="M90.28 29H94.916V48H90.28V29ZM92.636 26.549C91.952 26.549 91.3757 26.3273 90.907 25.884C90.4383 25.428 90.204 24.858 90.204 24.174C90.204 23.5027 90.4383 22.939 90.907 22.483C91.3757 22.027 91.9457 21.799 92.617 21.799C93.2883 21.799 93.852 22.027 94.308 22.483C94.7767 22.939 95.011 23.5027 95.011 24.174C95.011 24.858 94.783 25.428 94.327 25.884C93.871 26.3273 93.3073 26.549 92.636 26.549ZM116.739 35.992V48H112.103V37.208C112.103 36.4607 111.919 35.783 111.552 35.175C111.184 34.5543 110.69 34.0667 110.07 33.712C109.462 33.3447 108.784 33.161 108.037 33.161C107.289 33.161 106.605 33.3447 105.985 33.712C105.377 34.0667 104.889 34.5543 104.522 35.175C104.167 35.783 103.99 36.4607 103.99 37.208V48H99.3537L99.3347 29H103.971L103.99 30.691C104.636 30.007 105.408 29.4687 106.308 29.076C107.207 28.6707 108.176 28.468 109.215 28.468C110.595 28.468 111.856 28.81 112.996 29.494C114.136 30.1653 115.041 31.071 115.713 32.211C116.397 33.3383 116.739 34.5987 116.739 35.992ZM131.432 48H125.447L118.531 28.981H123.471L128.449 42.661L133.408 28.981H138.348L131.432 48ZM148.775 48.494C147.027 48.494 145.431 48.0443 143.987 47.145C142.555 46.2457 141.409 45.0423 140.548 43.535C139.699 42.015 139.275 40.3367 139.275 38.5C139.275 37.1067 139.522 35.8083 140.016 34.605C140.51 33.389 141.187 32.325 142.049 31.413C142.923 30.4883 143.936 29.7663 145.089 29.247C146.241 28.7277 147.47 28.468 148.775 28.468C150.523 28.468 152.112 28.9177 153.544 29.817C154.988 30.7163 156.134 31.926 156.983 33.446C157.844 34.966 158.275 36.6507 158.275 38.5C158.275 39.8807 158.028 41.1727 157.534 42.376C157.04 43.5793 156.356 44.6433 155.482 45.568C154.62 46.48 153.613 47.1957 152.461 47.715C151.321 48.2343 150.092 48.494 148.775 48.494ZM148.775 43.858C149.699 43.858 150.529 43.611 151.264 43.117C151.998 42.623 152.575 41.9707 152.993 41.16C153.423 40.3493 153.639 39.4627 153.639 38.5C153.639 37.512 153.417 36.6127 152.974 35.802C152.543 34.9787 151.954 34.3263 151.207 33.845C150.472 33.351 149.661 33.104 148.775 33.104C147.863 33.104 147.039 33.351 146.305 33.845C145.57 34.339 144.987 34.9977 144.557 35.821C144.126 36.6443 143.911 37.5373 143.911 38.5C143.911 39.5007 144.132 40.4063 144.576 41.217C145.019 42.0277 145.608 42.6737 146.343 43.155C147.09 43.6237 147.901 43.858 148.775 43.858ZM160.825 29H165.461V48H160.825V29ZM163.181 26.549C162.497 26.549 161.921 26.3273 161.452 25.884C160.983 25.428 160.749 24.858 160.749 24.174C160.749 23.5027 160.983 22.939 161.452 22.483C161.921 22.027 162.491 21.799 163.162 21.799C163.833 21.799 164.397 22.027 164.853 22.483C165.322 22.939 165.556 23.5027 165.556 24.174C165.556 24.858 165.328 25.428 164.872 25.884C164.416 26.3273 163.852 26.549 163.181 26.549ZM181.363 42.281L185.543 44.542C184.669 45.7327 183.573 46.689 182.256 47.411C180.938 48.133 179.501 48.494 177.943 48.494C176.195 48.494 174.599 48.0443 173.155 47.145C171.723 46.2457 170.577 45.0423 169.716 43.535C168.867 42.015 168.443 40.3367 168.443 38.5C168.443 37.1067 168.69 35.8083 169.184 34.605C169.678 33.389 170.355 32.325 171.217 31.413C172.091 30.4883 173.104 29.7663 174.257 29.247C175.409 28.7277 176.638 28.468 177.943 28.468C179.501 28.468 180.938 28.829 182.256 29.551C183.573 30.273 184.669 31.242 185.543 32.458L181.363 34.7C180.919 34.1933 180.394 33.8007 179.786 33.522C179.19 33.2433 178.576 33.104 177.943 33.104C177.031 33.104 176.207 33.3573 175.473 33.864C174.738 34.358 174.155 35.0167 173.725 35.84C173.294 36.6507 173.079 37.5373 173.079 38.5C173.079 39.45 173.294 40.3367 173.725 41.16C174.155 41.9707 174.738 42.623 175.473 43.117C176.207 43.611 177.031 43.858 177.943 43.858C178.601 43.858 179.228 43.7187 179.824 43.44C180.419 43.1487 180.932 42.7623 181.363 42.281ZM196.72 48.494C194.972 48.494 193.376 48.0443 191.932 47.145C190.501 46.2457 189.354 45.036 188.493 43.516C187.644 41.996 187.22 40.3177 187.22 38.481C187.22 37.1003 187.467 35.8083 187.961 34.605C188.455 33.389 189.133 32.325 189.994 31.413C190.868 30.4883 191.881 29.7663 193.034 29.247C194.187 28.7277 195.415 28.468 196.72 28.468C198.202 28.468 199.557 28.7847 200.786 29.418C202.027 30.0387 203.079 30.8937 203.94 31.983C204.801 33.0723 205.428 34.3137 205.821 35.707C206.214 37.1003 206.302 38.557 206.087 40.077H192.198C192.375 40.7863 192.667 41.426 193.072 41.996C193.477 42.5533 193.99 43.003 194.611 43.345C195.232 43.6743 195.935 43.8453 196.72 43.858C197.531 43.8707 198.265 43.6807 198.924 43.288C199.595 42.8827 200.153 42.338 200.596 41.654L205.327 42.756C204.554 44.4407 203.402 45.8213 201.869 46.898C200.336 47.962 198.62 48.494 196.72 48.494ZM192.046 36.6H201.394C201.255 35.84 200.957 35.156 200.501 34.548C200.058 33.9273 199.507 33.4333 198.848 33.066C198.189 32.6987 197.48 32.515 196.72 32.515C195.96 32.515 195.257 32.6987 194.611 33.066C193.965 33.4207 193.414 33.9083 192.958 34.529C192.515 35.137 192.211 35.8273 192.046 36.6Z" fill="white"/>
</svg>
