<svg xmlns="http://www.w3.org/2000/svg" xmlns:xlink="http://www.w3.org/1999/xlink" width="500" zoomAndPan="magnify" viewBox="0 0 375 112.499997" height="150" preserveAspectRatio="xMidYMid meet" version="1.0"><defs><g/></defs><g fill="#2563eb" fill-opacity="1"><g transform="translate(35.958676, 78.391194)"><g><path d="M 26.4375 -14.015625 C 26.75 -15.316406 27.023438 -16.492188 27.265625 -17.546875 C 27.515625 -18.609375 27.765625 -19.609375 28.015625 -20.546875 C 27.023438 -20.171875 26.109375 -19.578125 25.265625 -18.765625 C 24.421875 -17.960938 23.753906 -16.9375 23.265625 -15.6875 C 23.078125 -15.1875 22.96875 -14.703125 22.9375 -14.234375 C 22.90625 -13.773438 22.921875 -13.359375 22.984375 -12.984375 C 24.222656 -13.171875 25.375 -13.515625 26.4375 -14.015625 Z M 47.359375 -7.1875 L 45.671875 0.65625 C 44.984375 3.582031 43.96875 6.570312 42.625 9.625 C 41.289062 12.675781 39.535156 15.492188 37.359375 18.078125 C 35.179688 20.660156 32.535156 22.742188 29.421875 24.328125 C 26.304688 25.921875 22.632812 26.71875 18.40625 26.71875 C 16.34375 26.71875 14.082031 26.46875 11.625 25.96875 C 9.164062 25.46875 6.441406 24.6875 3.453125 23.625 L 3.828125 22.421875 C 3.015625 22.234375 2.1875 22 1.34375 21.71875 C 0.507812 21.4375 -0.34375 21.140625 -1.21875 20.828125 L 3.078125 7.1875 C 5.203125 8 7.085938 8.609375 8.734375 9.015625 C 10.378906 9.421875 11.828125 9.625 13.078125 9.625 C 15.566406 9.625 17.539062 9 19 7.75 C 20.46875 6.507812 21.609375 4.984375 22.421875 3.171875 L 21.296875 3.171875 C 17.054688 3.171875 13.628906 1.957031 11.015625 -0.46875 C 8.648438 -1.34375 6.71875 -2.742188 5.21875 -4.671875 C 3.726562 -6.597656 2.984375 -9.085938 2.984375 -12.140625 C 2.984375 -13.140625 3.109375 -14.257812 3.359375 -15.5 C 3.609375 -16.75 3.953125 -17.992188 4.390625 -19.234375 C 5.453125 -22.097656 6.867188 -24.757812 8.640625 -27.21875 C 10.410156 -29.6875 12.726562 -31.679688 15.59375 -33.203125 C 18.457031 -34.734375 21.976562 -35.5625 26.15625 -35.6875 C 28.457031 -35.6875 30.664062 -35.34375 32.78125 -34.65625 C 32.90625 -35.09375 33.0625 -35.476562 33.25 -35.8125 C 33.4375 -36.15625 33.53125 -36.328125 33.53125 -36.328125 C 33.53125 -36.328125 34.039062 -36.25 35.0625 -36.09375 C 36.09375 -35.945312 37.382812 -35.75 38.9375 -35.5 C 40.5 -35.25 42.117188 -34.9375 43.796875 -34.5625 C 45.484375 -34.1875 46.953125 -33.75 48.203125 -33.25 C 48.140625 -33 48.0625 -32.765625 47.96875 -32.546875 C 47.875 -32.328125 47.796875 -32.09375 47.734375 -31.84375 C 49.722656 -31.476562 51.4375 -31.015625 52.875 -30.453125 C 52.1875 -28.398438 51.515625 -26.046875 50.859375 -23.390625 C 50.203125 -20.742188 49.578125 -18.019531 48.984375 -15.21875 C 48.398438 -12.414062 47.859375 -9.738281 47.359375 -7.1875 Z M 26.15625 -24.84375 C 27.707031 -24.84375 29.046875 -24.65625 30.171875 -24.28125 C 29.296875 -21.351562 28.332031 -17.710938 27.28125 -13.359375 C 25.40625 -12.484375 23.691406 -12.046875 22.140625 -12.046875 C 20.390625 -12.046875 19.015625 -12.617188 18.015625 -13.765625 C 17.023438 -14.921875 16.9375 -16.59375 17.75 -18.78125 C 18.5625 -20.957031 19.695312 -22.492188 21.15625 -23.390625 C 22.613281 -24.296875 24.28125 -24.78125 26.15625 -24.84375 Z M 40.078125 -2.328125 C 40.503906 -4.203125 40.984375 -6.429688 41.515625 -9.015625 C 42.046875 -11.597656 42.609375 -14.320312 43.203125 -17.1875 C 43.796875 -20.050781 44.414062 -22.835938 45.0625 -25.546875 C 45.71875 -28.253906 46.390625 -30.632812 47.078125 -32.6875 C 46.078125 -33.0625 44.84375 -33.40625 43.375 -33.71875 C 41.914062 -34.03125 40.484375 -34.3125 39.078125 -34.5625 C 37.679688 -34.8125 36.5 -35 35.53125 -35.125 C 34.570312 -35.25 34.09375 -35.3125 34.09375 -35.3125 C 34.09375 -35.3125 34.015625 -35.125 33.859375 -34.75 C 33.703125 -34.375 33.53125 -33.9375 33.34375 -33.4375 C 32.34375 -33.8125 31.296875 -34.125 30.203125 -34.375 C 29.117188 -34.625 27.957031 -34.75 26.71875 -34.75 C 21.175781 -34.75 16.660156 -33.394531 13.171875 -30.6875 C 9.679688 -27.976562 7.035156 -24.070312 5.234375 -18.96875 C 3.859375 -14.976562 3.546875 -11.613281 4.296875 -8.875 C 5.046875 -6.132812 6.539062 -4.0625 8.78125 -2.65625 C 11.019531 -1.257812 13.632812 -0.5625 16.625 -0.5625 C 19.300781 -0.5625 22.132812 -1.179688 25.125 -2.421875 C 24.625 -0.242188 23.953125 1.835938 23.109375 3.828125 C 22.273438 5.816406 21.0625 7.4375 19.46875 8.6875 C 17.882812 9.9375 15.753906 10.5625 13.078125 10.5625 C 11.828125 10.5625 10.421875 10.390625 8.859375 10.046875 C 7.304688 9.703125 5.597656 9.15625 3.734375 8.40625 L 0 20.265625 C 2.613281 21.203125 5.070312 21.890625 7.375 22.328125 C 9.675781 22.765625 11.796875 22.984375 13.734375 22.984375 C 17.835938 22.984375 21.398438 22.21875 24.421875 20.6875 C 27.441406 19.164062 29.992188 17.140625 32.078125 14.609375 C 34.171875 12.085938 35.851562 9.347656 37.125 6.390625 C 38.40625 3.441406 39.390625 0.535156 40.078125 -2.328125 Z M 40.078125 -2.328125 "/></g></g></g><g fill="#2563eb" fill-opacity="1"><g transform="translate(76.678275, 78.391194)"><g><path d="M 26.4375 -14.015625 C 26.75 -15.316406 27.023438 -16.492188 27.265625 -17.546875 C 27.515625 -18.609375 27.765625 -19.609375 28.015625 -20.546875 C 27.023438 -20.171875 26.109375 -19.578125 25.265625 -18.765625 C 24.421875 -17.960938 23.753906 -16.9375 23.265625 -15.6875 C 23.078125 -15.1875 22.96875 -14.703125 22.9375 -14.234375 C 22.90625 -13.773438 22.921875 -13.359375 22.984375 -12.984375 C 24.222656 -13.171875 25.375 -13.515625 26.4375 -14.015625 Z M 47.359375 -7.1875 L 45.671875 0.65625 C 44.984375 3.582031 43.96875 6.570312 42.625 9.625 C 41.289062 12.675781 39.535156 15.492188 37.359375 18.078125 C 35.179688 20.660156 32.535156 22.742188 29.421875 24.328125 C 26.304688 25.921875 22.632812 26.71875 18.40625 26.71875 C 16.34375 26.71875 14.082031 26.46875 11.625 25.96875 C 9.164062 25.46875 6.441406 24.6875 3.453125 23.625 L 3.828125 22.421875 C 3.015625 22.234375 2.1875 22 1.34375 21.71875 C 0.507812 21.4375 -0.34375 21.140625 -1.21875 20.828125 L 3.078125 7.1875 C 5.203125 8 7.085938 8.609375 8.734375 9.015625 C 10.378906 9.421875 11.828125 9.625 13.078125 9.625 C 15.566406 9.625 17.539062 9 19 7.75 C 20.46875 6.507812 21.609375 4.984375 22.421875 3.171875 L 21.296875 3.171875 C 17.054688 3.171875 13.628906 1.957031 11.015625 -0.46875 C 8.648438 -1.34375 6.71875 -2.742188 5.21875 -4.671875 C 3.726562 -6.597656 2.984375 -9.085938 2.984375 -12.140625 C 2.984375 -13.140625 3.109375 -14.257812 3.359375 -15.5 C 3.609375 -16.75 3.953125 -17.992188 4.390625 -19.234375 C 5.453125 -22.097656 6.867188 -24.757812 8.640625 -27.21875 C 10.410156 -29.6875 12.726562 -31.679688 15.59375 -33.203125 C 18.457031 -34.734375 21.976562 -35.5625 26.15625 -35.6875 C 28.457031 -35.6875 30.664062 -35.34375 32.78125 -34.65625 C 32.90625 -35.09375 33.0625 -35.476562 33.25 -35.8125 C 33.4375 -36.15625 33.53125 -36.328125 33.53125 -36.328125 C 33.53125 -36.328125 34.039062 -36.25 35.0625 -36.09375 C 36.09375 -35.945312 37.382812 -35.75 38.9375 -35.5 C 40.5 -35.25 42.117188 -34.9375 43.796875 -34.5625 C 45.484375 -34.1875 46.953125 -33.75 48.203125 -33.25 C 48.140625 -33 48.0625 -32.765625 47.96875 -32.546875 C 47.875 -32.328125 47.796875 -32.09375 47.734375 -31.84375 C 49.722656 -31.476562 51.4375 -31.015625 52.875 -30.453125 C 52.1875 -28.398438 51.515625 -26.046875 50.859375 -23.390625 C 50.203125 -20.742188 49.578125 -18.019531 48.984375 -15.21875 C 48.398438 -12.414062 47.859375 -9.738281 47.359375 -7.1875 Z M 26.15625 -24.84375 C 27.707031 -24.84375 29.046875 -24.65625 30.171875 -24.28125 C 29.296875 -21.351562 28.332031 -17.710938 27.28125 -13.359375 C 25.40625 -12.484375 23.691406 -12.046875 22.140625 -12.046875 C 20.390625 -12.046875 19.015625 -12.617188 18.015625 -13.765625 C 17.023438 -14.921875 16.9375 -16.59375 17.75 -18.78125 C 18.5625 -20.957031 19.695312 -22.492188 21.15625 -23.390625 C 22.613281 -24.296875 24.28125 -24.78125 26.15625 -24.84375 Z M 40.078125 -2.328125 C 40.503906 -4.203125 40.984375 -6.429688 41.515625 -9.015625 C 42.046875 -11.597656 42.609375 -14.320312 43.203125 -17.1875 C 43.796875 -20.050781 44.414062 -22.835938 45.0625 -25.546875 C 45.71875 -28.253906 46.390625 -30.632812 47.078125 -32.6875 C 46.078125 -33.0625 44.84375 -33.40625 43.375 -33.71875 C 41.914062 -34.03125 40.484375 -34.3125 39.078125 -34.5625 C 37.679688 -34.8125 36.5 -35 35.53125 -35.125 C 34.570312 -35.25 34.09375 -35.3125 34.09375 -35.3125 C 34.09375 -35.3125 34.015625 -35.125 33.859375 -34.75 C 33.703125 -34.375 33.53125 -33.9375 33.34375 -33.4375 C 32.34375 -33.8125 31.296875 -34.125 30.203125 -34.375 C 29.117188 -34.625 27.957031 -34.75 26.71875 -34.75 C 21.175781 -34.75 16.660156 -33.394531 13.171875 -30.6875 C 9.679688 -27.976562 7.035156 -24.070312 5.234375 -18.96875 C 3.859375 -14.976562 3.546875 -11.613281 4.296875 -8.875 C 5.046875 -6.132812 6.539062 -4.0625 8.78125 -2.65625 C 11.019531 -1.257812 13.632812 -0.5625 16.625 -0.5625 C 19.300781 -0.5625 22.132812 -1.179688 25.125 -2.421875 C 24.625 -0.242188 23.953125 1.835938 23.109375 3.828125 C 22.273438 5.816406 21.0625 7.4375 19.46875 8.6875 C 17.882812 9.9375 15.753906 10.5625 13.078125 10.5625 C 11.828125 10.5625 10.421875 10.390625 8.859375 10.046875 C 7.304688 9.703125 5.597656 9.15625 3.734375 8.40625 L 0 20.265625 C 2.613281 21.203125 5.070312 21.890625 7.375 22.328125 C 9.675781 22.765625 11.796875 22.984375 13.734375 22.984375 C 17.835938 22.984375 21.398438 22.21875 24.421875 20.6875 C 27.441406 19.164062 29.992188 17.140625 32.078125 14.609375 C 34.171875 12.085938 35.851562 9.347656 37.125 6.390625 C 38.40625 3.441406 39.390625 0.535156 40.078125 -2.328125 Z M 40.078125 -2.328125 "/></g></g></g><g fill="#2563eb" fill-opacity="1"><g transform="translate(117.397873, 78.391194)"><g><path d="M 18.59375 -40.265625 C 18.09375 -40.566406 17.59375 -41.03125 17.09375 -41.65625 C 15.039062 -42.09375 13.421875 -43.132812 12.234375 -44.78125 C 11.054688 -46.4375 10.46875 -48.320312 10.46875 -50.4375 C 10.46875 -52.425781 11.023438 -54.320312 12.140625 -56.125 C 13.265625 -57.9375 14.710938 -59.414062 16.484375 -60.5625 C 18.253906 -61.71875 20.140625 -62.296875 22.140625 -62.296875 C 23.441406 -62.296875 24.929688 -62.03125 26.609375 -61.5 C 28.296875 -60.976562 29.515625 -60.125 30.265625 -58.9375 C 30.578125 -58.875 30.875 -58.796875 31.15625 -58.703125 C 31.4375 -58.609375 31.726562 -58.5 32.03125 -58.375 C 33.53125 -57.8125 34.632812 -56.890625 35.34375 -55.609375 C 36.0625 -54.335938 36.421875 -52.925781 36.421875 -51.375 C 36.421875 -49.257812 35.84375 -47.21875 34.6875 -45.25 C 33.539062 -43.289062 32.035156 -41.703125 30.171875 -40.484375 C 28.304688 -39.273438 26.28125 -38.671875 24.09375 -38.671875 C 22.914062 -38.671875 21.84375 -38.828125 20.875 -39.140625 C 19.90625 -39.453125 19.144531 -39.828125 18.59375 -40.265625 Z M 8.125 -34.28125 L 25.96875 -35.875 L 25.6875 -32.59375 L 30.640625 -33.0625 C 30.453125 -30.320312 30.125 -27.285156 29.65625 -23.953125 C 29.1875 -20.628906 28.65625 -17.332031 28.0625 -14.0625 C 27.476562 -10.789062 26.921875 -7.800781 26.390625 -5.09375 C 25.859375 -2.382812 25.40625 -0.207031 25.03125 1.4375 C 24.65625 3.09375 24.46875 3.921875 24.46875 3.921875 C 23.351562 3.984375 22.484375 4.03125 21.859375 4.0625 C 21.234375 4.09375 20.671875 4.109375 20.171875 4.109375 C 17.992188 4.109375 15.769531 4.03125 13.5 3.875 C 11.226562 3.71875 9.21875 3.53125 7.46875 3.3125 C 5.726562 3.09375 4.484375 2.921875 3.734375 2.796875 C 3.921875 1.992188 4.140625 1.28125 4.390625 0.65625 C 3.203125 0.53125 2.140625 0.40625 1.203125 0.28125 C 0.273438 0.15625 -0.4375 0.0625 -0.9375 0 C 0.375 -3.925781 1.570312 -7.894531 2.65625 -11.90625 C 3.75 -15.925781 4.695312 -19.613281 5.5 -22.96875 C 6.3125 -26.332031 6.953125 -29.054688 7.421875 -31.140625 C 7.890625 -33.234375 8.125 -34.28125 8.125 -34.28125 Z M 24.9375 -34.84375 L 8.875 -33.4375 C 8.875 -33.4375 8.65625 -32.425781 8.21875 -30.40625 C 7.78125 -28.382812 7.15625 -25.753906 6.34375 -22.515625 C 5.539062 -19.273438 4.625 -15.738281 3.59375 -11.90625 C 2.570312 -8.082031 1.46875 -4.363281 0.28125 -0.75 C 0.90625 -0.625 2.007812 -0.46875 3.59375 -0.28125 C 5.1875 -0.09375 7.039062 0.0625 9.15625 0.1875 C 11.269531 0.3125 13.382812 0.375 15.5 0.375 C 16.125 0.375 16.734375 0.375 17.328125 0.375 C 17.921875 0.375 18.5 0.34375 19.0625 0.28125 C 19.0625 0.28125 19.226562 -0.507812 19.5625 -2.09375 C 19.90625 -3.6875 20.34375 -5.773438 20.875 -8.359375 C 21.40625 -10.941406 21.945312 -13.789062 22.5 -16.90625 C 23.0625 -20.019531 23.578125 -23.132812 24.046875 -26.25 C 24.515625 -29.363281 24.8125 -32.226562 24.9375 -34.84375 Z M 14.484375 -43.8125 C 14.972656 -43.4375 15.65625 -43.109375 16.53125 -42.828125 C 17.40625 -42.546875 18.367188 -42.40625 19.421875 -42.40625 C 20.546875 -42.40625 21.757812 -42.640625 23.0625 -43.109375 C 24.375 -43.578125 25.65625 -44.398438 26.90625 -45.578125 C 28.519531 -47.140625 29.65625 -48.929688 30.3125 -50.953125 C 30.96875 -52.972656 31.046875 -54.867188 30.546875 -56.640625 C 30.046875 -58.421875 28.863281 -59.65625 27 -60.34375 C 25.25 -61.03125 23.628906 -61.375 22.140625 -61.375 C 18.898438 -61.375 15.972656 -59.660156 13.359375 -56.234375 C 12.109375 -54.546875 11.453125 -52.863281 11.390625 -51.1875 C 11.328125 -49.507812 11.609375 -48.03125 12.234375 -46.75 C 12.859375 -45.46875 13.609375 -44.488281 14.484375 -43.8125 Z M 14.484375 -43.8125 "/></g></g></g><g fill="#2563eb" fill-opacity="1"><g transform="translate(137.757667, 78.391194)"><g><path d="M 27.921875 -14.859375 C 27.921875 -14.972656 27.9375 -15.078125 27.96875 -15.171875 C 28 -15.265625 28.015625 -15.34375 28.015625 -15.40625 C 27.765625 -15.28125 27.5 -15.15625 27.21875 -15.03125 C 26.945312 -14.914062 26.6875 -14.796875 26.4375 -14.671875 L 25.03125 -3.828125 C 25.59375 -5.753906 26.164062 -7.804688 26.75 -9.984375 C 27.34375 -12.171875 27.734375 -13.796875 27.921875 -14.859375 Z M 3.921875 2.703125 L 4.578125 0.09375 C 3.078125 0.03125 1.8125 -0.015625 0.78125 -0.046875 C -0.238281 -0.078125 -0.75 -0.09375 -0.75 -0.09375 L 8.125 -33.53125 L 23.8125 -33.25 L 23.4375 -30.546875 L 24.84375 -30.453125 C 26.46875 -31.628906 28.226562 -32.546875 30.125 -33.203125 C 32.019531 -33.859375 33.9375 -34.1875 35.875 -34.1875 C 37.488281 -34.1875 38.976562 -33.921875 40.34375 -33.390625 C 41.71875 -32.859375 42.875 -32.066406 43.8125 -31.015625 C 45.988281 -30.453125 47.757812 -29.234375 49.125 -27.359375 C 50.5 -25.492188 51.1875 -22.847656 51.1875 -19.421875 C 51.1875 -18.617188 51.140625 -17.78125 51.046875 -16.90625 C 50.953125 -16.03125 50.84375 -15.128906 50.71875 -14.203125 C 50.21875 -11.398438 49.6875 -8.675781 49.125 -6.03125 C 48.570312 -3.382812 48.125 -1.207031 47.78125 0.5 C 47.4375 2.21875 47.265625 3.078125 47.265625 3.078125 L 28.296875 3.640625 C 28.296875 3.640625 28.375 3.34375 28.53125 2.75 C 28.6875 2.164062 28.890625 1.46875 29.140625 0.65625 L 24.375 0.75 L 24.1875 2.421875 C 22.632812 2.671875 20.953125 2.828125 19.140625 2.890625 C 17.335938 2.953125 15.535156 2.984375 13.734375 2.984375 C 12.171875 2.984375 10.640625 2.953125 9.140625 2.890625 C 7.648438 2.828125 6.40625 2.78125 5.40625 2.75 C 4.414062 2.71875 3.921875 2.703125 3.921875 2.703125 Z M 8.875 -32.59375 L 0.46875 -0.9375 C 0.46875 -0.9375 1.320312 -0.90625 3.03125 -0.84375 C 4.75 -0.78125 6.757812 -0.75 9.0625 -0.75 C 10.738281 -0.75 12.445312 -0.78125 14.1875 -0.84375 C 15.9375 -0.90625 17.4375 -1.03125 18.6875 -1.21875 L 20.921875 -18.03125 C 21.796875 -18.53125 22.679688 -18.945312 23.578125 -19.28125 C 24.484375 -19.625 25.34375 -19.796875 26.15625 -19.796875 C 27.144531 -19.796875 27.921875 -19.421875 28.484375 -18.671875 C 29.046875 -17.929688 29.171875 -16.597656 28.859375 -14.671875 C 28.671875 -13.734375 28.375 -12.46875 27.96875 -10.875 C 27.570312 -9.289062 27.140625 -7.671875 26.671875 -6.015625 C 26.203125 -4.367188 25.796875 -2.96875 25.453125 -1.8125 C 25.109375 -0.664062 24.9375 -0.09375 24.9375 -0.09375 L 41.84375 -0.65625 C 41.84375 -0.65625 42 -1.445312 42.3125 -3.03125 C 42.625 -4.625 43.046875 -6.679688 43.578125 -9.203125 C 44.109375 -11.722656 44.617188 -14.382812 45.109375 -17.1875 C 45.796875 -21.050781 45.796875 -24.164062 45.109375 -26.53125 C 44.429688 -28.894531 43.28125 -30.601562 41.65625 -31.65625 C 40.039062 -32.71875 38.113281 -33.25 35.875 -33.25 C 33.1875 -33.25 30.675781 -32.65625 28.34375 -31.46875 C 26.007812 -30.289062 23.910156 -28.800781 22.046875 -27 L 22.796875 -32.3125 Z M 8.875 -32.59375 "/></g></g></g><g fill="#2563eb" fill-opacity="1"><g transform="translate(180.625307, 78.391194)"><g><path d="M 26.90625 -33.53125 L 44.28125 -33.25 C 44.28125 -33.25 44.171875 -33.015625 43.953125 -32.546875 C 43.734375 -32.078125 43.4375 -31.410156 43.0625 -30.546875 L 48.9375 -30.453125 C 48.9375 -30.453125 48.59375 -29.703125 47.90625 -28.203125 C 47.226562 -26.710938 46.265625 -24.722656 45.015625 -22.234375 C 43.773438 -19.742188 42.3125 -17.050781 40.625 -14.15625 C 38.945312 -11.257812 37.125 -8.363281 35.15625 -5.46875 C 33.195312 -2.570312 31.128906 0.0234375 28.953125 2.328125 L 15.875 3.453125 C 15.875 3.453125 15.765625 3.171875 15.546875 2.609375 C 15.328125 2.054688 15.066406 1.28125 14.765625 0.28125 L 11.203125 0.65625 C 11.203125 0.65625 10.90625 -0.179688 10.3125 -1.859375 C 9.726562 -3.546875 9.046875 -5.804688 8.265625 -8.640625 C 7.484375 -11.472656 6.796875 -14.660156 6.203125 -18.203125 C 5.617188 -21.753906 5.328125 -25.367188 5.328125 -29.046875 C 5.328125 -29.546875 5.34375 -30.09375 5.375 -30.6875 C 5.40625 -31.28125 5.453125 -32.132812 5.515625 -33.25 L 21.578125 -33.90625 L 21.578125 -30.921875 L 26.25 -31.109375 L 26.25 -30.640625 Z M 42.875 -32.3125 L 27.640625 -32.59375 C 26.898438 -29.238281 26.09375 -26.328125 25.21875 -23.859375 C 24.34375 -21.398438 23.578125 -19.5 22.921875 -18.15625 C 22.273438 -16.820312 21.953125 -16.15625 21.953125 -16.15625 C 21.515625 -17.21875 21.203125 -18.664062 21.015625 -20.5 C 20.828125 -22.34375 20.703125 -24.210938 20.640625 -26.109375 C 20.578125 -28.003906 20.5625 -29.617188 20.59375 -30.953125 C 20.625 -32.296875 20.640625 -32.96875 20.640625 -32.96875 L 6.359375 -32.3125 C 6.109375 -28.394531 6.242188 -24.535156 6.765625 -20.734375 C 7.296875 -16.929688 7.953125 -13.488281 8.734375 -10.40625 C 9.515625 -7.332031 10.210938 -4.890625 10.828125 -3.078125 C 11.453125 -1.273438 11.765625 -0.375 11.765625 -0.375 L 23.90625 -1.40625 C 25.96875 -3.582031 27.945312 -6.039062 29.84375 -8.78125 C 31.738281 -11.519531 33.476562 -14.273438 35.0625 -17.046875 C 36.65625 -19.816406 38.023438 -22.351562 39.171875 -24.65625 C 40.328125 -26.957031 41.234375 -28.804688 41.890625 -30.203125 C 42.546875 -31.609375 42.875 -32.3125 42.875 -32.3125 Z M 42.875 -32.3125 "/></g></g></g><g fill="#2563eb" fill-opacity="1"><g transform="translate(216.114866, 78.391194)"><g><path d="M 23.71875 -12.703125 C 24.53125 -13.203125 25.203125 -14.320312 25.734375 -16.0625 C 26.265625 -17.8125 26.4375 -19.460938 26.25 -21.015625 C 25.125 -20.078125 24.34375 -18.238281 23.90625 -15.5 C 23.71875 -14.382812 23.65625 -13.453125 23.71875 -12.703125 Z M 36.703125 -31.765625 C 39.691406 -30.640625 41.945312 -28.910156 43.46875 -26.578125 C 45 -24.242188 45.765625 -21.519531 45.765625 -18.40625 C 45.765625 -15.414062 45.140625 -12.613281 43.890625 -10 C 42.648438 -7.382812 40.972656 -5.0625 38.859375 -3.03125 C 36.742188 -1.007812 34.332031 0.554688 31.625 1.671875 C 28.914062 2.796875 26.097656 3.359375 23.171875 3.359375 C 18.742188 3.359375 15.160156 2.082031 12.421875 -0.46875 C 9.742188 -1.40625 7.625 -2.992188 6.0625 -5.234375 C 4.507812 -7.472656 3.734375 -10.273438 3.734375 -13.640625 C 3.734375 -17.679688 4.710938 -21.367188 6.671875 -24.703125 C 8.640625 -28.035156 11.285156 -30.695312 14.609375 -32.6875 C 17.941406 -34.6875 21.632812 -35.6875 25.6875 -35.6875 C 28.050781 -35.6875 30.148438 -35.328125 31.984375 -34.609375 C 33.828125 -33.890625 35.398438 -32.941406 36.703125 -31.765625 Z M 23.90625 -11.765625 C 23.101562 -11.390625 22.296875 -11.203125 21.484375 -11.203125 C 20.109375 -11.203125 19.125 -11.851562 18.53125 -13.15625 C 17.945312 -14.46875 17.875 -16.25 18.3125 -18.5 C 18.6875 -20.800781 19.304688 -22.492188 20.171875 -23.578125 C 21.046875 -24.671875 21.953125 -25.28125 22.890625 -25.40625 C 24.191406 -25.40625 25.15625 -25.0625 25.78125 -24.375 C 26.40625 -23.6875 26.875 -22.753906 27.1875 -21.578125 C 27.4375 -20.328125 27.421875 -19 27.140625 -17.59375 C 26.859375 -16.195312 26.4375 -14.96875 25.875 -13.90625 C 25.3125 -12.851562 24.65625 -12.140625 23.90625 -11.765625 Z M 39.984375 -24 C 39.796875 -25.75 39.109375 -27.445312 37.921875 -29.09375 C 36.734375 -30.75 35.128906 -32.101562 33.109375 -33.15625 C 31.085938 -34.21875 28.613281 -34.75 25.6875 -34.75 C 22.820312 -34.75 20.003906 -34.15625 17.234375 -32.96875 C 14.460938 -31.789062 12.03125 -30.0625 9.9375 -27.78125 C 7.851562 -25.507812 6.378906 -22.722656 5.515625 -19.421875 C 4.453125 -15.441406 4.367188 -12.035156 5.265625 -9.203125 C 6.171875 -6.367188 7.789062 -4.1875 10.125 -2.65625 C 12.46875 -1.132812 15.257812 -0.375 18.5 -0.375 C 20.113281 -0.375 21.757812 -0.5625 23.4375 -0.9375 C 26.675781 -1.6875 29.648438 -3.132812 32.359375 -5.28125 C 35.066406 -7.425781 37.148438 -10.117188 38.609375 -13.359375 C 40.078125 -16.597656 40.535156 -20.144531 39.984375 -24 Z M 39.984375 -24 "/></g></g></g><g fill="#2563eb" fill-opacity="1"><g transform="translate(253.659087, 78.391194)"><g><path d="M 18.59375 -40.265625 C 18.09375 -40.566406 17.59375 -41.03125 17.09375 -41.65625 C 15.039062 -42.09375 13.421875 -43.132812 12.234375 -44.78125 C 11.054688 -46.4375 10.46875 -48.320312 10.46875 -50.4375 C 10.46875 -52.425781 11.023438 -54.320312 12.140625 -56.125 C 13.265625 -57.9375 14.710938 -59.414062 16.484375 -60.5625 C 18.253906 -61.71875 20.140625 -62.296875 22.140625 -62.296875 C 23.441406 -62.296875 24.929688 -62.03125 26.609375 -61.5 C 28.296875 -60.976562 29.515625 -60.125 30.265625 -58.9375 C 30.578125 -58.875 30.875 -58.796875 31.15625 -58.703125 C 31.4375 -58.609375 31.726562 -58.5 32.03125 -58.375 C 33.53125 -57.8125 34.632812 -56.890625 35.34375 -55.609375 C 36.0625 -54.335938 36.421875 -52.925781 36.421875 -51.375 C 36.421875 -49.257812 35.84375 -47.21875 34.6875 -45.25 C 33.539062 -43.289062 32.035156 -41.703125 30.171875 -40.484375 C 28.304688 -39.273438 26.28125 -38.671875 24.09375 -38.671875 C 22.914062 -38.671875 21.84375 -38.828125 20.875 -39.140625 C 19.90625 -39.453125 19.144531 -39.828125 18.59375 -40.265625 Z M 8.125 -34.28125 L 25.96875 -35.875 L 25.6875 -32.59375 L 30.640625 -33.0625 C 30.453125 -30.320312 30.125 -27.285156 29.65625 -23.953125 C 29.1875 -20.628906 28.65625 -17.332031 28.0625 -14.0625 C 27.476562 -10.789062 26.921875 -7.800781 26.390625 -5.09375 C 25.859375 -2.382812 25.40625 -0.207031 25.03125 1.4375 C 24.65625 3.09375 24.46875 3.921875 24.46875 3.921875 C 23.351562 3.984375 22.484375 4.03125 21.859375 4.0625 C 21.234375 4.09375 20.671875 4.109375 20.171875 4.109375 C 17.992188 4.109375 15.769531 4.03125 13.5 3.875 C 11.226562 3.71875 9.21875 3.53125 7.46875 3.3125 C 5.726562 3.09375 4.484375 2.921875 3.734375 2.796875 C 3.921875 1.992188 4.140625 1.28125 4.390625 0.65625 C 3.203125 0.53125 2.140625 0.40625 1.203125 0.28125 C 0.273438 0.15625 -0.4375 0.0625 -0.9375 0 C 0.375 -3.925781 1.570312 -7.894531 2.65625 -11.90625 C 3.75 -15.925781 4.695312 -19.613281 5.5 -22.96875 C 6.3125 -26.332031 6.953125 -29.054688 7.421875 -31.140625 C 7.890625 -33.234375 8.125 -34.28125 8.125 -34.28125 Z M 24.9375 -34.84375 L 8.875 -33.4375 C 8.875 -33.4375 8.65625 -32.425781 8.21875 -30.40625 C 7.78125 -28.382812 7.15625 -25.753906 6.34375 -22.515625 C 5.539062 -19.273438 4.625 -15.738281 3.59375 -11.90625 C 2.570312 -8.082031 1.46875 -4.363281 0.28125 -0.75 C 0.90625 -0.625 2.007812 -0.46875 3.59375 -0.28125 C 5.1875 -0.09375 7.039062 0.0625 9.15625 0.1875 C 11.269531 0.3125 13.382812 0.375 15.5 0.375 C 16.125 0.375 16.734375 0.375 17.328125 0.375 C 17.921875 0.375 18.5 0.34375 19.0625 0.28125 C 19.0625 0.28125 19.226562 -0.507812 19.5625 -2.09375 C 19.90625 -3.6875 20.34375 -5.773438 20.875 -8.359375 C 21.40625 -10.941406 21.945312 -13.789062 22.5 -16.90625 C 23.0625 -20.019531 23.578125 -23.132812 24.046875 -26.25 C 24.515625 -29.363281 24.8125 -32.226562 24.9375 -34.84375 Z M 14.484375 -43.8125 C 14.972656 -43.4375 15.65625 -43.109375 16.53125 -42.828125 C 17.40625 -42.546875 18.367188 -42.40625 19.421875 -42.40625 C 20.546875 -42.40625 21.757812 -42.640625 23.0625 -43.109375 C 24.375 -43.578125 25.65625 -44.398438 26.90625 -45.578125 C 28.519531 -47.140625 29.65625 -48.929688 30.3125 -50.953125 C 30.96875 -52.972656 31.046875 -54.867188 30.546875 -56.640625 C 30.046875 -58.421875 28.863281 -59.65625 27 -60.34375 C 25.25 -61.03125 23.628906 -61.375 22.140625 -61.375 C 18.898438 -61.375 15.972656 -59.660156 13.359375 -56.234375 C 12.109375 -54.546875 11.453125 -52.863281 11.390625 -51.1875 C 11.328125 -49.507812 11.609375 -48.03125 12.234375 -46.75 C 12.859375 -45.46875 13.609375 -44.488281 14.484375 -43.8125 Z M 14.484375 -43.8125 "/></g></g></g><g fill="#2563eb" fill-opacity="1"><g transform="translate(274.018869, 78.391194)"><g><path d="M 23.625 3.171875 C 21.445312 3.171875 19.347656 2.890625 17.328125 2.328125 C 15.304688 1.773438 13.421875 0.75 11.671875 -0.75 C 9.179688 -1.675781 7.09375 -3.179688 5.40625 -5.265625 C 3.726562 -7.359375 2.890625 -9.929688 2.890625 -12.984375 C 2.890625 -13.921875 3.015625 -14.960938 3.265625 -16.109375 C 3.515625 -17.265625 3.859375 -18.429688 4.296875 -19.609375 C 5.546875 -22.535156 7.257812 -25.242188 9.4375 -27.734375 C 11.613281 -30.234375 14.132812 -32.242188 17 -33.765625 C 19.863281 -35.296875 22.945312 -36.0625 26.25 -36.0625 C 28.550781 -36.0625 30.585938 -35.734375 32.359375 -35.078125 C 34.140625 -34.421875 35.523438 -33.75 36.515625 -33.0625 C 37.515625 -32.375 38.015625 -32.03125 38.015625 -32.03125 L 37.921875 -31.84375 C 39.421875 -31.289062 40.585938 -30.71875 41.421875 -30.125 C 42.265625 -29.53125 42.6875 -29.234375 42.6875 -29.234375 L 36.0625 -18.96875 C 34.6875 -19.394531 33.359375 -19.71875 32.078125 -19.9375 C 30.804688 -20.15625 29.453125 -20.265625 28.015625 -20.265625 C 27.148438 -20.078125 26.234375 -19.609375 25.265625 -18.859375 C 24.296875 -18.117188 23.65625 -16.9375 23.34375 -15.3125 C 23.226562 -14.445312 23.257812 -13.765625 23.4375 -13.265625 C 24.5 -13.328125 25.664062 -13.59375 26.9375 -14.0625 C 28.21875 -14.53125 29.328125 -14.976562 30.265625 -15.40625 C 31.203125 -15.84375 31.671875 -16.0625 31.671875 -16.0625 L 31.84375 -11.296875 C 33.03125 -11.734375 34.070312 -12.171875 34.96875 -12.609375 C 35.875 -13.046875 36.328125 -13.265625 36.328125 -13.265625 L 36.796875 -0.65625 C 36.796875 -0.65625 36.25 -0.34375 35.15625 0.28125 C 34.070312 0.90625 32.546875 1.539062 30.578125 2.1875 C 28.617188 2.84375 26.300781 3.171875 23.625 3.171875 Z M 16.25 -0.65625 C 16.75 -0.59375 17.21875 -0.5625 17.65625 -0.5625 C 18.09375 -0.5625 18.53125 -0.5625 18.96875 -0.5625 C 21.582031 -0.5625 23.789062 -0.835938 25.59375 -1.390625 C 27.394531 -1.953125 28.78125 -2.515625 29.75 -3.078125 C 30.71875 -3.640625 31.203125 -3.921875 31.203125 -3.921875 L 30.734375 -14.578125 C 29.484375 -13.953125 28.171875 -13.4375 26.796875 -13.03125 C 25.429688 -12.625 24.035156 -12.421875 22.609375 -12.421875 C 21.296875 -12.546875 20.078125 -13.023438 18.953125 -13.859375 C 17.835938 -14.703125 17.4375 -16.1875 17.75 -18.3125 C 18.0625 -20.113281 18.804688 -21.460938 19.984375 -22.359375 C 21.171875 -23.265625 22.265625 -23.8125 23.265625 -24 C 23.378906 -24 23.5 -24.015625 23.625 -24.046875 C 23.75 -24.078125 23.875 -24.09375 24 -24.09375 C 24.875 -24.09375 25.867188 -23.953125 26.984375 -23.671875 C 28.109375 -23.398438 29.078125 -23.125 29.890625 -22.84375 C 30.703125 -22.5625 31.109375 -22.421875 31.109375 -22.421875 L 36.796875 -31.84375 C 36.796875 -31.84375 36.375 -32.125 35.53125 -32.6875 C 34.695312 -33.25 33.5 -33.796875 31.9375 -34.328125 C 30.382812 -34.859375 28.519531 -35.125 26.34375 -35.125 C 23.039062 -35.125 20.003906 -34.421875 17.234375 -33.015625 C 14.460938 -31.617188 12.046875 -29.71875 9.984375 -27.3125 C 7.929688 -24.914062 6.316406 -22.222656 5.140625 -19.234375 C 3.703125 -15.503906 3.421875 -12.285156 4.296875 -9.578125 C 5.171875 -6.867188 6.726562 -4.765625 8.96875 -3.265625 C 11.207031 -1.773438 13.632812 -0.90625 16.25 -0.65625 Z M 16.25 -0.65625 "/></g></g></g><g fill="#2563eb" fill-opacity="1"><g transform="translate(305.492509, 78.391194)"><g><path d="M 23.625 2.984375 C 21.507812 2.984375 19.378906 2.734375 17.234375 2.234375 C 15.085938 1.742188 13.203125 0.71875 11.578125 -0.84375 C 8.585938 -1.894531 6.40625 -3.570312 5.03125 -5.875 C 3.664062 -8.1875 2.984375 -10.710938 2.984375 -13.453125 C 2.984375 -16.003906 3.554688 -18.601562 4.703125 -21.25 C 5.859375 -23.894531 7.492188 -26.335938 9.609375 -28.578125 C 11.734375 -30.816406 14.257812 -32.679688 17.1875 -34.171875 C 20.113281 -35.671875 23.382812 -36.515625 27 -36.703125 C 29.175781 -36.640625 31.101562 -36.28125 32.78125 -35.625 C 34.46875 -34.976562 35.835938 -34.125 36.890625 -33.0625 C 39.140625 -32.25 40.898438 -31.066406 42.171875 -29.515625 C 43.453125 -27.960938 44.09375 -26.28125 44.09375 -24.46875 C 44.09375 -21.976562 43.203125 -19.503906 41.421875 -17.046875 C 39.648438 -14.585938 37.082031 -12.703125 33.71875 -11.390625 L 33.71875 -10.46875 C 34.96875 -10.707031 36.054688 -10.953125 36.984375 -11.203125 C 37.921875 -11.453125 38.390625 -11.578125 38.390625 -11.578125 C 38.390625 -11.578125 38.390625 -11.109375 38.390625 -10.171875 C 38.390625 -9.242188 38.390625 -8.09375 38.390625 -6.71875 C 38.390625 -5.351562 38.34375 -4.015625 38.25 -2.703125 C 38.15625 -1.398438 38.015625 -0.375 37.828125 0.375 C 37.828125 0.375 37.1875 0.59375 35.90625 1.03125 C 34.632812 1.46875 32.9375 1.898438 30.8125 2.328125 C 28.695312 2.765625 26.300781 2.984375 23.625 2.984375 Z M 24.375 -26.625 C 24.5625 -26.6875 24.75 -26.71875 24.9375 -26.71875 C 25.125 -26.71875 25.3125 -26.71875 25.5 -26.71875 C 27.113281 -26.71875 27.984375 -26.28125 28.109375 -25.40625 C 28.234375 -24.53125 27.71875 -23.65625 26.5625 -22.78125 C 25.414062 -21.914062 23.691406 -21.484375 21.390625 -21.484375 C 20.953125 -21.484375 20.453125 -21.515625 19.890625 -21.578125 C 19.335938 -21.640625 18.75 -21.734375 18.125 -21.859375 C 18.863281 -23.097656 19.796875 -24.15625 20.921875 -25.03125 C 22.046875 -25.90625 23.195312 -26.4375 24.375 -26.625 Z M 17.46875 -0.75 L 19.0625 -0.75 C 21.613281 -0.75 23.882812 -0.953125 25.875 -1.359375 C 27.863281 -1.765625 29.429688 -2.148438 30.578125 -2.515625 C 31.734375 -2.890625 32.3125 -3.078125 32.3125 -3.078125 C 32.5 -3.703125 32.625 -4.554688 32.6875 -5.640625 C 32.75 -6.734375 32.78125 -7.851562 32.78125 -9 C 32.78125 -10.15625 32.78125 -11.125 32.78125 -11.90625 C 32.78125 -12.6875 32.78125 -13.078125 32.78125 -13.078125 C 32.78125 -13.078125 32.3125 -12.96875 31.375 -12.75 C 30.445312 -12.53125 29.265625 -12.296875 27.828125 -12.046875 C 26.398438 -11.796875 24.90625 -11.671875 23.34375 -11.671875 C 22.226562 -11.671875 21.078125 -11.78125 19.890625 -12 C 18.710938 -12.21875 17.78125 -12.828125 17.09375 -13.828125 C 17.71875 -13.765625 18.320312 -13.71875 18.90625 -13.6875 C 19.5 -13.65625 20.078125 -13.640625 20.640625 -13.640625 C 24.628906 -13.640625 27.976562 -14.382812 30.6875 -15.875 C 33.394531 -17.375 35.398438 -19.226562 36.703125 -21.4375 C 38.015625 -23.644531 38.59375 -25.835938 38.4375 -28.015625 C 38.28125 -30.203125 37.34375 -32.039062 35.625 -33.53125 C 33.914062 -35.03125 31.347656 -35.78125 27.921875 -35.78125 L 27 -35.78125 C 23.070312 -35.65625 19.566406 -34.734375 16.484375 -33.015625 C 13.398438 -31.304688 10.847656 -29.144531 8.828125 -26.53125 C 6.804688 -23.914062 5.390625 -21.160156 4.578125 -18.265625 C 3.765625 -15.367188 3.65625 -12.613281 4.25 -10 C 4.84375 -7.382812 6.226562 -5.234375 8.40625 -3.546875 C 10.582031 -1.867188 13.601562 -0.9375 17.46875 -0.75 Z M 17.46875 -0.75 "/></g></g></g></svg>