<svg width="212" height="80" viewBox="0 0 212 80" fill="none" xmlns="http://www.w3.org/2000/svg">
<path d="M62 0H18C8.05887 0 0 8.05887 0 18V62C0 71.9411 8.05887 80 18 80H62C71.9411 80 80 71.9411 80 62V18C80 8.05887 71.9411 0 62 0Z" fill="#1D4ED8"/>
<path d="M26.9659 54.48C24.0859 54.48 21.5393 53.8667 19.3259 52.64C17.1393 51.3867 15.4193 49.68 14.1659 47.52C12.9126 45.3333 12.2859 42.8267 12.2859 40C12.2859 37.1733 12.9126 34.68 14.1659 32.52C15.4193 30.3333 17.1393 28.6267 19.3259 27.4C21.5393 26.1467 24.0859 25.52 26.9659 25.52C28.7526 25.52 30.3659 25.7867 31.8059 26.32C33.2726 26.8267 34.5526 27.5333 35.6459 28.44C36.7393 29.3467 37.6459 30.3867 38.3659 31.56L33.0459 34.76C32.6459 34.12 32.1126 33.5467 31.4459 33.04C30.8059 32.5333 30.0993 32.1467 29.3259 31.88C28.5526 31.5867 27.7659 31.44 26.9659 31.44C25.3926 31.44 23.9926 31.8 22.7659 32.52C21.5659 33.24 20.6193 34.2533 19.9259 35.56C19.2326 36.84 18.8859 38.32 18.8859 40C18.8859 41.68 19.2193 43.1733 19.8859 44.48C20.5526 45.76 21.5126 46.7733 22.7659 47.52C24.0193 48.2667 25.4726 48.64 27.1259 48.64C28.3793 48.64 29.4859 48.4 30.4459 47.92C31.4059 47.44 32.1659 46.7733 32.7259 45.92C33.2859 45.0667 33.5659 44.0667 33.5659 42.92L39.6859 41.88C39.6859 44.6 39.1393 46.9067 38.0459 48.8C36.9526 50.6667 35.4593 52.08 33.5659 53.04C31.6726 54 29.4726 54.48 26.9659 54.48ZM27.1659 43.6V38.64H39.6859V42.44L36.0859 43.6H27.1659ZM56.38 54.48C53.5 54.48 50.9533 53.8667 48.74 52.64C46.5533 51.3867 44.8333 49.68 43.58 47.52C42.3267 45.3333 41.7 42.8267 41.7 40C41.7 37.1733 42.3267 34.68 43.58 32.52C44.8333 30.3333 46.5533 28.6267 48.74 27.4C50.9533 26.1467 53.5 25.52 56.38 25.52C58.1667 25.52 59.78 25.7867 61.22 26.32C62.6867 26.8267 63.9667 27.5333 65.06 28.44C66.1533 29.3467 67.06 30.3867 67.78 31.56L62.46 34.76C62.06 34.12 61.5267 33.5467 60.86 33.04C60.22 32.5333 59.5133 32.1467 58.74 31.88C57.9667 31.5867 57.18 31.44 56.38 31.44C54.8067 31.44 53.4067 31.8 52.18 32.52C50.98 33.24 50.0333 34.2533 49.34 35.56C48.6467 36.84 48.3 38.32 48.3 40C48.3 41.68 48.6333 43.1733 49.3 44.48C49.9667 45.76 50.9267 46.7733 52.18 47.52C53.4333 48.2667 54.8867 48.64 56.54 48.64C57.7933 48.64 58.9 48.4 59.86 47.92C60.82 47.44 61.58 46.7733 62.14 45.92C62.7 45.0667 62.98 44.0667 62.98 42.92L69.1 41.88C69.1 44.6 68.5533 46.9067 67.46 48.8C66.3667 50.6667 64.8733 52.08 62.98 53.04C61.0867 54 58.8867 54.48 56.38 54.48ZM56.58 43.6V38.64H69.1V42.44L65.5 43.6H56.58Z" fill="white"/>
<path d="M93.85 53V26.4H98.486V53H93.85ZM121.038 40.992V53H116.402V42.208C116.402 41.4607 116.218 40.783 115.851 40.175C115.483 39.5543 114.989 39.0667 114.369 38.712C113.761 38.3447 113.083 38.161 112.336 38.161C111.588 38.161 110.904 38.3447 110.284 38.712C109.676 39.0667 109.188 39.5543 108.821 40.175C108.466 40.783 108.289 41.4607 108.289 42.208V53H103.653L103.634 34H108.27L108.289 35.691C108.935 35.007 109.707 34.4687 110.607 34.076C111.506 33.6707 112.475 33.468 113.514 33.468C114.894 33.468 116.155 33.81 117.295 34.494C118.435 35.1653 119.34 36.071 120.012 37.211C120.696 38.3383 121.038 39.5987 121.038 40.992ZM135.73 53H129.745L122.829 33.981H127.769L132.747 47.661L137.706 33.981H142.646L135.73 53ZM153.074 53.494C151.326 53.494 149.73 53.0443 148.286 52.145C146.854 51.2457 145.708 50.0423 144.847 48.535C143.998 47.015 143.574 45.3367 143.574 43.5C143.574 42.1067 143.821 40.8083 144.315 39.605C144.809 38.389 145.486 37.325 146.348 36.413C147.222 35.4883 148.235 34.7663 149.388 34.247C150.54 33.7277 151.769 33.468 153.074 33.468C154.822 33.468 156.411 33.9177 157.843 34.817C159.287 35.7163 160.433 36.926 161.282 38.446C162.143 39.966 162.574 41.6507 162.574 43.5C162.574 44.8807 162.327 46.1727 161.833 47.376C161.339 48.5793 160.655 49.6433 159.781 50.568C158.919 51.48 157.912 52.1957 156.76 52.715C155.62 53.2343 154.391 53.494 153.074 53.494ZM153.074 48.858C153.998 48.858 154.828 48.611 155.563 48.117C156.297 47.623 156.874 46.9707 157.292 46.16C157.722 45.3493 157.938 44.4627 157.938 43.5C157.938 42.512 157.716 41.6127 157.273 40.802C156.842 39.9787 156.253 39.3263 155.506 38.845C154.771 38.351 153.96 38.104 153.074 38.104C152.162 38.104 151.338 38.351 150.604 38.845C149.869 39.339 149.286 39.9977 148.856 40.821C148.425 41.6443 148.21 42.5373 148.21 43.5C148.21 44.5007 148.431 45.4063 148.875 46.217C149.318 47.0277 149.907 47.6737 150.642 48.155C151.389 48.6237 152.2 48.858 153.074 48.858ZM165.124 34H169.76V53H165.124V34ZM167.48 31.549C166.796 31.549 166.219 31.3273 165.751 30.884C165.282 30.428 165.048 29.858 165.048 29.174C165.048 28.5027 165.282 27.939 165.751 27.483C166.219 27.027 166.789 26.799 167.461 26.799C168.132 26.799 168.696 27.027 169.152 27.483C169.62 27.939 169.855 28.5027 169.855 29.174C169.855 29.858 169.627 30.428 169.171 30.884C168.715 31.3273 168.151 31.549 167.48 31.549ZM185.662 47.281L189.842 49.542C188.968 50.7327 187.872 51.689 186.555 52.411C185.237 53.133 183.8 53.494 182.242 53.494C180.494 53.494 178.898 53.0443 177.454 52.145C176.022 51.2457 174.876 50.0423 174.015 48.535C173.166 47.015 172.742 45.3367 172.742 43.5C172.742 42.1067 172.989 40.8083 173.483 39.605C173.977 38.389 174.654 37.325 175.516 36.413C176.39 35.4883 177.403 34.7663 178.556 34.247C179.708 33.7277 180.937 33.468 182.242 33.468C183.8 33.468 185.237 33.829 186.555 34.551C187.872 35.273 188.968 36.242 189.842 37.458L185.662 39.7C185.218 39.1933 184.693 38.8007 184.085 38.522C183.489 38.2433 182.875 38.104 182.242 38.104C181.33 38.104 180.506 38.3573 179.772 38.864C179.037 39.358 178.454 40.0167 178.024 40.84C177.593 41.6507 177.378 42.5373 177.378 43.5C177.378 44.45 177.593 45.3367 178.024 46.16C178.454 46.9707 179.037 47.623 179.772 48.117C180.506 48.611 181.33 48.858 182.242 48.858C182.9 48.858 183.527 48.7187 184.123 48.44C184.718 48.1487 185.231 47.7623 185.662 47.281ZM201.019 53.494C199.271 53.494 197.675 53.0443 196.231 52.145C194.8 51.2457 193.653 50.036 192.792 48.516C191.943 46.996 191.519 45.3177 191.519 43.481C191.519 42.1003 191.766 40.8083 192.26 39.605C192.754 38.389 193.432 37.325 194.293 36.413C195.167 35.4883 196.18 34.7663 197.333 34.247C198.486 33.7277 199.714 33.468 201.019 33.468C202.501 33.468 203.856 33.7847 205.085 34.418C206.326 35.0387 207.378 35.8937 208.239 36.983C209.1 38.0723 209.727 39.3137 210.12 40.707C210.513 42.1003 210.601 43.557 210.386 45.077H196.497C196.674 45.7863 196.966 46.426 197.371 46.996C197.776 47.5533 198.289 48.003 198.91 48.345C199.531 48.6743 200.234 48.8453 201.019 48.858C201.83 48.8707 202.564 48.6807 203.223 48.288C203.894 47.8827 204.452 47.338 204.895 46.654L209.626 47.756C208.853 49.4407 207.701 50.8213 206.168 51.898C204.635 52.962 202.919 53.494 201.019 53.494ZM196.345 41.6H205.693C205.554 40.84 205.256 40.156 204.8 39.548C204.357 38.9273 203.806 38.4333 203.147 38.066C202.488 37.6987 201.779 37.515 201.019 37.515C200.259 37.515 199.556 37.6987 198.91 38.066C198.264 38.4207 197.713 38.9083 197.257 39.529C196.814 40.137 196.51 40.8273 196.345 41.6Z" fill="#1D4ED8"/>
</svg>
