<svg width="208" height="68" viewBox="0 0 208 68" fill="none" xmlns="http://www.w3.org/2000/svg">
<path d="M62 0H18C8.05887 0 0 6.85004 0 15.3V52.7C0 61.15 8.05887 68 18 68H62C71.9411 68 80 61.15 80 52.7V15.3C80 6.85004 71.9411 0 62 0Z" fill="#1D4ED8"/>
<path d="M26.9659 48.48C24.0859 48.48 21.5393 47.8667 19.3259 46.64C17.1393 45.3867 15.4193 43.68 14.1659 41.52C12.9126 39.3333 12.2859 36.8267 12.2859 34C12.2859 31.1733 12.9126 28.68 14.1659 26.52C15.4193 24.3333 17.1393 22.6267 19.3259 21.4C21.5393 20.1467 24.0859 19.52 26.9659 19.52C28.7526 19.52 30.3659 19.7867 31.8059 20.32C33.2726 20.8267 34.5526 21.5333 35.6459 22.44C36.7393 23.3467 37.6459 24.3867 38.3659 25.56L33.0459 28.76C32.6459 28.12 32.1126 27.5467 31.4459 27.04C30.8059 26.5333 30.0993 26.1467 29.3259 25.88C28.5526 25.5867 27.7659 25.44 26.9659 25.44C25.3926 25.44 23.9926 25.8 22.7659 26.52C21.5659 27.24 20.6193 28.2533 19.9259 29.56C19.2326 30.84 18.8859 32.32 18.8859 34C18.8859 35.68 19.2193 37.1733 19.8859 38.48C20.5526 39.76 21.5126 40.7733 22.7659 41.52C24.0193 42.2667 25.4726 42.64 27.1259 42.64C28.3793 42.64 29.4859 42.4 30.4459 41.92C31.4059 41.44 32.1659 40.7733 32.7259 39.92C33.2859 39.0667 33.5659 38.0667 33.5659 36.92L39.6859 35.88C39.6859 38.6 39.1393 40.9067 38.0459 42.8C36.9526 44.6667 35.4593 46.08 33.5659 47.04C31.6726 48 29.4726 48.48 26.9659 48.48ZM27.1659 37.6V32.64H39.6859V36.44L36.0859 37.6H27.1659ZM56.38 48.48C53.5 48.48 50.9533 47.8667 48.74 46.64C46.5533 45.3867 44.8333 43.68 43.58 41.52C42.3267 39.3333 41.7 36.8267 41.7 34C41.7 31.1733 42.3267 28.68 43.58 26.52C44.8333 24.3333 46.5533 22.6267 48.74 21.4C50.9533 20.1467 53.5 19.52 56.38 19.52C58.1667 19.52 59.78 19.7867 61.22 20.32C62.6867 20.8267 63.9667 21.5333 65.06 22.44C66.1533 23.3467 67.06 24.3867 67.78 25.56L62.46 28.76C62.06 28.12 61.5267 27.5467 60.86 27.04C60.22 26.5333 59.5133 26.1467 58.74 25.88C57.9667 25.5867 57.18 25.44 56.38 25.44C54.8067 25.44 53.4067 25.8 52.18 26.52C50.98 27.24 50.0333 28.2533 49.34 29.56C48.6467 30.84 48.3 32.32 48.3 34C48.3 35.68 48.6333 37.1733 49.3 38.48C49.9667 39.76 50.9267 40.7733 52.18 41.52C53.4333 42.2667 54.8867 42.64 56.54 42.64C57.7933 42.64 58.9 42.4 59.86 41.92C60.82 41.44 61.58 40.7733 62.14 39.92C62.7 39.0667 62.98 38.0667 62.98 36.92L69.1 35.88C69.1 38.6 68.5533 40.9067 67.46 42.8C66.3667 44.6667 64.8733 46.08 62.98 47.04C61.0867 48 58.8867 48.48 56.38 48.48ZM56.58 37.6V32.64H69.1V36.44L65.5 37.6H56.58Z" fill="white"/>
<path d="M90.28 28H94.916V47H90.28V28ZM92.636 25.549C91.952 25.549 91.3757 25.3273 90.907 24.884C90.4383 24.428 90.204 23.858 90.204 23.174C90.204 22.5027 90.4383 21.939 90.907 21.483C91.3757 21.027 91.9457 20.799 92.617 20.799C93.2883 20.799 93.852 21.027 94.308 21.483C94.7767 21.939 95.011 22.5027 95.011 23.174C95.011 23.858 94.783 24.428 94.327 24.884C93.871 25.3273 93.3073 25.549 92.636 25.549ZM116.739 34.992V47H112.103V36.208C112.103 35.4607 111.919 34.783 111.552 34.175C111.184 33.5543 110.69 33.0667 110.07 32.712C109.462 32.3447 108.784 32.161 108.037 32.161C107.289 32.161 106.605 32.3447 105.985 32.712C105.377 33.0667 104.889 33.5543 104.522 34.175C104.167 34.783 103.99 35.4607 103.99 36.208V47H99.3537L99.3347 28H103.971L103.99 29.691C104.636 29.007 105.408 28.4687 106.308 28.076C107.207 27.6707 108.176 27.468 109.215 27.468C110.595 27.468 111.856 27.81 112.996 28.494C114.136 29.1653 115.041 30.071 115.713 31.211C116.397 32.3383 116.739 33.5987 116.739 34.992ZM131.432 47H125.447L118.531 27.981H123.471L128.449 41.661L133.408 27.981H138.348L131.432 47ZM148.775 47.494C147.027 47.494 145.431 47.0443 143.987 46.145C142.555 45.2457 141.409 44.0423 140.548 42.535C139.699 41.015 139.275 39.3367 139.275 37.5C139.275 36.1067 139.522 34.8083 140.016 33.605C140.51 32.389 141.187 31.325 142.049 30.413C142.923 29.4883 143.936 28.7663 145.089 28.247C146.241 27.7277 147.47 27.468 148.775 27.468C150.523 27.468 152.112 27.9177 153.544 28.817C154.988 29.7163 156.134 30.926 156.983 32.446C157.844 33.966 158.275 35.6507 158.275 37.5C158.275 38.8807 158.028 40.1727 157.534 41.376C157.04 42.5793 156.356 43.6433 155.482 44.568C154.62 45.48 153.613 46.1957 152.461 46.715C151.321 47.2343 150.092 47.494 148.775 47.494ZM148.775 42.858C149.699 42.858 150.529 42.611 151.264 42.117C151.998 41.623 152.575 40.9707 152.993 40.16C153.423 39.3493 153.639 38.4627 153.639 37.5C153.639 36.512 153.417 35.6127 152.974 34.802C152.543 33.9787 151.954 33.3263 151.207 32.845C150.472 32.351 149.661 32.104 148.775 32.104C147.863 32.104 147.039 32.351 146.305 32.845C145.57 33.339 144.987 33.9977 144.557 34.821C144.126 35.6443 143.911 36.5373 143.911 37.5C143.911 38.5007 144.132 39.4063 144.576 40.217C145.019 41.0277 145.608 41.6737 146.343 42.155C147.09 42.6237 147.901 42.858 148.775 42.858ZM160.825 28H165.461V47H160.825V28ZM163.181 25.549C162.497 25.549 161.921 25.3273 161.452 24.884C160.983 24.428 160.749 23.858 160.749 23.174C160.749 22.5027 160.983 21.939 161.452 21.483C161.921 21.027 162.491 20.799 163.162 20.799C163.833 20.799 164.397 21.027 164.853 21.483C165.322 21.939 165.556 22.5027 165.556 23.174C165.556 23.858 165.328 24.428 164.872 24.884C164.416 25.3273 163.852 25.549 163.181 25.549ZM181.363 41.281L185.543 43.542C184.669 44.7327 183.573 45.689 182.256 46.411C180.938 47.133 179.501 47.494 177.943 47.494C176.195 47.494 174.599 47.0443 173.155 46.145C171.723 45.2457 170.577 44.0423 169.716 42.535C168.867 41.015 168.443 39.3367 168.443 37.5C168.443 36.1067 168.69 34.8083 169.184 33.605C169.678 32.389 170.355 31.325 171.217 30.413C172.091 29.4883 173.104 28.7663 174.257 28.247C175.409 27.7277 176.638 27.468 177.943 27.468C179.501 27.468 180.938 27.829 182.256 28.551C183.573 29.273 184.669 30.242 185.543 31.458L181.363 33.7C180.919 33.1933 180.394 32.8007 179.786 32.522C179.19 32.2433 178.576 32.104 177.943 32.104C177.031 32.104 176.207 32.3573 175.473 32.864C174.738 33.358 174.155 34.0167 173.725 34.84C173.294 35.6507 173.079 36.5373 173.079 37.5C173.079 38.45 173.294 39.3367 173.725 40.16C174.155 40.9707 174.738 41.623 175.473 42.117C176.207 42.611 177.031 42.858 177.943 42.858C178.601 42.858 179.228 42.7187 179.824 42.44C180.419 42.1487 180.932 41.7623 181.363 41.281ZM196.72 47.494C194.972 47.494 193.376 47.0443 191.932 46.145C190.501 45.2457 189.354 44.036 188.493 42.516C187.644 40.996 187.22 39.3177 187.22 37.481C187.22 36.1003 187.467 34.8083 187.961 33.605C188.455 32.389 189.133 31.325 189.994 30.413C190.868 29.4883 191.881 28.7663 193.034 28.247C194.187 27.7277 195.415 27.468 196.72 27.468C198.202 27.468 199.557 27.7847 200.786 28.418C202.027 29.0387 203.079 29.8937 203.94 30.983C204.801 32.0723 205.428 33.3137 205.821 34.707C206.214 36.1003 206.302 37.557 206.087 39.077H192.198C192.375 39.7863 192.667 40.426 193.072 40.996C193.477 41.5533 193.99 42.003 194.611 42.345C195.232 42.6743 195.935 42.8453 196.72 42.858C197.531 42.8707 198.265 42.6807 198.924 42.288C199.595 41.8827 200.153 41.338 200.596 40.654L205.327 41.756C204.554 43.4407 203.402 44.8213 201.869 45.898C200.336 46.962 198.62 47.494 196.72 47.494ZM192.046 35.6H201.394C201.255 34.84 200.957 34.156 200.501 33.548C200.058 32.9273 199.507 32.4333 198.848 32.066C198.189 31.6987 197.48 31.515 196.72 31.515C195.96 31.515 195.257 31.6987 194.611 32.066C193.965 32.4207 193.414 32.9083 192.958 33.529C192.515 34.137 192.211 34.8273 192.046 35.6Z" fill="#1D4ED8"/>
</svg>
